<svg width="79" height="60" viewBox="0 0 79 60" fill="none" xmlns="http://www.w3.org/2000/svg">
<rect x="0.25" y="0.25" width="78.5" height="59.5" rx="7.75" fill="white" stroke="#DB353A" stroke-width="0.5"/>
<path d="M51.102 20.8751C51.1323 27.6731 45.6151 33.4646 38.5114 33.4738C31.581 33.4819 25.8927 27.8951 25.8981 20.8621C25.9035 13.7373 31.7052 8.24717 38.5233 8.26175C45.5039 8.27633 51.1361 13.9749 51.102 20.8751ZM38.9979 15.8979C38.9758 17.9315 40.6806 19.5796 42.6786 19.5791C44.5886 19.5791 46.356 18.0368 46.3603 15.8925C46.3646 13.7282 44.5967 12.1967 42.6969 12.1929C40.7335 12.1892 38.9747 13.8254 38.9979 15.8979Z" fill="#DB353A"/>
<path d="M62.9134 45.5422C62.8718 45.5281 62.8594 45.5373 62.8464 45.5589C62.537 46.0838 62.0515 46.3689 61.4775 46.4812C60.4618 46.6827 59.5157 46.4877 58.6798 45.8656C57.9907 45.3526 57.6041 44.6447 57.4918 43.8012C57.3673 42.9481 57.5012 42.0773 57.8762 41.301C58.4233 40.167 59.3305 39.4839 60.5536 39.2193C61.0492 39.1053 61.561 39.0797 62.0656 39.1437C63.3243 39.316 64.1807 39.9964 64.6457 41.1709C64.8084 41.5682 64.8927 41.9932 64.8941 42.4226C64.8849 43.6867 64.9389 44.9493 64.9611 46.2129C64.9715 46.7116 64.8865 47.2078 64.7105 47.6746C64.3055 48.746 63.5597 49.4761 62.4749 49.8379C61.601 50.1327 60.6586 50.1571 59.7706 49.9081C59.4425 49.8221 59.1328 49.6774 58.8563 49.4809C58.3892 49.1451 58.1263 48.705 58.1543 48.1126C58.1641 47.9041 58.1544 47.6946 58.1571 47.4856C58.1571 47.4446 58.1662 47.4014 58.2083 47.3879C58.2282 47.3836 58.2489 47.3851 58.268 47.392C58.2871 47.399 58.3039 47.4112 58.3163 47.4273C58.5052 47.6051 58.7217 47.751 58.9573 47.8593C59.2824 48.0102 59.6265 48.1161 59.9801 48.1741C60.3407 48.2346 60.7069 48.2549 61.072 48.2346C61.3709 48.2249 61.6659 48.1639 61.9441 48.0543C62.4754 47.8383 62.7929 47.4424 62.9042 46.8857C62.9639 46.6017 62.9781 46.3101 62.9463 46.0217C62.929 45.8613 62.9242 45.6966 62.9134 45.5422ZM62.875 42.8422C62.875 42.3529 62.821 42.0484 62.6866 41.7503C62.4209 41.1525 61.9117 40.8766 61.275 40.909C60.6383 40.9414 60.141 41.2578 59.83 41.821C59.6588 42.1197 59.5563 42.4528 59.53 42.7961C59.5036 43.1394 59.5541 43.4842 59.6777 43.8055C59.9353 44.5075 60.5957 44.9979 61.5445 44.8002C62.1385 44.676 62.5165 44.2894 62.7287 43.7326C62.8324 43.4481 62.8821 43.1466 62.875 42.8438V42.8422Z" fill="#686767"/>
<path d="M18.992 39.7371C18.9174 39.7307 18.884 39.675 18.8424 39.6356C18.2948 39.1302 17.6376 38.8796 16.9076 38.79C16.4726 38.7366 16.0328 38.7375 15.5981 38.7927C15.3002 38.8209 15.0097 38.9015 14.74 39.0308C14.2977 39.2576 14.0828 39.6173 14.0974 40.1173C14.0989 40.2321 14.1252 40.3452 14.1745 40.4488C14.2238 40.5525 14.2949 40.6442 14.3831 40.7178C14.5203 40.8333 14.6744 40.9272 14.8399 40.9964C15.2155 41.1551 15.6049 41.2793 16.0031 41.3674C16.3411 41.4484 16.6824 41.5186 17.0177 41.6109C17.4712 41.731 17.8991 41.9323 18.2808 42.2049C18.8294 42.6035 19.1988 43.1289 19.2798 43.805C19.4618 45.3008 18.8661 46.7366 17.2208 47.3382C16.4799 47.6082 15.7088 47.673 14.9268 47.6114C14.5392 47.5896 14.1557 47.5207 13.7847 47.4062C13.5284 47.3264 13.2845 47.2112 13.0601 47.0639C12.5454 46.7139 12.2776 46.2285 12.2646 45.6059C12.2587 45.3272 12.2646 45.0486 12.2646 44.7699C12.2646 44.7078 12.3154 44.6814 12.3635 44.7159C12.4272 44.7635 12.4871 44.8164 12.5498 44.865C13.5012 45.6037 14.5764 45.891 15.7698 45.7517C16.0278 45.7281 16.2812 45.6676 16.522 45.5718C16.7877 45.4595 17.0048 45.291 17.1263 45.0232C17.2726 44.6992 17.2758 44.366 17.1948 44.0301C17.1538 43.8606 17.0328 43.7358 16.8957 43.6316C16.7418 43.5212 16.5731 43.433 16.3946 43.3697C15.9371 43.204 15.4677 43.0729 14.9906 42.9777C14.6297 42.9057 14.2747 42.8072 13.9284 42.6828C13.5436 42.5452 13.1851 42.3428 12.8684 42.0845C12.2484 41.5629 11.986 40.8868 12.0497 40.0979C12.1653 38.7095 12.9369 37.7937 14.1865 37.251C14.6266 37.0622 15.0983 36.9576 15.577 36.9426C16.1548 36.9205 16.731 36.9308 17.2974 37.0685C17.6085 37.1381 17.9071 37.2552 18.1825 37.4157C18.4698 37.5791 18.7047 37.8209 18.8597 38.1128C18.9479 38.2697 18.9998 38.4445 19.0114 38.6242C19.0206 38.972 19.0233 39.3203 19.026 39.6686C19.026 39.6902 19.006 39.715 18.992 39.7371Z" fill="#686767"/>
<path d="M29.3098 44.242C28.9421 44.242 28.5738 44.242 28.2055 44.242C28.0932 44.242 28.0635 44.2809 28.0872 44.3895C28.1459 44.663 28.2709 44.918 28.4512 45.132C28.7784 45.5213 29.204 45.7405 29.6932 45.8502C30.0971 45.9409 30.5032 45.9252 30.9114 45.8912C31.2191 45.8664 31.5229 45.8066 31.817 45.713C32.1696 45.604 32.4975 45.427 32.782 45.1919C32.8436 45.1379 32.9046 45.1671 32.9046 45.2432C32.9046 45.5316 32.9219 45.8194 32.8743 46.1072C32.8447 46.3096 32.7731 46.5035 32.6642 46.6766C32.5553 46.8498 32.4115 46.9983 32.242 47.1127C31.9528 47.3091 31.6252 47.4418 31.2808 47.502C30.6733 47.6208 30.062 47.671 29.4416 47.5895C27.9582 47.3956 26.5515 46.3254 26.1114 44.6848C25.9749 44.1748 25.9281 43.6449 25.9731 43.1188C26.0034 42.6521 26.0925 42.1911 26.2383 41.7467C26.5337 40.8924 27.0332 40.192 27.8043 39.7028C28.3178 39.3788 28.8816 39.2055 29.4848 39.1374C30.1092 39.0579 30.7435 39.1483 31.3208 39.3993C32.2852 39.8248 32.903 40.549 33.1303 41.5858C33.2157 41.9451 33.228 42.3178 33.1665 42.682C33.0871 43.114 32.8743 43.4585 32.5034 43.7004C32.2322 43.8685 31.9338 43.9878 31.6215 44.053C31.1456 44.1597 30.6603 44.2191 30.1727 44.2302C29.8844 44.2388 29.596 44.2302 29.3087 44.2302L29.3098 44.242ZM29.0679 42.8067C29.4707 42.8024 29.9076 42.8067 30.3417 42.7446C30.5488 42.7207 30.7517 42.6689 30.9449 42.5907C31.0527 42.5493 31.145 42.4754 31.209 42.3792C31.2729 42.2831 31.3054 42.1694 31.3019 42.054C31.3083 41.5923 31.1247 41.1856 30.6539 40.974C30.2331 40.7847 29.7598 40.7465 29.3141 40.866C28.7768 41.0053 28.4253 41.3671 28.2071 41.8671C28.1018 42.1074 28.0716 42.3639 28.0489 42.6231C28.0349 42.7792 28.0516 42.8019 28.2006 42.8035C28.4782 42.8089 28.7563 42.8067 29.0679 42.8067Z" fill="#686767"/>
<path d="M56.199 44.7678C56.199 45.5238 56.199 46.2798 56.199 47.0358C56.199 47.0958 56.199 47.1557 56.199 47.2151C56.1941 47.4403 56.1904 47.4452 55.9609 47.4473C55.7222 47.4473 55.483 47.456 55.2481 47.4003C54.734 47.2788 54.3716 46.9899 54.2183 46.471C54.1724 46.316 54.1783 46.1556 54.1783 45.9963C54.1783 44.9909 54.1783 43.9856 54.1783 42.9804C54.182 42.6715 54.1483 42.3633 54.0779 42.0624C54.0381 41.8978 53.9752 41.7396 53.891 41.5926C53.7438 41.3289 53.5062 41.1273 53.222 41.0251C52.8751 40.8921 52.4955 40.8701 52.1355 40.9619C51.823 41.0393 51.5515 41.2323 51.3757 41.5019C51.2209 41.7349 51.122 42.0004 51.0868 42.2779C51.0568 42.4948 51.0417 42.7134 51.0415 42.9324C51.044 44.3263 51.044 45.7199 51.0415 47.1131C51.0415 47.4781 51.0652 47.4473 50.6991 47.4473C50.5003 47.4549 50.3012 47.4418 50.1051 47.4084C49.49 47.2832 49.1034 46.8684 49.0375 46.2496C49.0268 46.1407 49.0218 46.0313 49.0224 45.9218C49.0224 44.8562 49.0224 43.7912 49.0224 42.7266C49.0224 42.2946 49.0629 41.8713 49.1979 41.4603C49.5478 40.396 50.246 39.6681 51.3158 39.3209C52.1198 39.06 52.9358 39.0228 53.7555 39.2582C55.0423 39.6292 55.8075 40.4921 56.1023 41.787C56.1709 42.1195 56.2031 42.4585 56.1985 42.7979C56.2017 43.4535 56.199 44.1107 56.199 44.7678Z" fill="#676767"/>
<path d="M20.6757 42.0748C20.6757 41.2481 20.6757 40.4219 20.6757 39.5957C20.6721 39.4365 20.6808 39.2773 20.7016 39.1194C20.8047 38.4557 21.1968 37.9822 21.7276 37.6106C21.9879 37.4292 22.2903 37.433 22.5916 37.4573C22.6169 37.4588 22.6406 37.4703 22.6575 37.4892C22.6744 37.5081 22.6831 37.5329 22.6818 37.5583C22.6856 37.6279 22.6856 37.6976 22.6856 37.7672C22.6856 38.1652 22.6856 38.5637 22.6856 38.9617C22.6856 39.0314 22.6856 39.101 22.6856 39.1707C22.6836 39.1856 22.685 39.2008 22.6896 39.2152C22.6943 39.2295 22.702 39.2426 22.7124 39.2536C22.7227 39.2646 22.7354 39.2731 22.7494 39.2785C22.7635 39.284 22.7785 39.2863 22.7936 39.2852C22.8735 39.2852 22.9529 39.2884 23.0322 39.2884H25.1231C25.1831 39.2884 25.2425 39.2884 25.3024 39.2884C25.4963 39.2927 25.5006 39.296 25.5038 39.4931C25.5038 39.6626 25.5038 39.8317 25.5038 40.0007C25.5 40.5763 25.1517 40.9819 24.5815 41.0645C24.4334 41.0837 24.2842 41.0929 24.1349 41.092C23.7666 41.0958 23.3984 41.092 23.0301 41.092C22.9604 41.092 22.8908 41.092 22.8211 41.092C22.7244 41.0974 22.6931 41.126 22.6872 41.2141C22.6829 41.2735 22.6839 41.3334 22.6839 41.3933C22.6839 42.3387 22.6839 43.2844 22.6839 44.2305C22.6763 44.4595 22.7004 44.6885 22.7558 44.9109C22.8951 45.3969 23.1937 45.6669 23.7153 45.7144C24.2732 45.7619 24.8299 45.7328 25.3521 45.4865C25.4628 45.4325 25.5006 45.4579 25.5022 45.574C25.5022 45.79 25.5103 46.0125 25.5022 46.2307C25.4768 46.7566 25.2236 47.1314 24.7397 47.3479C24.5581 47.4305 24.3642 47.4826 24.1657 47.5024C23.6073 47.5564 23.0517 47.5348 22.5101 47.3695C21.6061 47.0947 21.0386 46.4931 20.7977 45.5827C20.7123 45.2548 20.6702 44.9171 20.6724 44.5783C20.6724 43.7423 20.6724 42.9062 20.6724 42.07L20.6757 42.0748Z" fill="#686868"/>
<path d="M39.9099 41.0347C39.9099 39.6415 39.9099 38.2486 39.9099 36.8561C39.9099 36.5699 39.9008 36.5813 40.1886 36.5824C40.3382 36.5824 40.4872 36.5824 40.6362 36.5856C40.8057 36.5901 40.9731 36.6233 41.1314 36.6839C41.5391 36.8308 41.7832 37.1229 41.8874 37.5392C41.9259 37.7142 41.943 37.8932 41.9382 38.0722C41.9382 40.2409 41.9382 42.4095 41.9382 44.5781C41.9382 44.7175 41.9382 44.8573 41.9474 44.9956C41.9814 45.4146 42.1995 45.6765 42.6013 45.784C42.7744 45.8304 42.9529 45.8537 43.1321 45.8531C43.3314 45.8531 43.5301 45.8531 43.7294 45.8563C43.7958 45.8563 43.8476 45.8822 43.8498 45.9568C43.8573 46.2268 43.8687 46.4968 43.7958 46.757C43.7596 46.9078 43.6858 47.047 43.5812 47.1615C43.4767 47.2761 43.3449 47.3622 43.198 47.4121C43.059 47.4637 42.9137 47.4966 42.766 47.5098C42.319 47.5508 41.8683 47.504 41.4392 47.3721C40.6211 47.1129 40.1556 46.5427 39.9812 45.7154C39.9324 45.4612 39.9103 45.2025 39.9153 44.9437C39.9121 43.6409 39.9103 42.3379 39.9099 41.0347Z" fill="#686868"/>
<path d="M36.4243 44.8492C36.4243 45.6264 36.4243 46.4031 36.4243 47.1793C36.4243 47.4493 36.421 47.4493 36.1645 47.4493C35.908 47.4493 35.6467 47.4547 35.3918 47.3953C34.9333 47.2927 34.5904 47.0519 34.4446 46.5853C34.3981 46.4327 34.3749 46.2739 34.3761 46.1144C34.3761 44.86 34.3701 43.6056 34.3798 42.3512C34.3754 41.8215 34.4859 41.2971 34.7038 40.8143C35.1137 39.9341 35.8033 39.4265 36.7558 39.2683C37.1486 39.1954 37.5517 39.1971 37.9438 39.2732C38.1298 39.3092 38.308 39.3775 38.4703 39.4751C38.6528 39.58 38.8046 39.7308 38.9108 39.9124C39.017 40.0941 39.0738 40.3004 39.0757 40.5108C39.0832 40.7096 39.0795 40.9088 39.0757 41.1081C39.0757 41.2528 39.0368 41.2755 38.8894 41.229C38.823 41.2085 38.7582 41.1821 38.6917 41.161C38.3108 41.0402 37.908 41.0048 37.5118 41.0573C37.0572 41.1178 36.7434 41.363 36.5749 41.789C36.499 41.9736 36.4548 42.1697 36.4443 42.369C36.4345 42.5974 36.4264 42.8264 36.4259 43.0553C36.4227 43.6531 36.4243 44.2503 36.4243 44.8492Z" fill="#686868"/>
<path d="M44.6333 42.486C44.6333 41.5695 44.6333 40.6535 44.6333 39.738C44.6333 39.4728 44.6333 39.4723 44.8909 39.468C45.1297 39.4579 45.3689 39.4722 45.6048 39.5106C46.1394 39.6186 46.4688 39.9351 46.5978 40.4605C46.6425 40.6553 46.6633 40.8547 46.6599 41.0545C46.6574 42.2493 46.6574 43.4442 46.6599 44.639C46.6599 44.7681 46.6567 44.8982 46.6691 45.0267C46.7075 45.4182 46.8819 45.7142 47.3565 45.8108C47.5724 45.8464 47.7913 45.8605 48.0099 45.8529C48.2762 45.8529 48.2751 45.8502 48.2735 46.1154C48.2812 46.3343 48.2651 46.5534 48.2254 46.7688C48.1401 47.1468 47.9192 47.3828 47.5385 47.4708C47.4127 47.5002 47.2843 47.5169 47.1551 47.5205C46.8364 47.5308 46.5178 47.4944 46.2096 47.4125C45.4536 47.2051 44.9762 46.7148 44.7591 45.9685C44.6718 45.6616 44.6292 45.3437 44.6328 45.0246C44.6328 44.1784 44.6328 43.3322 44.6328 42.4866L44.6333 42.486Z" fill="#686868"/>
<path d="M44.454 37.5261C44.4547 37.2149 44.5786 36.9166 44.7986 36.6965C45.0186 36.4765 45.3168 36.3524 45.628 36.3516C46.2825 36.3516 46.8441 36.9029 46.8235 37.5444C46.8193 37.8567 46.693 38.1549 46.4717 38.3752C46.2504 38.5955 45.9516 38.7205 45.6393 38.7232C45.4824 38.7243 45.3268 38.694 45.1817 38.6341C45.0366 38.5742 44.905 38.4859 44.7945 38.3743C44.6841 38.2628 44.5971 38.1303 44.5386 37.9846C44.4801 37.8389 44.4514 37.683 44.454 37.5261Z" fill="#686868"/>
<path d="M44.4135 50.2562C44.4718 50.2022 44.5215 50.1558 44.5755 50.1158C44.9206 49.8582 45.4724 49.997 45.5475 50.4825C45.5621 50.5506 45.5717 50.6198 45.5761 50.6893C45.5794 50.9777 45.5761 51.2666 45.5761 51.5533C45.5761 51.6132 45.5761 51.6802 45.4973 51.6926C45.4625 51.6982 45.4269 51.6932 45.395 51.6783C45.3632 51.6634 45.3365 51.6392 45.3185 51.6089C45.29 51.5559 45.2782 51.4955 45.2845 51.4356C45.2845 51.2169 45.2845 50.9976 45.2845 50.7784C45.2879 50.6687 45.2684 50.5594 45.2273 50.4576C45.1673 50.3189 45.062 50.2611 44.8887 50.2692C44.7267 50.2767 44.6122 50.3529 44.5782 50.4981C44.5556 50.6047 44.5442 50.7133 44.5442 50.8221C44.5393 51.0614 44.5442 51.3 44.5442 51.5393C44.5442 51.5976 44.5507 51.6651 44.4799 51.691C44.436 51.7015 44.3898 51.6949 44.3505 51.6726C44.3113 51.6502 44.2821 51.6137 44.2688 51.5706C44.2553 51.5025 44.2487 51.4332 44.2493 51.3638C44.2466 51.1845 44.2493 51.0052 44.2466 50.8238C44.2458 50.7244 44.2346 50.6254 44.2132 50.5284C44.1966 50.4495 44.1519 50.3794 44.0874 50.3311C44.0229 50.2828 43.943 50.2596 43.8627 50.2659C43.6937 50.2692 43.597 50.3475 43.5387 50.5219C43.5103 50.6274 43.4988 50.7368 43.5047 50.8459C43.5047 51.0948 43.5047 51.3438 43.5004 51.5927C43.5006 51.6099 43.4963 51.6268 43.488 51.6419C43.4797 51.6569 43.4677 51.6695 43.453 51.6784C43.4383 51.6874 43.4216 51.6923 43.4044 51.6928C43.3873 51.6933 43.3703 51.6894 43.3551 51.6813C43.2428 51.6402 43.2125 51.5501 43.212 51.4448C43.212 51.1856 43.2061 50.9269 43.2158 50.6682C43.2212 50.5689 43.244 50.4713 43.2833 50.3799C43.3507 50.2224 43.4769 50.0974 43.6349 50.0314C43.793 49.9653 43.9706 49.9635 44.13 50.0262C44.2456 50.0775 44.3228 50.1693 44.4135 50.2562Z" fill="#706E6E"/>
<path d="M50.7807 50.5847C50.7953 50.6387 50.8444 50.6538 50.8822 50.6813C51.2062 50.9146 51.1031 51.3687 50.8547 51.5599C50.8 51.6029 50.7383 51.636 50.6722 51.6576C50.4135 51.7339 50.1391 51.739 49.8778 51.6722C49.7072 51.6323 49.6127 51.5032 49.5922 51.3272C49.5874 51.2776 49.5856 51.2279 49.5868 51.1781C49.5868 50.7402 49.5868 50.3022 49.5868 49.8643C49.5868 49.6288 49.5895 49.6267 49.8292 49.5803C50.0646 49.5356 50.3057 49.531 50.5426 49.5668C50.8326 49.6089 51.0653 49.8124 51.0361 50.1683C51.0317 50.2788 50.9852 50.3833 50.906 50.4605C50.866 50.501 50.8012 50.5204 50.7807 50.5847ZM49.8773 51.0167C49.8773 51.0663 49.8773 51.1155 49.8773 51.1652C49.8762 51.1849 49.8762 51.2048 49.8773 51.2245C49.8903 51.3471 49.9378 51.4168 50.0485 51.4368C50.2233 51.4764 50.4057 51.4668 50.5755 51.4092C50.7375 51.3471 50.8018 51.2246 50.7856 51.0269C50.7721 50.8649 50.7008 50.7742 50.535 50.7423C50.4183 50.7213 50.2999 50.7104 50.1813 50.7099C49.8633 50.7062 49.8757 50.6954 49.8773 51.0177V51.0167ZM50.211 50.4767C50.3196 50.4713 50.4277 50.4599 50.535 50.4426C50.6711 50.414 50.744 50.3076 50.751 50.1602C50.7564 50.0042 50.697 49.9059 50.5685 49.8535C50.4472 49.8112 50.3185 49.7948 50.1905 49.8054C49.8957 49.8146 49.8768 49.833 49.8773 50.1294C49.8741 50.4923 49.8487 50.4664 50.211 50.4756V50.4767Z" fill="#737070"/>
<path d="M30.3865 50.6791C30.3784 50.8182 30.3527 50.9557 30.3099 51.0884C30.1603 51.5015 29.8325 51.7364 29.4048 51.7277C29.2044 51.727 29.0099 51.6604 28.851 51.5382C28.6922 51.4161 28.5779 51.2451 28.5257 51.0517C28.4371 50.7645 28.4443 50.4563 28.5462 50.1736C28.699 49.7389 29.0322 49.5224 29.5123 49.5445C29.9135 49.5629 30.2294 49.8248 30.339 50.2384C30.378 50.3819 30.3941 50.5306 30.3865 50.6791ZM28.7536 50.6045C28.7492 50.7338 28.7675 50.8628 28.8076 50.9858C28.8924 51.2909 29.1278 51.4621 29.4459 51.461C29.7429 51.461 29.9664 51.286 30.0534 50.9879C30.1182 50.7584 30.1182 50.5154 30.0534 50.2859C29.9713 49.9738 29.7526 49.8059 29.4248 49.7999C29.1154 49.7999 28.8934 49.9565 28.8038 50.2535C28.7653 50.3664 28.7482 50.4854 28.7536 50.6045Z" fill="#706E6E"/>
<path d="M33.8597 51.3191C33.911 51.4919 33.837 51.5854 33.7112 51.6507C33.2927 51.8667 32.7522 51.6658 32.5972 51.2241C32.5424 51.0788 32.5224 50.9227 32.5387 50.7683C32.555 50.6138 32.6072 50.4654 32.6912 50.3347C32.7867 50.1747 32.9412 50.0586 33.1215 50.0114C33.3018 49.9643 33.4934 49.9898 33.6551 50.0825C33.7562 50.138 33.838 50.2231 33.8892 50.3264C33.9405 50.4297 33.9589 50.5463 33.9418 50.6603C33.9374 50.7152 33.9182 50.7678 33.8861 50.8126C33.854 50.8573 33.8104 50.8924 33.7598 50.9141C33.6501 50.9628 33.531 50.9872 33.411 50.9854C33.2522 50.9854 33.0929 50.9854 32.9336 50.9919C32.9214 50.9927 32.9096 50.9962 32.899 51.0023C32.8885 51.0084 32.8794 51.0168 32.8726 51.0269C32.8658 51.0371 32.8615 51.0486 32.8599 51.0607C32.8583 51.0728 32.8595 51.0851 32.8634 51.0967C32.9174 51.3035 33.0886 51.439 33.3224 51.4574C33.4747 51.4693 33.5778 51.4433 33.8597 51.3191ZM33.2414 50.75C33.2889 50.7467 33.4088 50.7451 33.5255 50.7273C33.6275 50.7116 33.6702 50.6333 33.6567 50.5297C33.6528 50.4746 33.6326 50.422 33.5987 50.3785C33.5647 50.335 33.5185 50.3027 33.4661 50.2856C33.2279 50.2057 32.9412 50.2802 32.8569 50.5918C32.8289 50.6954 32.8596 50.7451 32.9622 50.7494C33.0314 50.7527 33.0999 50.75 33.2414 50.75Z" fill="#737070"/>
<path d="M47.2949 51.3001C47.3198 51.5334 47.2172 51.6354 47.0644 51.6813C46.499 51.8493 46.0664 51.5663 45.9709 51.07C45.9197 50.8231 45.9655 50.5659 46.0988 50.3518C46.29 50.0397 46.6561 49.9085 46.978 50.0376C47.0774 50.0725 47.1656 50.1335 47.2334 50.2141C47.3012 50.2948 47.3461 50.3921 47.3635 50.496C47.3959 50.6726 47.3457 50.8918 47.0838 50.9502C47.0066 50.968 46.928 50.9798 46.8489 50.9853C46.7296 50.9917 46.6097 50.9853 46.4909 50.9912C46.4245 50.9912 46.337 50.9626 46.2997 51.0312C46.2517 51.1208 46.3105 51.2029 46.3678 51.2725C46.5011 51.4345 46.6793 51.4761 46.8781 51.4556C47.0266 51.4344 47.1688 51.3813 47.2949 51.3001ZM46.2689 50.7369C46.4842 50.764 46.702 50.7629 46.9169 50.7336C47.0714 50.7142 47.1254 50.5911 47.0552 50.4485C47.0363 50.4081 47.0091 50.3722 46.9754 50.343C46.9418 50.3138 46.9023 50.292 46.8597 50.2789C46.546 50.179 46.2797 50.3799 46.2716 50.7374L46.2689 50.7369Z" fill="#737070"/>
<path d="M51.5048 50.4231C51.4643 50.3048 51.5151 50.2157 51.6009 50.1385C51.825 49.9376 52.2867 49.9322 52.5189 50.1277C52.5703 50.1676 52.6127 50.2179 52.6434 50.2753C52.6741 50.3327 52.6924 50.3959 52.6971 50.4609C52.7085 50.7309 52.7128 50.9976 52.6971 51.2649C52.6936 51.3555 52.6622 51.4428 52.6074 51.515C52.5525 51.5871 52.4767 51.6407 52.3904 51.6683C52.185 51.7509 51.9553 51.7493 51.751 51.664C51.5512 51.5808 51.4233 51.4393 51.427 51.2115C51.4244 51.111 51.4537 51.0123 51.5108 50.9296C51.5679 50.8469 51.6497 50.7845 51.7446 50.7514C51.8277 50.7194 51.9144 50.6973 52.0027 50.6855C52.0907 50.672 52.1809 50.6736 52.2727 50.6671C52.392 50.6585 52.4314 50.6072 52.4077 50.4965C52.3993 50.4367 52.3706 50.3816 52.3263 50.3406C52.282 50.2996 52.2249 50.2751 52.1647 50.2713C51.9969 50.2412 51.8238 50.2672 51.6722 50.3453C51.6182 50.3728 51.5809 50.4274 51.5048 50.4231ZM52.1987 50.9188C52.0038 50.9188 51.9184 50.9371 51.8299 50.9976C51.8013 51.017 51.7773 51.0424 51.7597 51.0721C51.7421 51.1017 51.7312 51.1349 51.7279 51.1693C51.7246 51.2037 51.729 51.2383 51.7406 51.2708C51.7523 51.3033 51.7709 51.3328 51.7953 51.3573C51.9255 51.4728 52.0788 51.4836 52.2387 51.4329C52.3877 51.3853 52.4169 51.2633 52.419 51.1272C52.419 51.0981 52.419 51.0684 52.419 51.0387C52.4136 50.9496 52.3872 50.9247 52.2883 50.9193C52.2581 50.9177 52.2284 50.9188 52.1987 50.9188Z" fill="#737070"/>
<path d="M55.2189 50.6561C55.3269 50.6442 55.3512 50.5848 55.3907 50.5432C55.5132 50.4136 55.6342 50.2813 55.7562 50.1512C55.8069 50.0917 55.8748 50.0493 55.9505 50.03C56.0262 50.0106 56.1061 50.0152 56.1791 50.0432C56.1791 50.1123 56.1251 50.1328 56.0937 50.1663C55.9485 50.3159 55.7984 50.4611 55.6563 50.6134C55.4738 50.8089 55.4738 50.7754 55.6493 51C55.8081 51.2036 55.9658 51.4083 56.1866 51.5519C56.2282 51.5789 56.2109 51.654 56.1629 51.674C56.1135 51.6984 56.0578 51.7073 56.0032 51.6995C55.9487 51.6917 55.8978 51.6675 55.8572 51.6302C55.7769 51.5563 55.7015 51.4773 55.6315 51.3937C55.5278 51.2733 55.4295 51.148 55.3291 51.0249C55.3214 51.0127 55.3098 51.0034 55.2961 50.9988C55.2824 50.9942 55.2676 50.9944 55.254 50.9995C55.2152 51.013 55.2216 51.047 55.2211 51.074C55.2173 51.2528 55.2179 51.4315 55.2125 51.6102C55.2112 51.625 55.2063 51.6391 55.1983 51.6516C55.1903 51.664 55.1794 51.6743 55.1665 51.6815C55.1536 51.6887 55.1392 51.6927 55.1244 51.6931C55.1096 51.6935 55.095 51.6902 55.0818 51.6837C55.0528 51.6763 55.0263 51.6613 55.0052 51.6401C54.9841 51.6189 54.9691 51.5923 54.9619 51.5633C54.9499 51.505 54.9436 51.4457 54.943 51.3861C54.943 50.8004 54.943 50.2142 54.943 49.6274C54.943 49.6079 54.943 49.5879 54.943 49.568C54.9462 49.5069 54.95 49.4438 55.0305 49.4389C55.0654 49.4342 55.1008 49.4415 55.131 49.4597C55.1611 49.4778 55.1841 49.5058 55.1963 49.5388C55.213 49.5957 55.2203 49.655 55.2179 49.7143C55.2179 49.933 55.2179 50.1517 55.2179 50.3704L55.2189 50.6561Z" fill="#706E6E"/>
<path d="M24.4973 50.859C24.5008 50.9834 24.4799 51.1072 24.4357 51.2235C24.3331 51.5092 24.1419 51.6896 23.8271 51.7187C23.5123 51.7479 23.218 51.608 23.0814 51.3288C23.0005 51.1734 22.9611 50.9996 22.9673 50.8245C22.9735 50.6493 23.0248 50.4787 23.1165 50.3293C23.258 50.0831 23.4945 49.9778 23.7704 49.9891C23.9065 49.9891 24.0396 50.029 24.1532 50.104C24.2668 50.179 24.3558 50.2857 24.4092 50.4108C24.4738 50.5511 24.5039 50.7048 24.4973 50.859ZM24.203 50.8736C24.2122 50.7395 24.183 50.6056 24.1187 50.4875C23.9648 50.2089 23.5463 50.1857 23.3692 50.4443C23.2142 50.6695 23.2293 51.075 23.4027 51.2846C23.4527 51.3468 23.5184 51.3946 23.5929 51.4231C23.6675 51.4516 23.7484 51.4597 23.8271 51.4466C24.0005 51.4244 24.1074 51.3148 24.1641 51.1501C24.1929 51.0609 24.206 50.9673 24.203 50.8736Z" fill="#706E6E"/>
<path d="M42.8336 50.8443C42.836 50.981 42.8114 51.1168 42.7612 51.2439C42.6586 51.5182 42.468 51.6883 42.1672 51.717C41.8664 51.7456 41.6196 51.6414 41.4485 51.3865C41.2406 51.0754 41.2638 50.5549 41.4938 50.26C41.8124 49.8518 42.4863 49.9144 42.7272 50.3745C42.7981 50.5209 42.8345 50.6816 42.8336 50.8443ZM42.5403 50.8816C42.5461 50.7373 42.5117 50.5943 42.441 50.4685C42.279 50.2087 41.8821 50.192 41.7077 50.4382C41.5489 50.6623 41.5597 51.0684 41.7314 51.279C41.9328 51.5253 42.3686 51.5334 42.4955 51.1581C42.5267 51.07 42.5418 50.9771 42.5403 50.8837V50.8816Z" fill="#706E6E"/>
<path d="M24.8807 50.5677C24.8807 50.4284 24.8807 50.2896 24.8807 50.1503C24.8807 50.0963 24.892 50.0477 24.9492 50.0331C24.9734 50.0268 24.9988 50.0261 25.0233 50.0311C25.0478 50.036 25.0709 50.0465 25.0907 50.0617C25.1108 50.0764 25.1275 50.0951 25.1398 50.1167C25.1521 50.1383 25.1596 50.1623 25.162 50.187C25.169 50.2561 25.1728 50.3252 25.1733 50.3949C25.1733 50.5537 25.1701 50.713 25.176 50.8717C25.1769 50.9708 25.1896 51.0694 25.2138 51.1655C25.2267 51.2164 25.2499 51.2641 25.282 51.3056C25.3141 51.3472 25.3544 51.3817 25.4003 51.407C25.4463 51.4323 25.497 51.4479 25.5493 51.4528C25.6016 51.4577 25.6543 51.4518 25.7042 51.4355C25.758 51.4232 25.8076 51.3967 25.8477 51.3587C25.8878 51.3207 25.9169 51.2726 25.932 51.2195C25.9619 51.1142 25.9757 51.0049 25.9731 50.8955C25.9731 50.6471 25.9731 50.3987 25.9731 50.1503C25.9731 50.1006 25.9731 50.0466 26.0373 50.0331C26.0615 50.0264 26.0868 50.0255 26.1113 50.0306C26.1359 50.0357 26.1588 50.0465 26.1783 50.0623C26.2075 50.0884 26.2298 50.1215 26.2431 50.1584C26.2584 50.2055 26.2662 50.2547 26.2663 50.3042C26.2663 50.5429 26.2663 50.781 26.2663 51.0197C26.2647 51.0594 26.2603 51.0989 26.2533 51.1379C26.1804 51.6121 25.7457 51.8615 25.2986 51.6833C25.2051 51.6478 25.1217 51.5898 25.0558 51.5145C24.9898 51.4392 24.9434 51.3488 24.9206 51.2513C24.8951 51.1451 24.88 51.0366 24.8758 50.9273C24.8682 50.8085 24.8758 50.6892 24.8758 50.5699L24.8807 50.5677Z" fill="#737070"/>
<path d="M36.542 49.9937C36.4777 49.9937 36.4426 49.9364 36.3929 49.9089C36.2919 49.8493 36.1782 49.8144 36.0612 49.8071C35.9441 49.7998 35.827 49.8203 35.7194 49.867C35.6118 49.9136 35.5167 49.9851 35.4421 50.0756C35.3674 50.166 35.3152 50.2728 35.2897 50.3873C35.2395 50.6025 35.2633 50.8283 35.3572 51.0283C35.5084 51.3734 35.888 51.5321 36.2552 51.4209C36.3395 51.391 36.4195 51.3503 36.4934 51.2999C36.501 51.296 36.5096 51.2939 36.5182 51.2939C36.5268 51.2939 36.5354 51.296 36.543 51.2999C36.5492 51.3074 36.5538 51.316 36.5566 51.3253C36.5594 51.3346 36.5603 51.3443 36.5592 51.3539C36.5538 51.4087 36.5355 51.4614 36.5059 51.5078C36.4762 51.5541 36.436 51.5928 36.3886 51.6207C36.3216 51.6639 36.2467 51.6934 36.1683 51.7076C35.9766 51.7473 35.7774 51.7278 35.5972 51.6516C35.4169 51.5754 35.2641 51.4462 35.159 51.281C34.9095 50.8755 34.8993 50.4532 35.1299 50.0342C35.314 49.6999 35.6823 49.4801 36.171 49.553C36.2559 49.5617 36.3367 49.5941 36.4042 49.6466C36.4716 49.699 36.5229 49.7693 36.5522 49.8495C36.5631 49.8724 36.5679 49.8977 36.5661 49.923C36.5643 49.9482 36.556 49.9726 36.542 49.9937Z" fill="#737070"/>
<path d="M54.5137 51.1194C54.5137 51.2685 54.5137 51.4175 54.5137 51.5665C54.5137 51.6265 54.5099 51.6897 54.4273 51.6961C54.3927 51.703 54.3567 51.6978 54.3254 51.6815C54.2941 51.6652 54.2693 51.6388 54.255 51.6065C54.2353 51.5505 54.2258 51.4914 54.2269 51.4321C54.2232 51.2334 54.2269 51.0346 54.2237 50.8381C54.2237 50.7387 54.2152 50.6396 54.1983 50.5416C54.1659 50.3796 54.0558 50.2921 53.884 50.2716C53.6832 50.2506 53.5536 50.3089 53.479 50.4531C53.4351 50.5426 53.4143 50.6418 53.4186 50.7414C53.4186 50.9801 53.4186 51.2188 53.4186 51.4575C53.4197 51.517 53.4164 51.5766 53.4088 51.6357C53.4013 51.6794 53.3619 51.694 53.3192 51.6951C53.2841 51.6971 53.2494 51.6876 53.2202 51.6681C53.1909 51.6486 53.1688 51.6202 53.1572 51.5871C53.1403 51.5407 53.1319 51.4917 53.1324 51.4423C53.1302 51.1939 53.1302 50.9455 53.1324 50.6971C53.1363 50.5766 53.1699 50.4589 53.2302 50.3545C53.2906 50.2501 53.3757 50.1622 53.4782 50.0985C53.5806 50.0349 53.6972 49.9976 53.8176 49.9898C53.9379 49.982 54.0583 50.0041 54.1681 50.054C54.2591 50.0957 54.3372 50.1611 54.3942 50.2434C54.4513 50.3257 54.4851 50.4218 54.4921 50.5216C54.5142 50.7182 54.5142 50.918 54.5239 51.1156L54.5137 51.1194Z" fill="#706E6E"/>
<path d="M36.8659 50.5923C36.8659 50.4335 36.8659 50.2747 36.8659 50.116C36.8659 50.0501 36.9237 50.0172 36.9901 50.0301C37.0299 50.0362 37.0664 50.0555 37.0939 50.0849C37.1213 50.1143 37.138 50.1521 37.1413 50.1921C37.1498 50.2708 37.1534 50.35 37.1521 50.4292C37.1559 50.6376 37.1494 50.8466 37.1629 51.0545C37.1743 51.2365 37.2634 51.3747 37.448 51.4325C37.4948 51.4499 37.5447 51.4572 37.5945 51.454C37.6444 51.4509 37.6929 51.4373 37.7371 51.4141C37.7813 51.3909 37.8202 51.3587 37.8511 51.3196C37.8821 51.2804 37.9044 51.2352 37.9168 51.1868C37.9373 51.1 37.9466 51.0109 37.9443 50.9217C37.9481 50.6738 37.9443 50.4254 37.9475 50.177C37.9475 50.1198 37.9394 50.0523 38.0177 50.0334C38.0566 50.0243 38.0974 50.0291 38.1331 50.0471C38.1687 50.0651 38.1969 50.095 38.2127 50.1316C38.2257 50.1584 38.2334 50.1873 38.2354 50.217C38.2354 50.515 38.251 50.811 38.2305 51.1101C38.203 51.5 37.9502 51.7203 37.5625 51.7284C37.1894 51.736 36.9145 51.507 36.8735 51.1279C36.8619 50.9496 36.8607 50.7708 36.8697 50.5923H36.8659Z" fill="#737070"/>
<path d="M32.1452 51.0834C32.1452 51.2627 32.1485 51.4414 32.1452 51.6202C32.1452 51.6812 32.0912 51.699 32.0372 51.6925C31.9417 51.6812 31.8855 51.6353 31.8715 51.5494C31.8634 51.4904 31.86 51.4308 31.8612 51.3712C31.8612 51.1925 31.8612 51.0132 31.8612 50.8339C31.8629 50.7644 31.8611 50.6948 31.8558 50.6255C31.8239 50.3226 31.5345 50.167 31.2618 50.3064C31.2125 50.331 31.1701 50.3674 31.1385 50.4125C31.1068 50.4576 31.0868 50.5098 31.0804 50.5645C31.0687 50.654 31.0637 50.7442 31.0652 50.8345C31.0652 51.0732 31.0652 51.3118 31.0652 51.5505C31.0652 51.6094 31.0652 51.6753 30.9902 51.6925C30.951 51.7011 30.9101 51.6955 30.8746 51.6769C30.8392 51.6582 30.8114 51.6276 30.7963 51.5905C30.7836 51.5531 30.7767 51.5139 30.7758 51.4744C30.7758 51.2044 30.7661 50.9344 30.7758 50.6687C30.8044 50.0331 31.3909 49.8862 31.7786 50.0412C32.0183 50.1368 32.122 50.3371 32.1436 50.5812C32.1582 50.7486 32.1463 50.9187 32.1463 51.0877L32.1452 51.0834Z" fill="#747373"/>
<path d="M38.662 51.2957C38.7762 51.3583 38.8978 51.4066 39.0238 51.4394C39.1406 51.4667 39.2628 51.4584 39.3748 51.4156C39.4127 51.4029 39.4457 51.3787 39.4693 51.3464C39.4928 51.3141 39.5056 51.2752 39.506 51.2352C39.5129 51.1955 39.5059 51.1545 39.4863 51.1192C39.4666 51.084 39.4355 51.0565 39.398 51.0414C39.2971 51.002 39.1918 50.9728 39.0881 50.9399C39.0013 50.9193 38.9161 50.8924 38.8332 50.8594C38.642 50.7665 38.5762 50.5894 38.6431 50.3842C38.6666 50.308 38.7079 50.2384 38.7635 50.1812C38.9612 49.9797 39.3478 49.9214 39.5946 50.0602C39.6454 50.0909 39.6905 50.1302 39.728 50.1763C39.782 50.2389 39.7852 50.3437 39.7458 50.3664C39.6918 50.3982 39.6529 50.3545 39.6113 50.3351C39.4746 50.2732 39.323 50.2518 39.1745 50.2735C39.1045 50.2809 39.0386 50.31 38.986 50.3567C38.965 50.3735 38.9485 50.3953 38.938 50.4201C38.9275 50.4449 38.9233 50.4719 38.9259 50.4987C38.9285 50.5255 38.9377 50.5512 38.9527 50.5736C38.9677 50.5959 38.9881 50.6142 39.0119 50.6267C39.0752 50.6546 39.1406 50.6775 39.2074 50.6952C39.3203 50.732 39.4369 50.76 39.5465 50.8032C39.9089 50.9507 39.8479 51.4016 39.6464 51.57C39.445 51.7385 39.0276 51.7763 38.8024 51.6316C38.7687 51.6107 38.7387 51.5842 38.7139 51.5533C38.6897 51.5213 38.6725 51.4845 38.6636 51.4453C38.6586 51.3956 38.6581 51.3455 38.662 51.2957Z" fill="#737070"/>
<path d="M22.7655 49.6924C22.7505 49.7791 22.7182 49.8619 22.6705 49.9359C22.5419 50.1819 22.3931 50.4167 22.2255 50.6379C22.1382 50.7463 22.0952 50.8836 22.1051 51.0224C22.1126 51.2011 22.1051 51.3799 22.1051 51.5592C22.1051 51.6191 22.0991 51.6834 22.0192 51.6915C21.9796 51.6984 21.9389 51.6914 21.9039 51.6717C21.8688 51.652 21.8417 51.6209 21.827 51.5835C21.8154 51.5354 21.8098 51.486 21.8102 51.4366C21.8102 51.2875 21.8038 51.1385 21.8102 50.9895C21.815 50.8705 21.7784 50.7535 21.7066 50.6584C21.5118 50.3823 21.3461 50.0868 21.2119 49.7766C21.1898 49.7323 21.1729 49.6855 21.1617 49.6373C21.1597 49.6276 21.16 49.6176 21.1625 49.608C21.1649 49.5985 21.1695 49.5896 21.1759 49.582C21.1823 49.5745 21.1903 49.5685 21.1994 49.5645C21.2084 49.5605 21.2182 49.5586 21.2281 49.559C21.2777 49.5509 21.3285 49.5586 21.3734 49.5813C21.4182 49.6039 21.4547 49.6401 21.4776 49.6848C21.5316 49.7804 21.5705 49.8825 21.6239 49.9775C21.7157 50.1422 21.8119 50.3047 21.9107 50.4635C21.9523 50.531 22.0014 50.5278 22.0489 50.4597C22.1942 50.2461 22.3228 50.0215 22.4334 49.788C22.4616 49.7247 22.4929 49.6629 22.5274 49.6027C22.5657 49.5428 22.6283 49.5487 22.6894 49.5682C22.7143 49.5771 22.7355 49.5943 22.7493 49.6169C22.7632 49.6394 22.7689 49.6661 22.7655 49.6924Z" fill="#747373"/>
<path d="M40.4845 49.7049C40.5499 49.7989 40.4489 49.9479 40.5655 50.003C40.6481 50.0424 40.7599 50.0192 40.8587 50.0235C40.8884 50.0235 40.9181 50.0235 40.9478 50.0235C41.0083 50.0235 41.0753 50.0235 41.0774 50.1078C41.0823 50.1433 41.074 50.1794 41.0541 50.2092C41.0342 50.2391 41.0041 50.2606 40.9694 50.2698C40.9018 50.2843 40.8332 50.2941 40.7642 50.2989C40.7151 50.3038 40.6649 50.2989 40.6152 50.3054C40.5655 50.3119 40.5191 50.3383 40.5185 50.3956C40.5185 50.6656 40.5088 50.9323 40.5223 51.1996C40.5299 51.3616 40.6363 51.4459 40.7993 51.4513C40.8487 51.4493 40.8979 51.4445 40.9468 51.4367C41.0315 51.4291 41.0715 51.4799 41.0499 51.5587C41.0413 51.5926 41.024 51.6236 40.9998 51.6487C40.9755 51.6738 40.9452 51.6921 40.9116 51.7018C40.5941 51.8098 40.2977 51.6414 40.2334 51.3152C40.2243 51.2664 40.2198 51.2169 40.2199 51.1672C40.2199 50.8098 40.2199 50.4523 40.2199 50.0943C40.2125 49.9842 40.2453 49.8752 40.3123 49.7875C40.3565 49.7335 40.4062 49.6817 40.4845 49.7049Z" fill="#737070"/>
<path d="M47.7658 51.0446C47.7658 50.9155 47.7599 50.7865 47.7658 50.658C47.7697 50.5284 47.8033 50.4014 47.8641 50.287C47.9222 50.1816 48.0153 50.0998 48.1273 50.0556C48.2393 50.0114 48.3631 50.0077 48.4775 50.045C48.5257 50.0591 48.5674 50.0898 48.5951 50.1316C48.6229 50.1734 48.635 50.2236 48.6293 50.2735C48.6293 50.3124 48.612 50.3512 48.5558 50.3394C48.4984 50.3241 48.4399 50.3133 48.3809 50.307C48.2065 50.2967 48.1179 50.361 48.0844 50.5289C48.0673 50.6264 48.0588 50.7253 48.059 50.8243C48.0558 51.0727 48.059 51.3205 48.059 51.5689C48.059 51.6186 48.0547 51.6704 47.9991 51.692C47.9654 51.7007 47.9298 51.6995 47.8968 51.6885C47.8637 51.6775 47.8346 51.6571 47.8128 51.63C47.7793 51.5803 47.7619 51.5214 47.7631 51.4615C47.7631 51.3222 47.7631 51.1834 47.7631 51.0446H47.7658Z" fill="#747373"/>
<path d="M26.7129 51.0405C26.7129 50.9114 26.7129 50.7823 26.7129 50.6538C26.7134 50.5138 26.7534 50.3768 26.8284 50.2585C26.8867 50.1649 26.9739 50.0928 27.0768 50.0533C27.1797 50.0137 27.2927 50.0088 27.3987 50.0393C27.433 50.0458 27.4652 50.0606 27.4926 50.0823C27.52 50.104 27.5417 50.1321 27.5558 50.164C27.5685 50.1855 27.5763 50.2095 27.5786 50.2344C27.5808 50.2592 27.5775 50.2843 27.5688 50.3077C27.538 50.3682 27.4851 50.3352 27.4397 50.325C27.4108 50.3173 27.3814 50.3117 27.3517 50.3082C27.1384 50.292 27.038 50.3714 27.0142 50.5885C27.0018 50.7067 27.0066 50.8266 27.0056 50.9454C27.0056 51.1614 27.0056 51.3817 27.0002 51.5999C27.0002 51.6771 26.9391 51.7128 26.8506 51.6895C26.8112 51.6813 26.7759 51.6595 26.7509 51.6279C26.7259 51.5963 26.7129 51.557 26.714 51.5167C26.7091 51.358 26.714 51.1992 26.714 51.0405H26.7129Z" fill="#747373"/>
<path d="M38.9979 15.8964C38.9747 13.8238 40.7335 12.1876 42.6969 12.1914C44.5966 12.1952 46.3646 13.7266 46.3603 15.891C46.3559 18.0353 44.5885 19.5775 42.6785 19.5775C40.6805 19.5775 38.9758 17.93 38.9979 15.8964Z" fill="#FFFEFE"/>
<path d="M29.0678 42.8065C28.7562 42.8065 28.4782 42.8065 28.2001 42.8065C28.051 42.8065 28.0343 42.7822 28.0483 42.6262C28.071 42.3686 28.1023 42.1121 28.2065 41.8702C28.4225 41.3701 28.7762 41.0062 29.3135 40.869C29.7592 40.7496 30.2325 40.7877 30.6533 40.977C31.1247 41.1865 31.3083 41.5932 31.3013 42.057C31.3048 42.1725 31.2723 42.2861 31.2084 42.3823C31.1444 42.4785 31.0522 42.5524 30.9443 42.5938C30.7511 42.6709 30.5484 42.7215 30.3417 42.7444C29.9075 42.8082 29.4707 42.8022 29.0678 42.8065Z" fill="#FCFCFC"/>
<path d="M49.8773 51.0192C49.8773 50.6952 49.8632 50.7076 50.1835 50.7125C50.3021 50.713 50.4204 50.7238 50.5372 50.7449C50.7029 50.7767 50.7742 50.8664 50.7877 51.0295C50.8039 51.2271 50.7386 51.3497 50.5777 51.4118C50.4079 51.4694 50.2255 51.4789 50.0506 51.4393C49.9426 51.4193 49.8924 51.3497 49.8794 51.2271C49.8784 51.2073 49.8784 51.1875 49.8794 51.1677C49.8767 51.1159 49.8773 51.0689 49.8773 51.0192Z" fill="#F7F8F8"/>
<path d="M50.211 50.4769C49.8487 50.4682 49.874 50.4936 49.874 50.1318C49.874 49.8332 49.8924 49.8148 50.1872 49.8078C50.3152 49.7972 50.444 49.8136 50.5652 49.8559C50.6959 49.9099 50.7532 50.0065 50.7478 50.1626C50.7418 50.31 50.6689 50.4164 50.5318 50.445C50.4255 50.4615 50.3184 50.4721 50.211 50.4769Z" fill="#F7F8F8"/>
<path d="M28.7535 50.6054C28.7494 50.4861 28.7677 50.367 28.8075 50.2544C28.8971 49.9574 29.1191 49.7981 29.4285 49.8008C29.7563 49.8041 29.975 49.972 30.0571 50.2868C30.1219 50.5163 30.1219 50.7593 30.0571 50.9888C29.9701 51.2869 29.7466 51.4602 29.4496 51.4619C29.1315 51.4619 28.8961 51.2918 28.8113 50.9867C28.7699 50.8639 28.7504 50.7349 28.7535 50.6054Z" fill="#F7F8F8"/>
<path d="M33.2415 50.7514C33.1011 50.7514 33.0315 50.7541 32.9623 50.7514C32.8597 50.7471 32.829 50.6974 32.857 50.5937C32.9413 50.2821 33.228 50.2076 33.4662 50.2875C33.5186 50.3046 33.5648 50.337 33.5988 50.3804C33.6327 50.4239 33.6529 50.4766 33.6568 50.5316C33.6703 50.6353 33.6276 50.7136 33.5256 50.7292C33.4089 50.7465 33.289 50.7482 33.2415 50.7514Z" fill="#F7F8F8"/>
<path d="M46.2717 50.7374C46.2798 50.3805 46.5417 50.1796 46.8609 50.2795C46.9035 50.2925 46.9429 50.3143 46.9766 50.3435C47.0103 50.3727 47.0374 50.4087 47.0564 50.4491C47.1266 50.5916 47.0726 50.7147 46.9181 50.7342C46.7037 50.7633 46.4864 50.7644 46.2717 50.7374Z" fill="#F7F8F8"/>
<path d="M52.1988 50.918C52.2285 50.918 52.2582 50.918 52.2873 50.918C52.3861 50.9234 52.4126 50.9482 52.418 51.0373C52.418 51.067 52.418 51.0967 52.418 51.1259C52.418 51.2619 52.3867 51.384 52.2376 51.4315C52.0756 51.4823 51.9244 51.4715 51.7943 51.3559C51.7699 51.3315 51.7512 51.302 51.7396 51.2695C51.7279 51.237 51.7236 51.2023 51.7269 51.1679C51.7302 51.1336 51.7411 51.1004 51.7587 51.0707C51.7763 51.041 51.8003 51.0156 51.8289 50.9963C51.9185 50.9363 52.0038 50.918 52.1988 50.918Z" fill="#F7F8F8"/>
<path d="M24.203 50.8734C24.2063 50.9679 24.1932 51.0621 24.1641 51.1521C24.1074 51.3141 24.0021 51.4264 23.8272 51.4485C23.7484 51.4616 23.6676 51.4535 23.593 51.425C23.5184 51.3966 23.4527 51.3488 23.4027 51.2865C23.2294 51.077 23.2143 50.6715 23.3693 50.4463C23.5464 50.1876 23.9633 50.2108 24.1188 50.4895C24.1826 50.6069 24.2118 50.74 24.203 50.8734Z" fill="#F7F8F8"/>
<path d="M42.5403 50.884C42.542 50.9781 42.5269 51.0717 42.4955 51.1605C42.3686 51.5358 41.9328 51.5277 41.7314 51.2814C41.5596 51.0708 41.5488 50.6648 41.7076 50.4407C41.882 50.1944 42.2778 50.2112 42.4409 50.4709C42.5117 50.5967 42.5461 50.7397 42.5403 50.884Z" fill="#F7F8F8"/>
</svg>
