<svg width="22" height="22" viewBox="0 0 22 22" fill="none" xmlns="http://www.w3.org/2000/svg">
<path d="M19.471 8.406C19.5 9.29 19.5 10.312 19.5 11.5C19.5 15.743 19.5 17.864 18.182 19.182C16.864 20.5 14.742 20.5 10.5 20.5C6.258 20.5 4.136 20.5 2.818 19.182C1.5 17.864 1.5 15.742 1.5 11.5C1.5 7.258 1.5 5.136 2.818 3.818C4.136 2.5 6.258 2.5 10.5 2.5C11.688 2.5 12.71 2.5 13.594 2.529M20.5 3.5C20.5 4.03043 20.2893 4.53914 19.9142 4.91421C19.5391 5.28929 19.0304 5.5 18.5 5.5C17.9696 5.5 17.4609 5.28929 17.0858 4.91421C16.7107 4.53914 16.5 4.03043 16.5 3.5C16.5 2.96957 16.7107 2.46086 17.0858 2.08579C17.4609 1.71071 17.9696 1.5 18.5 1.5C19.0304 1.5 19.5391 1.71071 19.9142 2.08579C20.2893 2.46086 20.5 2.96957 20.5 3.5Z" stroke="black" stroke-width="1.5" stroke-linecap="round" stroke-linejoin="round"/>
<path d="M4.5 11.5H7L9 7.5L12 15.5L14 11.5H16.5" stroke="black" stroke-width="1.5" stroke-linecap="round" stroke-linejoin="round"/>
</svg>