<svg width="19" height="18" viewBox="0 0 19 18" fill="none" xmlns="http://www.w3.org/2000/svg">
<g id="vuesax/bold/bank">
<g id="bank">
<path id="Vector" d="M16.8771 14.25V16.5H1.53429V14.25C1.53429 13.8375 1.8795 13.5 2.30143 13.5H16.11C16.5319 13.5 16.8771 13.8375 16.8771 14.25Z" fill="#010A23" stroke="#010A23" stroke-width="1.5" stroke-miterlimit="10" stroke-linecap="round" stroke-linejoin="round"/>
<path id="Vector_2" d="M5.36999 8.25H3.83571V13.5H5.36999V8.25Z" fill="#010A23"/>
<path id="Vector_3" d="M8.43857 8.25H6.90428V13.5H8.43857V8.25Z" fill="#010A23"/>
<path id="Vector_4" d="M11.5071 8.25H9.97285V13.5H11.5071V8.25Z" fill="#010A23"/>
<path id="Vector_5" d="M14.5757 8.25H13.0414V13.5H14.5757V8.25Z" fill="#010A23"/>
<path id="Vector_6" d="M17.6443 17.0625H0.767145C0.452616 17.0625 0.191788 16.8075 0.191788 16.5C0.191788 16.1925 0.452616 15.9375 0.767145 15.9375H17.6443C17.9588 15.9375 18.2196 16.1925 18.2196 16.5C18.2196 16.8075 17.9588 17.0625 17.6443 17.0625Z" fill="#010A23"/>
<path id="Vector_7" d="M16.3938 4.31141L9.48956 1.61141C9.33613 1.55141 9.0753 1.55141 8.92187 1.61141L2.01759 4.31141C1.74909 4.41641 1.53429 4.72391 1.53429 5.00891V7.49891C1.53429 7.91141 1.8795 8.24891 2.30143 8.24891H16.11C16.5319 8.24891 16.8771 7.91141 16.8771 7.49891V5.00891C16.8771 4.72391 16.6623 4.41641 16.3938 4.31141ZM9.20571 6.37391C8.56899 6.37391 8.055 5.87141 8.055 5.24891C8.055 4.62641 8.56899 4.12391 9.20571 4.12391C9.84244 4.12391 10.3564 4.62641 10.3564 5.24891C10.3564 5.87141 9.84244 6.37391 9.20571 6.37391Z" fill="#010A23"/>
</g>
</g>
</svg>
