<svg width="23" height="23" viewBox="0 0 23 23" fill="none" xmlns="http://www.w3.org/2000/svg">
<g id="ri:bank-fill">
<path id="Vector" d="M1.9165 19.1641H21.0832V21.0807H1.9165V19.1641ZM3.83317 11.4974H5.74984V18.2057H3.83317V11.4974ZM8.62484 11.4974H10.5415V18.2057H8.62484V11.4974ZM12.4582 11.4974H14.3748V18.2057H12.4582V11.4974ZM17.2498 11.4974H19.1665V18.2057H17.2498V11.4974ZM1.9165 6.70573L11.4998 1.91406L21.0832 6.70573V10.5391H1.9165V6.70573ZM11.4998 7.66406C11.754 7.66406 11.9978 7.5631 12.1775 7.38337C12.3572 7.20365 12.4582 6.95989 12.4582 6.70573C12.4582 6.45156 12.3572 6.20781 12.1775 6.02809C11.9978 5.84836 11.754 5.7474 11.4998 5.7474C11.2457 5.7474 11.0019 5.84836 10.8222 6.02809C10.6425 6.20781 10.5415 6.45156 10.5415 6.70573C10.5415 6.95989 10.6425 7.20365 10.8222 7.38337C11.0019 7.5631 11.2457 7.66406 11.4998 7.66406Z" fill="#E9212E"/>
</g>
</svg>
