<svg width="33" height="32" viewBox="0 0 33 32" fill="none" xmlns="http://www.w3.org/2000/svg">
<path d="M14.44 6.38873C14.606 5.97842 14.8908 5.62703 15.2578 5.37961C15.6248 5.13218 16.0574 5 16.5 5C16.9426 5 17.3752 5.13218 17.7422 5.37961C18.1092 5.62703 18.394 5.97842 18.56 6.38873C20.203 6.84059 21.6523 7.81932 22.6852 9.17461C23.7181 10.5299 24.2776 12.1868 24.2776 13.8908V19.1096L26.3132 22.1629C26.4248 22.3302 26.4889 22.5247 26.4987 22.7257C26.5085 22.9266 26.4635 23.1264 26.3686 23.3037C26.2737 23.4811 26.1324 23.6294 25.9599 23.7327C25.7873 23.8361 25.5899 23.8907 25.3887 23.8907H20.3499C20.2162 24.8163 19.7533 25.6628 19.0463 26.275C18.3392 26.8872 17.4353 27.2242 16.5 27.2242C15.5647 27.2242 14.6608 26.8872 13.9537 26.275C13.2467 25.6628 12.7838 24.8163 12.6501 23.8907H7.61126C7.4101 23.8907 7.21271 23.8361 7.04015 23.7327C6.86758 23.6294 6.72631 23.4811 6.63142 23.3037C6.53652 23.1264 6.49155 22.9266 6.50131 22.7257C6.51107 22.5247 6.57519 22.3302 6.68683 22.1629L8.72235 19.1096V13.8908C8.72235 10.3087 11.1445 7.29094 14.44 6.38873ZM14.9289 23.8907C15.0437 24.2158 15.2564 24.4974 15.5379 24.6965C15.8194 24.8957 16.1557 25.0027 16.5006 25.0027C16.8454 25.0027 17.1817 24.8957 17.4632 24.6965C17.7447 24.4974 17.9574 24.2158 18.0722 23.8907H14.9289ZM16.5 8.33536C15.0266 8.33536 13.6135 8.92067 12.5717 9.96252C11.5298 11.0044 10.9445 12.4174 10.9445 13.8908V19.4463C10.9446 19.6658 10.8796 19.8803 10.7579 20.0629L9.68789 21.6685H23.311L22.241 20.0629C22.1196 19.8802 22.0551 19.6657 22.0555 19.4463V13.8908C22.0555 12.4174 21.4702 11.0044 20.4283 9.96252C19.3865 8.92067 17.9734 8.33536 16.5 8.33536Z" fill="#5A5D61"/>
</svg>
