<svg width="21" height="22" viewBox="0 0 21 22" fill="none" xmlns="http://www.w3.org/2000/svg">
<path d="M17.2947 9.323L20.0991 6.51862C20.4167 7.79962 20.4167 9.57675 20.4167 12.1667C20.4167 16.2915 20.4167 18.3539 19.1349 19.6349C17.8547 20.9167 15.7915 20.9167 11.6667 20.9167C7.542 20.9167 5.47962 20.9167 4.19775 19.6349C2.91675 18.3547 2.91675 16.2915 2.91675 12.1667C2.91675 8.042 2.91675 5.97962 4.19775 4.69775C5.4805 3.41675 7.542 3.41675 11.6667 3.41675C14.2567 3.41675 16.0339 3.41675 17.3149 3.73437L14.5105 6.53875V6.04175C14.5105 5.5196 14.3031 5.01884 13.9339 4.64963C13.5647 4.28042 13.0639 4.073 12.5417 4.073C12.0196 4.073 11.5188 4.28042 11.1496 4.64963C10.7804 5.01884 10.573 5.5196 10.573 6.04175V11.2917C10.573 11.8139 10.7804 12.3147 11.1496 12.6839C11.5188 13.0531 12.0196 13.2605 12.5417 13.2605H17.7917C18.3139 13.2605 18.8146 13.0531 19.1839 12.6839C19.5531 12.3147 19.7605 11.8139 19.7605 11.2917C19.7605 10.7696 19.5531 10.2688 19.1839 9.89963C18.8146 9.53042 18.3139 9.323 17.7917 9.323H17.2947Z" fill="#1E3A8A"/>
<path d="M17.7917 11.9475C17.9658 11.9475 18.1327 11.8784 18.2558 11.7553C18.3789 11.6322 18.448 11.4653 18.448 11.2912C18.448 11.1172 18.3789 10.9503 18.2558 10.8272C18.1327 10.7041 17.9658 10.635 17.7917 10.635H14.1255L20.0055 4.755C20.1214 4.63059 20.1845 4.46605 20.1815 4.29604C20.1785 4.12603 20.1097 3.96381 19.9894 3.84358C19.8692 3.72334 19.707 3.65447 19.537 3.65147C19.3669 3.64847 19.2024 3.71158 19.078 3.8275L13.198 9.7075V6.04125C13.198 5.8672 13.1289 5.70028 13.0058 5.57721C12.8827 5.45414 12.7158 5.385 12.5417 5.385C12.3677 5.385 12.2008 5.45414 12.0777 5.57721C11.9546 5.70028 11.8855 5.8672 11.8855 6.04125V11.2912C11.8855 11.6535 12.1795 11.9475 12.5417 11.9475H17.7917Z" fill="#1E3A8A"/>
</svg>
