<svg width="16" height="17" viewBox="0 0 16 17" fill="none" xmlns="http://www.w3.org/2000/svg">
<g id="lets-icons:date-fill">
<g id="Group">
<path id="Vector" d="M1.33337 6.4987C1.33337 5.24136 1.33337 4.61336 1.72404 4.2227C2.11471 3.83203 2.74271 3.83203 4.00004 3.83203H12C13.2574 3.83203 13.8854 3.83203 14.276 4.2227C14.6667 4.61336 14.6667 5.24136 14.6667 6.4987C14.6667 6.8127 14.6667 6.97003 14.5694 7.06803C14.4714 7.16536 14.3134 7.16536 14 7.16536H2.00004C1.68604 7.16536 1.52871 7.16536 1.43071 7.06803C1.33337 6.97003 1.33337 6.81203 1.33337 6.4987ZM1.33337 12.4987C1.33337 13.756 1.33337 14.384 1.72404 14.7747C2.11471 15.1654 2.74271 15.1654 4.00004 15.1654H12C13.2574 15.1654 13.8854 15.1654 14.276 14.7747C14.6667 14.384 14.6667 13.756 14.6667 12.4987V9.16536C14.6667 8.85136 14.6667 8.69403 14.5694 8.59603C14.4714 8.4987 14.3134 8.4987 14 8.4987H2.00004C1.68604 8.4987 1.52871 8.4987 1.43071 8.59603C1.33337 8.69403 1.33337 8.85203 1.33337 9.16536V12.4987Z" fill="#787A7E"/>
<path id="Vector_2" d="M4.66675 2.5V4.5M11.3334 2.5V4.5" stroke="#787A7E" stroke-width="2" stroke-linecap="round"/>
</g>
</g>
</svg>
