<svg width="70" height="70" viewBox="0 0 70 70" fill="none" xmlns="http://www.w3.org/2000/svg">
<circle cx="35" cy="35" r="35" fill="#2A2A2A" fill-opacity="0.63"/>
<path d="M37.566 22.3392C38.0887 22.3392 38.6024 22.4757 39.0561 22.7353C39.5098 22.9949 39.8878 23.3686 40.1527 23.8192L41.238 25.6686H43.9993C45.1484 25.6686 46.2504 26.1249 47.063 26.9373C47.8756 27.7497 48.3323 28.8515 48.3327 30.0006V42.6672C48.3327 43.2363 48.2206 43.7998 48.0028 44.3255C47.7851 44.8513 47.4659 45.329 47.0635 45.7314C46.6611 46.1337 46.1834 46.4529 45.6576 46.6707C45.1319 46.8885 44.5684 47.0006 43.9993 47.0006H25.9993C24.8501 47.0006 23.7479 46.544 22.9352 45.7314C22.1226 44.9187 21.666 43.8165 21.666 42.6672V30.0006C21.666 28.8513 22.1226 27.7491 22.9352 26.9364C23.7479 26.1238 24.8501 25.6672 25.9993 25.6672H28.7727L29.9393 23.7686C30.2076 23.3315 30.5834 22.9705 31.0309 22.7201C31.4783 22.4696 31.9825 22.338 32.4953 22.3379H37.566V22.3392ZM34.9993 29.6672C33.408 29.6672 31.8819 30.2994 30.7567 31.4246C29.6315 32.5498 28.9993 34.0759 28.9993 35.6672C28.9993 37.2585 29.6315 38.7846 30.7567 39.9099C31.8819 41.0351 33.408 41.6672 34.9993 41.6672C36.5906 41.6672 38.1168 41.0351 39.242 39.9099C40.3672 38.7846 40.9993 37.2585 40.9993 35.6672C40.9993 34.0759 40.3672 32.5498 39.242 31.4246C38.1168 30.2994 36.5906 29.6672 34.9993 29.6672ZM34.9993 31.6672C35.5246 31.6672 36.0448 31.7707 36.5301 31.9717C37.0154 32.1727 37.4563 32.4674 37.8278 32.8388C38.1992 33.2102 38.4938 33.6512 38.6949 34.1365C38.8959 34.6218 38.9993 35.1419 38.9993 35.6672C38.9993 36.1925 38.8959 36.7127 38.6949 37.198C38.4938 37.6833 38.1992 38.1242 37.8278 38.4957C37.4563 38.8671 37.0154 39.1617 36.5301 39.3627C36.0448 39.5638 35.5246 39.6672 34.9993 39.6672C33.9385 39.6672 32.9211 39.2458 32.1709 38.4957C31.4208 37.7455 30.9993 36.7281 30.9993 35.6672C30.9993 34.6064 31.4208 33.5889 32.1709 32.8388C32.9211 32.0887 33.9385 31.6672 34.9993 31.6672Z" fill="white"/>
</svg>
