<svg width="86" height="86" viewBox="0 0 86 86" fill="none" xmlns="http://www.w3.org/2000/svg">
<path d="M27.7508 64.2565L43.0008 49.0065L58.2508 64.2565L64.1813 58.326L48.9313 43.076L64.1813 27.826L58.2508 21.8954L43.0008 37.1454L27.7508 21.8954L21.8202 27.826L37.0702 43.076L21.8202 58.326L27.7508 64.2565ZM43.0008 85.4371C37.1408 85.4371 31.6339 84.3244 26.4799 82.099C21.326 79.8736 16.8428 76.8561 13.0303 73.0464C9.21777 69.2339 6.20025 64.7507 3.9777 59.5968C1.75516 54.4429 0.642473 48.9359 0.639648 43.076C0.639648 37.216 1.75233 31.7091 3.9777 26.5551C6.20307 21.4012 9.2206 16.918 13.0303 13.1055C16.8428 9.29297 21.326 6.27545 26.4799 4.0529C31.6339 1.83035 37.1408 0.717668 43.0008 0.714844C48.8607 0.714844 54.3677 1.82753 59.5216 4.0529C64.6755 6.27827 69.1588 9.29579 72.9713 13.1055C76.7838 16.918 79.8027 21.4012 82.028 26.5551C84.2534 31.7091 85.3647 37.216 85.3619 43.076C85.3619 48.9359 84.2492 54.4429 82.0238 59.5968C79.7984 64.7507 76.7809 69.2339 72.9713 73.0464C69.1588 76.8589 64.6755 79.8779 59.5216 82.1032C54.3677 84.3286 48.8607 85.4399 43.0008 85.4371Z" fill="white"/>
</svg>
