<svg width="24" height="24" viewBox="0 0 24 24" fill="none" xmlns="http://www.w3.org/2000/svg">
<path d="M16.7716 8.28724L8.2863 16.7725C7.99639 17.0624 7.51556 17.0624 7.22564 16.7725C6.93573 16.4826 6.93573 16.0018 7.22564 15.7119L15.7109 7.22658C16.0008 6.93666 16.4817 6.93666 16.7716 7.22658C17.0615 7.51649 17.0615 7.99732 16.7716 8.28724Z" fill="#344054"/>
<path d="M16.7716 16.7734C16.4817 17.0633 16.0008 17.0633 15.7109 16.7734L7.22564 8.28814C6.93573 7.99823 6.93573 7.5174 7.22564 7.22748C7.51556 6.93757 7.99639 6.93757 8.2863 7.22748L16.7716 15.7128C17.0615 16.0027 17.0615 16.4835 16.7716 16.7734Z" fill="#344054"/>
</svg>