<svg width="11" height="10" viewBox="0 0 11 10" fill="none" xmlns="http://www.w3.org/2000/svg">
<path d="M5.5 0.416504C2.97458 0.416504 0.916668 2.47442 0.916668 4.99984C0.916668 7.52525 2.97458 9.58317 5.5 9.58317C8.02542 9.58317 10.0833 7.52525 10.0833 4.99984C10.0833 2.47442 8.02542 0.416504 5.5 0.416504ZM5.15625 3.1665C5.15625 2.97859 5.31208 2.82275 5.5 2.82275C5.68792 2.82275 5.84375 2.97859 5.84375 3.1665V5.45817C5.84375 5.64609 5.68792 5.80192 5.5 5.80192C5.31208 5.80192 5.15625 5.64609 5.15625 5.45817V3.1665ZM5.92167 7.00734C5.89875 7.06692 5.86667 7.11275 5.82542 7.15859C5.77958 7.19984 5.72917 7.23192 5.67417 7.25484C5.61917 7.27775 5.55958 7.2915 5.5 7.2915C5.44042 7.2915 5.38083 7.27775 5.32583 7.25484C5.27083 7.23192 5.22042 7.19984 5.17458 7.15859C5.13333 7.11275 5.10125 7.06692 5.07833 7.00734C5.05542 6.95234 5.04167 6.89275 5.04167 6.83317C5.04167 6.77359 5.05542 6.714 5.07833 6.659C5.10125 6.604 5.13333 6.55359 5.17458 6.50775C5.22042 6.4665 5.27083 6.43442 5.32583 6.4115C5.43583 6.36567 5.56417 6.36567 5.67417 6.4115C5.72917 6.43442 5.77958 6.4665 5.82542 6.50775C5.86667 6.55359 5.89875 6.604 5.92167 6.659C5.94458 6.714 5.95833 6.77359 5.95833 6.83317C5.95833 6.89275 5.94458 6.95234 5.92167 7.00734Z" fill="white"/>
</svg>
