<svg width="22" height="22" viewBox="0 0 22 22" fill="none" xmlns="http://www.w3.org/2000/svg">
<g id="Chat">
<g id="Group 3">
<mask id="mask0_13994_4918" style="mask-type:luminance" maskUnits="userSpaceOnUse" x="0" y="0" width="22" height="22">
<path id="Clip 2" fill-rule="evenodd" clip-rule="evenodd" d="M0 0.000488281H21.493V21.4943H0V0.000488281Z" fill="white"/>
</mask>
<g mask="url(#mask0_13994_4918)">
<path id="Fill 1" fill-rule="evenodd" clip-rule="evenodd" d="M5.10844 18.6755C5.68844 18.6755 6.23544 18.8955 6.81444 19.1285C10.3614 20.7685 14.5564 20.0225 17.2894 17.2905C20.8954 13.6825 20.8954 7.81349 17.2894 4.20749C15.5434 2.46149 13.2214 1.50049 10.7494 1.50049C8.27644 1.50049 5.95344 2.46249 4.20844 4.20849C1.47444 6.94049 0.730437 11.1355 2.35544 14.6485C2.58944 15.2275 2.81544 15.7915 2.81544 16.3775C2.81544 16.9625 2.61444 17.5515 2.43744 18.0715C2.29144 18.4995 2.07044 19.1455 2.21244 19.2875C2.35144 19.4315 3.00144 19.2045 3.43044 19.0575C3.94544 18.8815 4.52944 18.6795 5.10844 18.6755ZM10.7244 21.4945C9.19644 21.4945 7.65844 21.1715 6.21944 20.5055C5.79544 20.3355 5.39844 20.1755 5.11344 20.1755C4.78544 20.1775 4.34444 20.3295 3.91844 20.4765C3.04444 20.7765 1.95644 21.1505 1.15144 20.3485C0.349437 19.5455 0.719437 18.4605 1.01744 17.5875C1.16444 17.1575 1.31544 16.7135 1.31544 16.3775C1.31544 16.1015 1.18244 15.7495 0.978437 15.2425C-0.894563 11.1975 -0.0285628 6.32249 3.14844 3.14749C5.17644 1.11849 7.87544 0.000488281 10.7484 0.000488281C13.6214 0.000488281 16.3214 1.11749 18.3494 3.14649C22.5414 7.33849 22.5414 14.1585 18.3494 18.3505C16.2944 20.4065 13.5274 21.4945 10.7244 21.4945Z" fill="#050901"/>
</g>
</g>
<path id="Fill 4" fill-rule="evenodd" clip-rule="evenodd" d="M14.6954 12.1631C14.1434 12.1631 13.6914 11.7161 13.6914 11.1631C13.6914 10.6101 14.1344 10.1631 14.6864 10.1631H14.6954C15.2474 10.1631 15.6954 10.6101 15.6954 11.1631C15.6954 11.7161 15.2474 12.1631 14.6954 12.1631Z" fill="#050901"/>
<path id="Fill 6" fill-rule="evenodd" clip-rule="evenodd" d="M10.6876 12.1631C10.1356 12.1631 9.68359 11.7161 9.68359 11.1631C9.68359 10.6101 10.1256 10.1631 10.6786 10.1631H10.6876C11.2396 10.1631 11.6876 10.6101 11.6876 11.1631C11.6876 11.7161 11.2396 12.1631 10.6876 12.1631Z" fill="#050901"/>
<path id="Fill 8" fill-rule="evenodd" clip-rule="evenodd" d="M6.67978 12.1631C6.12778 12.1631 5.67578 11.7161 5.67578 11.1631C5.67578 10.6101 6.11878 10.1631 6.67078 10.1631H6.67978C7.23178 10.1631 7.67978 10.6101 7.67978 11.1631C7.67978 11.7161 7.23178 12.1631 6.67978 12.1631Z" fill="#050901"/>
</g>
</svg>
