<svg width="18" height="18" viewBox="0 0 18 18" fill="none" xmlns="http://www.w3.org/2000/svg">
<g clip-path="url(#clip0_12368_65828)">
<path d="M4.21001 16.2998C3.38311 16.2999 2.58934 15.9748 2.00001 15.3948L1.93501 15.3298C1.63891 15.0409 1.40364 14.6956 1.24306 14.3143C1.08248 13.9331 0.99984 13.5235 1.00001 13.1098C0.998963 12.6619 1.08681 12.2183 1.25847 11.8046C1.43012 11.3909 1.68217 11.0154 2.00001 10.6998L9.75001 3.03479C10.5374 2.21493 11.6154 1.73717 12.7517 1.70444C13.888 1.6717 14.9917 2.08661 15.825 2.85979C16.2008 3.23469 16.4983 3.68065 16.7 4.17167C16.9018 4.66269 17.0037 5.18896 17 5.71979C16.9956 6.31264 16.874 6.89878 16.6423 7.4445C16.4107 7.99023 16.0734 8.4848 15.65 8.89979L8.68501 15.7998C8.64171 15.858 8.58626 15.9061 8.5225 15.9408C8.45874 15.9755 8.38819 15.9958 8.31577 16.0005C8.24335 16.0051 8.17079 15.9939 8.10312 15.9677C8.03545 15.9415 7.9743 15.9009 7.92391 15.8487C7.87352 15.7964 7.83511 15.7339 7.81133 15.6653C7.78756 15.5967 7.77899 15.5238 7.78623 15.4516C7.79348 15.3794 7.81635 15.3096 7.85326 15.2471C7.89018 15.1847 7.94025 15.131 8.00001 15.0898L14.945 8.18979C15.2748 7.86783 15.5378 7.48389 15.7189 7.06002C15.8999 6.63615 15.9955 6.18069 16 5.71979C16.0036 5.32092 15.9277 4.92532 15.7766 4.55615C15.6255 4.18699 15.4023 3.85166 15.12 3.56979C14.4739 2.98123 13.6226 2.6698 12.7492 2.70253C11.8759 2.73526 11.0502 3.10952 10.45 3.74479L2.72501 11.4098C2.49736 11.6308 2.31601 11.895 2.19154 12.1869C2.06706 12.4788 2.00195 12.7925 2.00001 13.1098C1.99894 13.3884 2.05319 13.6645 2.15962 13.922C2.26605 14.1794 2.42254 14.4132 2.62001 14.6098L2.68501 14.6748C3.13239 15.0868 3.72364 15.3066 4.33148 15.2869C4.93933 15.2673 5.51516 15.0098 5.93501 14.5698L12.61 7.96979C12.7362 7.84216 12.8358 7.69063 12.9027 7.52408C12.9697 7.35752 13.0028 7.17928 13 6.99979C13.0011 6.84389 12.9712 6.68933 12.9119 6.54512C12.8527 6.4009 12.7654 6.26992 12.655 6.15979C12.4025 5.92825 12.0691 5.80528 11.7267 5.81744C11.3843 5.82961 11.0604 5.97592 10.825 6.22479L6.22501 10.7848C6.13086 10.8783 6.00342 10.9305 5.87074 10.9301C5.73806 10.9296 5.611 10.8764 5.51751 10.7823C5.42402 10.6881 5.37176 10.5607 5.37223 10.428C5.3727 10.2953 5.42586 10.1683 5.52001 10.0748L10.14 5.49979C10.5635 5.06595 11.1406 4.81599 11.7467 4.80383C12.3528 4.79167 12.9395 5.01829 13.38 5.43479C13.5826 5.64104 13.7419 5.88578 13.8483 6.15457C13.9548 6.42336 14.0064 6.71075 14 6.99979C13.9995 7.31105 13.9368 7.61908 13.8158 7.90583C13.6947 8.19259 13.5177 8.45231 13.295 8.66979L6.64001 15.2898C5.99496 15.9338 5.12153 16.2969 4.21001 16.2998Z" fill="black"/>
</g>
<defs>
<clipPath id="clip0_12368_65828">
<rect width="18" height="18" fill="white"/>
</clipPath>
</defs>
</svg>
