<svg width="100" height="100" viewBox="0 0 100 100" fill="none" xmlns="http://www.w3.org/2000/svg">
<g id="ic:outline-inventory">
<path id="Vector" d="M20.8333 20.8327H29.1667V33.3327H70.8333V20.8327H79.1667V41.666H87.5V20.8327C87.5 16.2493 83.75 12.4993 79.1667 12.4993H61.75C60 7.66602 55.4167 4.16602 50 4.16602C44.5833 4.16602 40 7.66602 38.25 12.4993H20.8333C16.25 12.4993 12.5 16.2493 12.5 20.8327V79.166C12.5 83.7494 16.25 87.4994 20.8333 87.4994H45.8333V79.166H20.8333V20.8327ZM50 12.4993C52.2917 12.4993 54.1667 14.3743 54.1667 16.666C54.1667 18.9577 52.2917 20.8327 50 20.8327C47.7083 20.8327 45.8333 18.9577 45.8333 16.666C45.8333 14.3743 47.7083 12.4993 50 12.4993Z" fill="black"/>
<path id="Vector_2" d="M87.5007 47.916L64.6257 70.8327L52.084 58.3327L45.834 64.5827L64.6257 83.3327L93.7507 54.166L87.5007 47.916Z" fill="black"/>
</g>
</svg>
