<svg width="35" height="34" viewBox="0 0 35 34" fill="none" xmlns="http://www.w3.org/2000/svg">
<g id="vuesax/bold/close-circle">
<g id="vuesax/bold/close-circle_2">
<path id="Vector" d="M17.5007 2.83325C9.69482 2.83325 3.33398 9.19409 3.33398 16.9999C3.33398 24.8058 9.69482 31.1666 17.5007 31.1666C25.3065 31.1666 31.6673 24.8058 31.6673 16.9999C31.6673 9.19409 25.3065 2.83325 17.5007 2.83325ZM22.2607 20.2583C22.6715 20.6691 22.6715 21.3491 22.2607 21.7599C22.0482 21.9724 21.779 22.0716 21.5098 22.0716C21.2407 22.0716 20.9715 21.9724 20.759 21.7599L17.5007 18.5016L14.2423 21.7599C14.0298 21.9724 13.7607 22.0716 13.4915 22.0716C13.2223 22.0716 12.9532 21.9724 12.7407 21.7599C12.3298 21.3491 12.3298 20.6691 12.7407 20.2583L15.999 16.9999L12.7407 13.7416C12.3298 13.3308 12.3298 12.6508 12.7407 12.2399C13.1515 11.8291 13.8315 11.8291 14.2423 12.2399L17.5007 15.4983L20.759 12.2399C21.1698 11.8291 21.8498 11.8291 22.2607 12.2399C22.6715 12.6508 22.6715 13.3308 22.2607 13.7416L19.0023 16.9999L22.2607 20.2583Z" fill="#292D32"/>
</g>
</g>
</svg>
