<svg width="16" height="16" viewBox="0 0 16 16" fill="none" xmlns="http://www.w3.org/2000/svg">
<g id="fa6-regular:comment-dots" clip-path="url(#clip0_2968_145733)">
<path id="Vector" d="M5.25625 12.0281C4.7875 11.8594 4.26562 11.9312 3.8625 12.2281C3.60625 12.4156 3.16562 12.6906 2.63125 12.9375C2.80625 12.4781 2.94062 11.9594 2.98438 11.3938C3.01562 10.9906 2.88125 10.5906 2.61562 10.2844C1.8875 9.4625 1.5 8.5 1.5 7.5C1.5 5.01562 4.10313 2.5 8 2.5C11.8969 2.5 14.5 5.01562 14.5 7.5C14.5 9.98438 11.8969 12.5 8 12.5C7.0125 12.5 6.08437 12.3281 5.25625 12.0281ZM0.821875 13.2437C0.771875 13.3281 0.71875 13.4125 0.6625 13.4969L0.653125 13.5125L0.503125 13.7281C0.39375 13.875 0.275 14.0187 0.15 14.15C0.00625001 14.2937 -0.034375 14.5063 0.04375 14.6938C0.121875 14.8813 0.303125 15.0031 0.50625 15.0031C0.665625 15.0031 0.825 14.9937 0.984375 14.9781L1.00625 14.975C1.14375 14.9594 1.28125 14.9406 1.41875 14.9156C1.44375 14.9125 1.46875 14.9062 1.49375 14.9C2.05 14.7906 2.58438 14.6031 3.05938 14.3969C3.775 14.0844 4.38438 13.7125 4.75625 13.4406C5.75 13.8 6.85 14 8.00937 14C12.4281 14 16.0094 11.0906 16.0094 7.5C16.0094 3.90937 12.4187 1 8 1C3.58125 1 0 3.90937 0 7.5C0 8.90938 0.553125 10.2125 1.49063 11.2781C1.43125 12.0437 1.13437 12.725 0.821875 13.2437ZM4.5 8.5C4.76522 8.5 5.01957 8.39464 5.20711 8.20711C5.39464 8.01957 5.5 7.76522 5.5 7.5C5.5 7.23478 5.39464 6.98043 5.20711 6.79289C5.01957 6.60536 4.76522 6.5 4.5 6.5C4.23478 6.5 3.98043 6.60536 3.79289 6.79289C3.60536 6.98043 3.5 7.23478 3.5 7.5C3.5 7.76522 3.60536 8.01957 3.79289 8.20711C3.98043 8.39464 4.23478 8.5 4.5 8.5ZM9 7.5C9 7.23478 8.89464 6.98043 8.70711 6.79289C8.51957 6.60536 8.26522 6.5 8 6.5C7.73478 6.5 7.48043 6.60536 7.29289 6.79289C7.10536 6.98043 7 7.23478 7 7.5C7 7.76522 7.10536 8.01957 7.29289 8.20711C7.48043 8.39464 7.73478 8.5 8 8.5C8.26522 8.5 8.51957 8.39464 8.70711 8.20711C8.89464 8.01957 9 7.76522 9 7.5ZM11.5 8.5C11.7652 8.5 12.0196 8.39464 12.2071 8.20711C12.3946 8.01957 12.5 7.76522 12.5 7.5C12.5 7.23478 12.3946 6.98043 12.2071 6.79289C12.0196 6.60536 11.7652 6.5 11.5 6.5C11.2348 6.5 10.9804 6.60536 10.7929 6.79289C10.6054 6.98043 10.5 7.23478 10.5 7.5C10.5 7.76522 10.6054 8.01957 10.7929 8.20711C10.9804 8.39464 11.2348 8.5 11.5 8.5Z" fill="#2F364B"/>
</g>
<defs>
<clipPath id="clip0_2968_145733">
<rect width="16" height="16" fill="white"/>
</clipPath>
</defs>
</svg>
