<svg width="60" height="60" viewBox="0 0 24 24" fill="none" xmlns="http://www.w3.org/2000/svg">
	<path d="M16.996 9.013H17.004M17.004 7.009V4.505M7.50199 22H4.71799C4.39499 22 4.06999 21.954 3.77299 21.827C2.80699 21.412 2.31599 20.863 2.08799 20.52C2.02611 20.425 1.99571 20.3129 2.0011 20.1997C2.00648 20.0864 2.04738 19.9777 2.11799 19.889C3.23799 18.401 5.83399 17.503 7.50199 17.503M7.50699 22H10.29C10.614 22 10.938 21.954 11.235 21.827C12.202 21.412 12.692 20.863 12.921 20.52C12.9829 20.425 13.0133 20.3129 13.0079 20.1997C13.0025 20.0864 12.9616 19.9777 12.891 19.889C11.771 18.401 9.17499 17.503 7.50699 17.503M22 6.792C22 9.438 19.76 11.584 16.996 11.584C16.6707 11.584 16.348 11.554 16.028 11.494C15.798 11.451 15.684 11.43 15.603 11.442C15.523 11.454 15.409 11.514 15.183 11.636C14.5357 11.9811 13.7906 12.0971 13.069 11.965C13.343 11.627 13.529 11.222 13.612 10.788C13.662 10.523 13.538 10.265 13.352 10.076C12.4835 9.20339 11.9947 8.02314 11.992 6.792C11.992 4.146 14.232 2 16.996 2C19.76 2 22 4.146 22 6.792ZM10.285 12.289C10.2839 13.0249 9.99072 13.7303 9.4698 14.2501C8.94888 14.7698 8.24289 15.0615 7.50699 15.061C7.14244 15.0615 6.78136 14.9902 6.44436 14.8512C6.10736 14.7122 5.80104 14.5082 5.54289 14.2508C5.28475 13.9934 5.07983 13.6876 4.93983 13.351C4.79984 13.0144 4.72752 12.6535 4.72699 12.289C4.72739 11.9244 4.79961 11.5634 4.93955 11.2267C5.07948 10.89 5.28438 10.5841 5.54254 10.3266C5.8007 10.0691 6.10706 9.86496 6.44413 9.72587C6.78119 9.58679 7.14236 9.51547 7.50699 9.516C8.24306 9.51547 8.94921 9.80729 9.47015 10.3273C9.9911 10.8473 10.2842 11.5529 10.285 12.289Z" stroke="#0033c4" strokeWidth="1.5" strokeLinecap="round" strokeLinejoin="round" />
</svg>
