<svg xmlns="http://www.w3.org/2000/svg" width="60" height="60" viewBox="0 0 60 60" fill="none">
  <g clip-path="url(#clip0_9582_143312)">
    <path d="M53.4856 21.5455H53.5136M53.5136 14.5315V5.7675M20.2557 67H10.5115C9.38097 67 8.24345 66.839 7.20392 66.3945C3.82284 64.942 2.10429 63.0205 1.30627 61.82C1.0897 61.4875 0.983287 61.0952 1.00213 60.6988C1.02098 60.3024 1.16413 59.922 1.41128 59.6115C5.33137 54.4035 14.4176 51.2605 20.2557 51.2605M20.2732 67H30.014C31.148 67 32.282 66.839 33.3216 66.3945C36.7062 64.942 38.4212 63.0205 39.2227 61.82C39.4393 61.4875 39.5457 61.0952 39.5269 60.6988C39.508 60.3024 39.3649 59.922 39.1177 59.6115C35.1976 54.4035 26.1114 51.2605 20.2732 51.2605M71 13.772C71 23.033 63.1598 30.544 53.4856 30.544C52.3469 30.544 51.2175 30.439 50.0975 30.229C49.2925 30.0785 48.8935 30.005 48.6099 30.047C48.3299 30.089 47.9309 30.299 47.1399 30.726C44.8742 31.9339 42.2664 32.3397 39.7407 31.8775C40.6998 30.6945 41.3508 29.277 41.6413 27.758C41.8163 26.8305 41.3823 25.9275 40.7313 25.266C37.6915 22.2119 35.9807 18.081 35.9711 13.772C35.9711 4.511 43.8113 -3 53.4856 -3C63.1598 -3 71 4.511 71 13.772ZM29.9965 33.0115C29.9928 35.5871 28.9665 38.0559 27.1432 39.8752C25.32 41.6945 22.8489 42.7154 20.2732 42.7135C18.9973 42.7153 17.7335 42.4658 16.5539 41.9793C15.3744 41.4927 14.3023 40.7786 13.3987 39.8777C12.4952 38.9767 11.7779 37.9067 11.288 36.7286C10.798 35.5505 10.5448 34.2874 10.543 33.0115C10.5444 31.7353 10.7972 30.4718 11.287 29.2933C11.7767 28.1148 12.4939 27.0444 13.3975 26.1431C14.3011 25.2418 15.3734 24.5274 16.5531 24.0406C17.7329 23.5538 18.997 23.3042 20.2732 23.306C22.8495 23.3041 25.3211 24.3255 27.1445 26.1456C28.9678 27.9656 29.9937 30.4353 29.9965 33.0115Z" stroke="#0033C4" stroke-width="3" stroke-linecap="round" stroke-linejoin="round"/>
  </g>
  <defs>
    <clipPath id="clip0_9582_143312">
      <rect width="60" height="60" fill="white"/>
    </clipPath>
  </defs>
</svg>