<svg width="14" height="14" viewBox="0 0 14 14" fill="none" xmlns="http://www.w3.org/2000/svg">
<rect x="0.683594" y="0.164062" width="13.3099" height="13.3099" rx="6.65493" fill="#EFF6FF"/>
<path d="M7.33918 7.15168C6.88166 7.15168 6.48999 6.98878 6.16417 6.66296C5.83836 6.33715 5.67545 5.94548 5.67545 5.48795C5.67545 5.03042 5.83836 4.63875 6.16417 4.31294C6.48999 3.98713 6.88166 3.82422 7.33918 3.82422C7.79671 3.82422 8.18838 3.98713 8.51419 4.31294C8.84001 4.63875 9.00292 5.03042 9.00292 5.48795C9.00292 5.94548 8.84001 6.33715 8.51419 6.66296C8.18838 6.98878 7.79671 7.15168 7.33918 7.15168ZM4.01172 10.4791V9.31454C4.01172 9.07884 4.07245 8.86228 4.1939 8.66485C4.31535 8.46742 4.47645 8.31657 4.67721 8.21231C5.10701 7.99741 5.54374 7.83631 5.9874 7.729C6.43106 7.62169 6.88166 7.56789 7.33918 7.56762C7.79671 7.56762 8.2473 7.62141 8.69097 7.729C9.13463 7.83659 9.57136 7.99769 10.0012 8.21231C10.2022 8.3163 10.3634 8.46714 10.4849 8.66485C10.6063 8.86255 10.6669 9.07912 10.6666 9.31454V10.4791H4.01172Z" fill="#2563EB"/>
</svg>
