<svg width="10" height="10" viewBox="0 0 10 10" fill="none" xmlns="http://www.w3.org/2000/svg">
<path d="M4.99985 4.99976C4.31235 4.99976 3.72381 4.75496 3.23422 4.26538C2.74464 3.7758 2.49985 3.18726 2.49985 2.49976C2.49985 1.81226 2.74464 1.22371 3.23422 0.734131C3.72381 0.244548 4.31235 -0.000244141 4.99985 -0.000244141C5.68735 -0.000244141 6.27589 0.244548 6.76547 0.734131C7.25505 1.22371 7.49985 1.81226 7.49985 2.49976C7.49985 3.18726 7.25505 3.7758 6.76547 4.26538C6.27589 4.75496 5.68735 4.99976 4.99985 4.99976ZM-0.000152588 9.99975V8.24976C-0.000152588 7.89559 0.0910975 7.57017 0.273598 7.2735C0.456097 6.97684 0.698181 6.75017 0.999847 6.59351C1.64568 6.27059 2.30193 6.0285 2.9686 5.86726C3.63526 5.70601 4.31235 5.62517 4.99985 5.62476C5.68735 5.62476 6.36443 5.70559 7.0311 5.86726C7.69776 6.02892 8.35401 6.27101 8.99985 6.59351C9.30193 6.74976 9.54422 6.97642 9.72672 7.2735C9.90922 7.57059 10.0003 7.89601 9.99985 8.24976V9.99975H-0.000152588Z" fill="#2563EB"/>
</svg>
