<svg width="32" height="32" viewBox="0 0 32 32" fill="none" xmlns="http://www.w3.org/2000/svg">
<path d="M16.5621 24C14.1832 24 12.1615 23.1687 10.4969 21.5062C8.8323 19.8437 8 17.8245 8 15.4487C8 13.2831 8.70637 11.4053 10.1191 9.81552C11.5319 8.22569 13.2814 7.28718 15.3677 7C15.4255 7 15.4822 7.00214 15.5378 7.00641C15.5935 7.01069 15.6481 7.01675 15.7016 7.02458C15.3406 7.52769 15.0548 8.08709 14.8443 8.70278C14.6338 9.31847 14.5286 9.96374 14.5286 10.6386C14.5286 12.5391 15.1943 14.1542 16.5257 15.484C17.8571 16.8137 19.4746 17.4789 21.3782 17.4796C22.0568 17.4796 22.7036 17.3745 23.3186 17.1643C23.9337 16.9541 24.4859 16.6687 24.9754 16.3081C24.9839 16.3615 24.99 16.4161 24.9936 16.4716C24.9971 16.5272 24.9993 16.5839 25 16.6416C24.726 18.7246 23.7931 20.4715 22.2013 21.8825C20.6094 23.2934 18.7304 23.9993 16.5621 24Z" fill="#5A5D61"/>
</svg>
