<svg width="40" height="30" viewBox="0 0 48 39" fill="none" xmlns="http://www.w3.org/2000/svg">
<path opacity="0.2" d="M44.3125 14.75H3.6875L24 2.25L44.3125 14.75Z" fill="currentColor"/>
<path d="M3.6875 16.3115H8.375V28.8115H5.25C4.8356 28.8115 4.43817 28.9761 4.14515 29.2692C3.85212 29.5622 3.6875 29.9596 3.6875 30.374C3.6875 30.7884 3.85212 31.1859 4.14515 31.4789C4.43817 31.7719 4.8356 31.9365 5.25 31.9365H42.75C43.1644 31.9365 43.5618 31.7719 43.8549 31.4789C44.1479 31.1859 44.3125 30.7884 44.3125 30.374C44.3125 29.9596 44.1479 29.5622 43.8549 29.2692C43.5618 28.9761 43.1644 28.8115 42.75 28.8115H39.625V16.3115H44.3125C44.6525 16.3112 44.9831 16.2 45.2541 15.9948C45.5251 15.7895 45.7219 15.5015 45.8144 15.1744C45.907 14.8473 45.8903 14.4989 45.7669 14.1821C45.6436 13.8653 45.4203 13.5974 45.1309 13.419L24.8184 0.91895C24.5722 0.767618 24.2889 0.6875 24 0.6875C23.7111 0.6875 23.4278 0.767618 23.1816 0.91895L2.86914 13.419C2.57974 13.5974 2.35642 13.8653 2.23307 14.1821C2.10971 14.4989 2.09304 14.8473 2.18559 15.1744C2.27814 15.5015 2.47486 15.7895 2.7459 15.9948C3.01695 16.2 3.34753 16.3112 3.6875 16.3115ZM11.5 16.3115H17.75V28.8115H11.5V16.3115ZM27.125 16.3115V28.8115H20.875V16.3115H27.125ZM36.5 28.8115H30.25V16.3115H36.5V28.8115ZM24 4.08301L38.793 13.1865H9.20703L24 4.08301ZM47.4375 36.624C47.4375 37.0384 47.2729 37.4359 46.9799 37.7289C46.6868 38.0219 46.2894 38.1865 45.875 38.1865H2.125C1.7106 38.1865 1.31317 38.0219 1.02015 37.7289C0.72712 37.4359 0.5625 37.0384 0.5625 36.624C0.5625 36.2096 0.72712 35.8122 1.02015 35.5192C1.31317 35.2261 1.7106 35.0615 2.125 35.0615H45.875C46.2894 35.0615 46.6868 35.2261 46.9799 35.5192C47.2729 35.8122 47.4375 36.2096 47.4375 36.624Z" fill="currentColor"/>
</svg>
