<svg width="17" height="16" viewBox="0 0 17 16" fill="none" xmlns="http://www.w3.org/2000/svg">
<g id="vuesax/linear/dislike">
<g id="dislike">
<path id="Vector" d="M11.5133 3.76563L9.44665 2.16562C9.17998 1.89896 8.57998 1.76562 8.17998 1.76562H5.64665C4.84665 1.76562 3.97998 2.36562 3.77998 3.16562L2.17998 8.03229C1.84665 8.96562 2.44665 9.76563 3.44665 9.76563H6.11332C6.51332 9.76563 6.84665 10.099 6.77998 10.5656L6.44665 12.699C6.31332 13.299 6.71332 13.9656 7.31332 14.1656C7.84665 14.3656 8.51332 14.099 8.77998 13.699L11.5133 9.63229" stroke="#A4A7B0" stroke-miterlimit="10"/>
<path id="Vector_2" d="M14.9134 3.76667V10.3C14.9134 11.2333 14.5134 11.5667 13.5801 11.5667H12.9134C11.9801 11.5667 11.5801 11.2333 11.5801 10.3V3.76667C11.5801 2.83333 11.9801 2.5 12.9134 2.5H13.5801C14.5134 2.5 14.9134 2.83333 14.9134 3.76667Z" stroke="#A4A7B0" stroke-linecap="round" stroke-linejoin="round"/>
</g>
</g>
</svg>
