<svg width="15" height="15" viewBox="0 0 15 15" fill="none" xmlns="http://www.w3.org/2000/svg">
<path d="M12.6667 2.33333H10M12.6667 2.33333C12.6667 2.70667 11.6707 3.40467 11.3333 3.66667M12.6667 2.33333C12.6667 1.96 11.6707 1.262 11.3333 1M1 2.33333H3.66667M1 2.33333C1 1.96 1.996 1.262 2.33333 1M1 2.33333C1 2.70667 1.996 3.40467 2.33333 3.66667M4.24467 7.44733L5.66733 8.66667V2.16667C5.66733 1.85725 5.79025 1.5605 6.00904 1.34171C6.22783 1.12292 6.52458 1 6.834 1C7.14342 1 7.44017 1.12292 7.65896 1.34171C7.87775 1.5605 8.00067 1.85725 8.00067 2.16667V5.66667L9.99267 5.98533C11.2787 6.178 11.9213 6.27467 12.374 6.54533C13.122 6.994 13.664 7.66667 13.664 8.64933C13.664 9.33333 13.4947 9.79267 13.084 11.026C12.8227 11.8087 12.6927 12.1993 12.48 12.5093C12.1298 13.0193 11.6132 13.3917 11.0187 13.5627C10.6573 13.6667 10.2453 13.6667 9.42 13.6667H8.72C7.624 13.6667 7.07533 13.6667 6.58667 13.4653C6.49923 13.4292 6.41378 13.3885 6.33067 13.3433C5.86667 13.0913 5.52067 12.6667 4.82933 11.8147L2.59067 9.05867C2.41043 8.83373 2.32039 8.54975 2.3381 8.26205C2.35581 7.97436 2.47999 7.70356 2.68645 7.50242C2.89291 7.30129 3.16686 7.18422 3.45492 7.17404C3.74298 7.16385 4.02452 7.26128 4.24467 7.44733Z" stroke="#787A7E" stroke-width="1.5" stroke-linecap="round" stroke-linejoin="round"/>
</svg>
