<svg width="16" height="16" viewBox="0 0 16 16" fill="none" xmlns="http://www.w3.org/2000/svg">
<path d="M14.0776 9.4206C14.1405 9.49643 14.1879 9.58391 14.2169 9.67804C14.246 9.77217 14.2562 9.8711 14.2471 9.96918C14.2379 10.0673 14.2095 10.1626 14.1635 10.2497C14.1175 10.3368 14.0547 10.414 13.9789 10.4769C12.8433 11.4187 11.8164 11.75 10.8845 11.75C9.64951 11.75 8.58077 11.1694 7.64202 10.66C6.07577 9.80873 4.83827 9.13685 2.97889 10.6787C2.90305 10.7416 2.81557 10.7889 2.72145 10.818C2.62732 10.847 2.5284 10.8573 2.43031 10.8481C2.33223 10.8389 2.23692 10.8105 2.14981 10.7645C2.0627 10.7185 1.98551 10.6558 1.92264 10.58C1.85977 10.5041 1.81245 10.4167 1.78339 10.3225C1.75433 10.2284 1.74409 10.1295 1.75326 10.0314C1.77178 9.83332 1.86823 9.6507 2.02139 9.52373C4.66202 7.33623 6.70889 8.44685 8.35827 9.34123C9.92452 10.1919 11.162 10.8644 13.0214 9.32185C13.0972 9.25897 13.1847 9.21163 13.2788 9.18256C13.373 9.15349 13.4719 9.14324 13.57 9.15241C13.6681 9.16158 13.7634 9.18999 13.8505 9.23601C13.9376 9.28202 14.0148 9.34475 14.0776 9.4206ZM2.97889 6.6781C4.83827 5.1356 6.07577 5.8081 7.64202 6.65873C8.57952 7.16873 9.64951 7.74935 10.8845 7.74935C11.8164 7.74935 12.8433 7.4181 13.9789 6.47623C14.1321 6.34926 14.2285 6.16664 14.247 5.96855C14.2655 5.77047 14.2046 5.57314 14.0776 5.41998C13.9507 5.26682 13.7681 5.17037 13.57 5.15185C13.3719 5.13333 13.1746 5.19426 13.0214 5.32123C11.162 6.8631 9.92452 6.19123 8.35827 5.33998C6.71139 4.44623 4.66202 3.3331 2.02139 5.5231C1.86823 5.65008 1.77178 5.83269 1.75326 6.03078C1.73474 6.22886 1.79567 6.42619 1.92264 6.57935C2.04961 6.73252 2.23223 6.82897 2.43031 6.84748C2.6284 6.866 2.82573 6.80508 2.97889 6.6781Z" fill="currentColor"/>
</svg>