<svg width="20" height="20" viewBox="0 0 20 20" fill="none" xmlns="http://www.w3.org/2000/svg">
<path d="M12.2381 9.59375L5.32001 8.375V17.3806C5.32009 17.4785 5.33944 17.5753 5.37696 17.6657C5.41447 17.756 5.46942 17.8381 5.53865 17.9072C5.60789 17.9764 5.69007 18.0312 5.78049 18.0685C5.8709 18.1059 5.9678 18.1251 6.06563 18.125H18.0031C18.1011 18.1252 18.1981 18.1062 18.2887 18.0689C18.3792 18.0316 18.4615 17.9768 18.5309 17.9077C18.6003 17.8385 18.6553 17.7564 18.6929 17.666C18.7305 17.5755 18.7499 17.4786 18.75 17.3806V14.0625L12.2381 9.59375Z" fill="#185C37"/>
<path d="M12.2381 1.875H6.06563C5.9678 1.87492 5.8709 1.89411 5.78049 1.93147C5.69007 1.96883 5.60789 2.02364 5.53865 2.09276C5.46942 2.16189 5.41447 2.24397 5.37696 2.33432C5.33944 2.42468 5.32009 2.52154 5.32001 2.61938V5.9375L12.2381 10L15.9013 11.2188L18.75 10V5.9375L12.2381 1.875Z" fill="#21A366"/>
<path d="M5.32001 5.9375H12.2381V10H5.32001V5.9375Z" fill="#107C41"/>
<path opacity="0.1" d="M10.2713 5.125H5.32001V15.2812H10.2713C10.4685 15.2803 10.6575 15.2016 10.7972 15.0623C10.9369 14.9229 11.016 14.7342 11.0175 14.5369V5.86937C11.016 5.67209 10.9369 5.48333 10.7972 5.34399C10.6575 5.20466 10.4685 5.12598 10.2713 5.125Z" fill="black"/>
<path opacity="0.2" d="M9.86438 5.53125H5.32001V15.6875H9.86438C10.0617 15.6865 10.2506 15.6078 10.3903 15.4685C10.53 15.3292 10.6092 15.1404 10.6106 14.9431V6.27562C10.6092 6.07834 10.53 5.88958 10.3903 5.75024C10.2506 5.61091 10.0617 5.53223 9.86438 5.53125Z" fill="black"/>
<path opacity="0.2" d="M9.86438 5.53125H5.32001V14.875H9.86438C10.0617 14.874 10.2506 14.7953 10.3903 14.656C10.53 14.5167 10.6092 14.3279 10.6106 14.1306V6.27562C10.6092 6.07834 10.53 5.88958 10.3903 5.75024C10.2506 5.61091 10.0617 5.53223 9.86438 5.53125Z" fill="black"/>
<path opacity="0.2" d="M9.45751 5.53125H5.32001V14.875H9.45751C9.6548 14.874 9.84376 14.7953 9.98344 14.656C10.1231 14.5167 10.2023 14.3279 10.2038 14.1306V6.27562C10.2023 6.07834 10.1231 5.88958 9.98344 5.75024C9.84376 5.61091 9.6548 5.53223 9.45751 5.53125Z" fill="black"/>
<path d="M1.99625 5.53125H9.4575C9.65514 5.53109 9.84477 5.6094 9.9847 5.74898C10.1246 5.88856 10.2034 6.07798 10.2038 6.27563V13.7244C10.2034 13.922 10.1246 14.1114 9.9847 14.251C9.84477 14.3906 9.65514 14.4689 9.4575 14.4688H1.99625C1.89836 14.4689 1.8014 14.4498 1.71091 14.4125C1.62042 14.3751 1.53817 14.3203 1.46887 14.2512C1.39956 14.1821 1.34456 14.1 1.30701 14.0096C1.26945 13.9192 1.25008 13.8223 1.25 13.7244V6.27563C1.25008 6.17774 1.26945 6.08083 1.30701 5.99043C1.34456 5.90003 1.39956 5.81792 1.46887 5.74879C1.53817 5.67966 1.62042 5.62487 1.71091 5.58754C1.8014 5.55021 1.89836 5.53109 1.99625 5.53125Z" fill="url(#paint0_linear_2758_131419)"/>
<path d="M3.5625 12.4213L5.13188 9.99383L3.69437 7.58008H4.84875L5.63312 9.1257C5.70562 9.27195 5.75813 9.3807 5.78188 9.4532H5.7925C5.84375 9.3357 5.89812 9.22258 5.955 9.11195L6.79375 7.58258H7.85625L6.38188 9.98258L7.89375 12.4232H6.76313L5.85688 10.7288C5.8148 10.656 5.77904 10.5797 5.75 10.5007H5.735C5.70857 10.5776 5.67334 10.6512 5.63 10.7201L4.69688 12.4213H3.5625Z" fill="white"/>
<path d="M18.0038 1.875H12.2381V5.9375H18.75V2.61938C18.7499 2.52149 18.7306 2.42458 18.693 2.33418C18.6554 2.24378 18.6004 2.16167 18.5311 2.09254C18.4618 2.02341 18.3796 1.96862 18.2891 1.93129C18.1986 1.89396 18.1016 1.87484 18.0038 1.875Z" fill="#33C481"/>
<path d="M12.2381 10H18.75V14.0625H12.2381V10Z" fill="#107C41"/>
<defs>
<linearGradient id="paint0_linear_2758_131419" x1="2.80875" y1="4.94625" x2="8.645" y2="15.0538" gradientUnits="userSpaceOnUse">
<stop stop-color="#18884F"/>
<stop offset="0.5" stop-color="#117E43"/>
<stop offset="1" stop-color="#0B6631"/>
</linearGradient>
</defs>
</svg>
