<svg width="18" height="19" viewBox="0 0 18 19" fill="none" xmlns="http://www.w3.org/2000/svg">
<path d="M16.5 9.375C16.5 5.235 13.14 1.875 9 1.875C4.86 1.875 1.5 5.235 1.5 9.375C1.5 13.515 4.86 16.875 9 16.875" stroke="#0033C4" stroke-width="1.5" stroke-linecap="round" stroke-linejoin="round"/>
<path d="M6.0002 2.625H6.7502C5.2877 7.005 5.2877 11.745 6.7502 16.125H6.0002" stroke="#0033C4" stroke-width="1.5" stroke-linecap="round" stroke-linejoin="round"/>
<path d="M11.25 2.625C11.9775 4.815 12.345 7.095 12.345 9.375" stroke="#0033C4" stroke-width="1.5" stroke-linecap="round" stroke-linejoin="round"/>
<path d="M2.25 12.375V11.625C4.44 12.3525 6.72 12.72 9 12.72" stroke="#0033C4" stroke-width="1.5" stroke-linecap="round" stroke-linejoin="round"/>
<path d="M2.25 7.12422C6.63 5.66172 11.37 5.66172 15.75 7.12422" stroke="#0033C4" stroke-width="1.5" stroke-linecap="round" stroke-linejoin="round"/>
<path d="M13.65 16.425C14.9755 16.425 16.05 15.3505 16.05 14.025C16.05 12.6995 14.9755 11.625 13.65 11.625C12.3245 11.625 11.25 12.6995 11.25 14.025C11.25 15.3505 12.3245 16.425 13.65 16.425Z" stroke="#0033C4" stroke-width="1.5" stroke-linecap="round" stroke-linejoin="round"/>
<path d="M16.5 16.875L15.75 16.125" stroke="#0033C4" stroke-width="1.5" stroke-linecap="round" stroke-linejoin="round"/>
</svg>
