<svg width="40" height="40" viewBox="0 0 40 40" fill="none" xmlns="http://www.w3.org/2000/svg">
<path d="M8.22 7.14258C6.79919 7.14258 5.43658 7.70699 4.43192 8.71165C3.42727 9.71631 2.86285 11.0789 2.86285 12.4997V13.5711H37.1429V12.4997C37.1429 11.0789 36.5784 9.71631 35.5738 8.71165C34.5691 7.70699 33.2065 7.14258 31.7857 7.14258H8.22ZM2.86285 27.4997V15.714H37.1429V27.4997C37.1429 28.9205 36.5784 30.2831 35.5738 31.2878C34.5691 32.2925 33.2065 32.8569 31.7857 32.8569H8.22143C6.80062 32.8569 5.43801 32.2925 4.43335 31.2878C3.42869 30.2831 2.86428 28.9205 2.86428 27.4997M26.0714 23.5711C25.7873 23.5711 25.5147 23.684 25.3138 23.885C25.1129 24.0859 25 24.3584 25 24.6426C25 24.9267 25.1129 25.1993 25.3138 25.4002C25.5147 25.6011 25.7873 25.714 26.0714 25.714H31.0714C31.3556 25.714 31.6281 25.6011 31.829 25.4002C32.03 25.1993 32.1429 24.9267 32.1429 24.6426C32.1429 24.3584 32.03 24.0859 31.829 23.885C31.6281 23.684 31.3556 23.5711 31.0714 23.5711H26.0714Z" fill="#01BA4C"/>
</svg>
