<svg width="36" height="26" viewBox="0 0 36 26" fill="none" xmlns="http://www.w3.org/2000/svg">
<path d="M6.22 0.142578C4.79919 0.142578 3.43658 0.70699 2.43192 1.71165C1.42727 2.71631 0.862854 4.07892 0.862854 5.49972V6.57115H35.1429V5.49972C35.1429 4.07892 34.5784 2.71631 33.5738 1.71165C32.5691 0.70699 31.2065 0.142578 29.7857 0.142578H6.22ZM0.862854 20.4997V8.71401H35.1429V20.4997C35.1429 21.9205 34.5784 23.2831 33.5738 24.2878C32.5691 25.2925 31.2065 25.8569 29.7857 25.8569H6.22143C4.80062 25.8569 3.43801 25.2925 2.43335 24.2878C1.42869 23.2831 0.864283 21.9205 0.864283 20.4997M24.0714 16.5711C23.7873 16.5711 23.5147 16.684 23.3138 16.885C23.1129 17.0859 23 17.3584 23 17.6426C23 17.9267 23.1129 18.1993 23.3138 18.4002C23.5147 18.6011 23.7873 18.714 24.0714 18.714H29.0714C29.3556 18.714 29.6281 18.6011 29.829 18.4002C30.03 18.1993 30.1429 17.9267 30.1429 17.6426C30.1429 17.3584 30.03 17.0859 29.829 16.885C29.6281 16.684 29.3556 16.5711 29.0714 16.5711H24.0714Z" fill="#01BA4C"/>
</svg>
