<svg xmlns="http://www.w3.org/2000/svg" width="26" height="26" viewBox="0 0 26 26" fill="none"><script xmlns=""/>
<path d="M10.3594 12.1875H3.45312C2.96828 12.1875 2.50329 11.9949 2.16045 11.6521C1.81761 11.3092 1.625 10.8442 1.625 10.3594V3.45312C1.625 2.96828 1.81761 2.50329 2.16045 2.16045C2.50329 1.81761 2.96828 1.625 3.45312 1.625H10.3594C10.8442 1.625 11.3092 1.81761 11.6521 2.16045C11.9949 2.50329 12.1875 2.96828 12.1875 3.45312V10.3594C12.1875 10.8442 11.9949 11.3092 11.6521 11.6521C11.3092 11.9949 10.8442 12.1875 10.3594 12.1875ZM22.5469 12.1875H15.6406C15.1558 12.1875 14.6908 11.9949 14.3479 11.6521C14.0051 11.3092 13.8125 10.8442 13.8125 10.3594V3.45312C13.8125 2.96828 14.0051 2.50329 14.3479 2.16045C14.6908 1.81761 15.1558 1.625 15.6406 1.625H22.5469C23.0317 1.625 23.4967 1.81761 23.8396 2.16045C24.1824 2.50329 24.375 2.96828 24.375 3.45312V10.3594C24.375 10.8442 24.1824 11.3092 23.8396 11.6521C23.4967 11.9949 23.0317 12.1875 22.5469 12.1875ZM10.3594 24.375H3.45312C2.96828 24.375 2.50329 24.1824 2.16045 23.8396C1.81761 23.4967 1.625 23.0317 1.625 22.5469V15.6406C1.625 15.1558 1.81761 14.6908 2.16045 14.3479C2.50329 14.0051 2.96828 13.8125 3.45312 13.8125H10.3594C10.8442 13.8125 11.3092 14.0051 11.6521 14.3479C11.9949 14.6908 12.1875 15.1558 12.1875 15.6406V22.5469C12.1875 23.0317 11.9949 23.4967 11.6521 23.8396C11.3092 24.1824 10.8442 24.375 10.3594 24.375ZM22.5469 24.375H15.6406C15.1558 24.375 14.6908 24.1824 14.3479 23.8396C14.0051 23.4967 13.8125 23.0317 13.8125 22.5469V15.6406C13.8125 15.1558 14.0051 14.6908 14.3479 14.3479C14.6908 14.0051 15.1558 13.8125 15.6406 13.8125H22.5469C23.0317 13.8125 23.4967 14.0051 23.8396 14.3479C24.1824 14.6908 24.375 15.1558 24.375 15.6406V22.5469C24.375 23.0317 24.1824 23.4967 23.8396 23.8396C23.4967 24.1824 23.0317 24.375 22.5469 24.375Z" fill="black"/>
</svg>