    <svg
      width="17"
      height="17"
      viewBox="0 0 17 17"
      fill="none"
      xmlns="http://www.w3.org/2000/svg"
    >
      <path
        d="M9.78594 1.8991C10.0473 1.89908 10.3041 1.96735 10.531 2.09715C10.7578 2.22695 10.9468 2.41377 11.0793 2.6391L11.6219 3.56377H13.0026C13.5771 3.56377 14.1281 3.79195 14.5344 4.19814C14.9407 4.60432 15.1691 5.15525 15.1693 5.72977V12.0631C15.1693 12.3476 15.1132 12.6294 15.0043 12.8923C14.8955 13.1551 14.7359 13.394 14.5347 13.5952C14.3335 13.7964 14.0946 13.956 13.8318 14.0648C13.5689 14.1737 13.2871 14.2298 13.0026 14.2298H4.0026C3.42797 14.2298 2.87687 14.0015 2.47054 13.5952C2.06421 13.1888 1.83594 12.6377 1.83594 12.0631V5.72977C1.83594 5.15513 2.06421 4.60403 2.47054 4.19771C2.87687 3.79138 3.42797 3.5631 4.0026 3.5631H5.38927L5.9726 2.61377C6.10673 2.39525 6.29463 2.21476 6.51837 2.08953C6.7421 1.9643 6.9942 1.89851 7.2506 1.89844H9.78594V1.8991ZM8.5026 5.5631C7.70695 5.5631 6.94389 5.87917 6.38128 6.44178C5.81867 7.00439 5.5026 7.76745 5.5026 8.5631C5.5026 9.35875 5.81867 10.1218 6.38128 10.6844C6.94389 11.247 7.70695 11.5631 8.5026 11.5631C9.29825 11.5631 10.0613 11.247 10.6239 10.6844C11.1865 10.1218 11.5026 9.35875 11.5026 8.5631C11.5026 7.76745 11.1865 7.00439 10.6239 6.44178C10.0613 5.87917 9.29825 5.5631 8.5026 5.5631ZM8.5026 6.5631C8.76525 6.5631 9.02532 6.61484 9.26797 6.71534C9.51062 6.81585 9.7311 6.96317 9.91682 7.14889C10.1025 7.33461 10.2499 7.55509 10.3504 7.79774C10.4509 8.04039 10.5026 8.30046 10.5026 8.5631C10.5026 8.82575 10.4509 9.08582 10.3504 9.32847C10.2499 9.57112 10.1025 9.7916 9.91682 9.97732C9.7311 10.163 9.51062 10.3104 9.26797 10.4109C9.02532 10.5114 8.76525 10.5631 8.5026 10.5631C7.97217 10.5631 7.46346 10.3524 7.08839 9.97732C6.71332 9.60225 6.5026 9.09354 6.5026 8.5631C6.5026 8.03267 6.71332 7.52396 7.08839 7.14889C7.46346 6.77382 7.97217 6.5631 8.5026 6.5631Z"
        fill="white"
      />
    </svg>