<svg width="40" height="40" viewBox="0 0 40 40" fill="none" xmlns="http://www.w3.org/2000/svg">
<g id="akar-icons:image">
<g id="Group">
<path id="Vector" d="M3.3335 9.99967C3.3335 8.23156 4.03588 6.53587 5.28612 5.28563C6.53636 4.03539 8.23205 3.33301 10.0002 3.33301H30.0002C31.7683 3.33301 33.464 4.03539 34.7142 5.28563C35.9644 6.53587 36.6668 8.23156 36.6668 9.99967V29.9997C36.6668 31.7678 35.9644 33.4635 34.7142 34.7137C33.464 35.964 31.7683 36.6663 30.0002 36.6663H10.0002C8.23205 36.6663 6.53636 35.964 5.28612 34.7137C4.03588 33.4635 3.3335 31.7678 3.3335 29.9997V9.99967Z" stroke="#0033C4" stroke-width="3" stroke-linecap="round" stroke-linejoin="round"/>
<path id="Vector_2" d="M14.1667 18.3333C16.4679 18.3333 18.3333 16.4679 18.3333 14.1667C18.3333 11.8655 16.4679 10 14.1667 10C11.8655 10 10 11.8655 10 14.1667C10 16.4679 11.8655 18.3333 14.1667 18.3333Z" stroke="#0033C4" stroke-width="3" stroke-linecap="round" stroke-linejoin="round"/>
<path id="Vector_3" d="M24.21 21.0342L10 36.6659H30.2217C31.931 36.6659 33.5703 35.9868 34.779 34.7782C35.9876 33.5695 36.6667 31.9302 36.6667 30.2209V29.9992C36.6667 29.2225 36.375 28.9242 35.85 28.3492L29.1333 21.0242C28.8203 20.6827 28.4395 20.4102 28.0153 20.2241C27.5911 20.0381 27.1327 19.9424 26.6695 19.9434C26.2062 19.9443 25.7483 20.0418 25.3248 20.2296C24.9013 20.4174 24.5216 20.6914 24.21 21.0342Z" stroke="#0033C4" stroke-width="3" stroke-linecap="round" stroke-linejoin="round"/>
</g>
</g>
</svg>
