<svg width="120" height="120" viewBox="0 0 120 120" fill="none" xmlns="http://www.w3.org/2000/svg">
<g id="Vector">
<path d="M120 60C120 93.1371 93.1371 120 60 120C26.8629 120 0 93.1371 0 60C0 26.8629 26.8629 0 60 0C93.1371 0 120 26.8629 120 60Z" fill="#D9D9D9"/>
<path d="M60.5 70L48 57.5L51.5 53.875L58 60.375V40H63V60.375L69.5 53.875L73 57.5L60.5 70ZM45.5 80C44.125 80 42.9483 79.5108 41.97 78.5325C40.9917 77.5542 40.5017 76.3767 40.5 75V67.5H45.5V75H75.5V67.5H80.5V75C80.5 76.375 80.0108 77.5525 79.0325 78.5325C78.0542 79.5125 76.8767 80.0017 75.5 80H45.5Z" fill="white"/>
</g>
</svg>
