<svg width="26" height="24" viewBox="0 0 26 24" fill="none" xmlns="http://www.w3.org/2000/svg">
<g id="vuesax/bold/info-circle">
<g id="info-circle">
<path id="Vector" d="M13 2C7.03079 2 2.16663 6.49 2.16663 12C2.16663 17.51 7.03079 22 13 22C18.9691 22 23.8333 17.51 23.8333 12C23.8333 6.49 18.9691 2 13 2ZM12.1875 8C12.1875 7.59 12.5558 7.25 13 7.25C13.4441 7.25 13.8125 7.59 13.8125 8V13C13.8125 13.41 13.4441 13.75 13 13.75C12.5558 13.75 12.1875 13.41 12.1875 13V8ZM13.9966 16.38C13.9425 16.51 13.8666 16.61 13.7691 16.71C13.6608 16.8 13.5416 16.87 13.4116 16.92C13.2816 16.97 13.1408 17 13 17C12.8591 17 12.7183 16.97 12.5883 16.92C12.4583 16.87 12.3391 16.8 12.2308 16.71C12.1333 16.61 12.0575 16.51 12.0033 16.38C11.9491 16.26 11.9166 16.13 11.9166 16C11.9166 15.87 11.9491 15.74 12.0033 15.62C12.0575 15.5 12.1333 15.39 12.2308 15.29C12.3391 15.2 12.4583 15.13 12.5883 15.08C12.8483 14.98 13.1516 14.98 13.4116 15.08C13.5416 15.13 13.6608 15.2 13.7691 15.29C13.8666 15.39 13.9425 15.5 13.9966 15.62C14.0508 15.74 14.0833 15.87 14.0833 16C14.0833 16.13 14.0508 16.26 13.9966 16.38Z" fill="#FFBB53"/>
</g>
</g>
</svg>
