<svg width="22" height="16" viewBox="0 0 22 16" fill="none" xmlns="http://www.w3.org/2000/svg">
<path d="M21.1562 8C21.1562 8.32323 21.0278 8.63323 20.7993 8.86179C20.5707 9.09035 20.2607 9.21875 19.9375 9.21875H2.0625C1.73927 9.21875 1.42927 9.09035 1.20071 8.86179C0.972154 8.63323 0.84375 8.32323 0.84375 8C0.84375 7.67677 0.972154 7.36677 1.20071 7.13821C1.42927 6.90965 1.73927 6.78125 2.0625 6.78125H19.9375C20.2607 6.78125 20.5707 6.90965 20.7993 7.13821C21.0278 7.36677 21.1562 7.67677 21.1562 8ZM2.0625 2.71875H19.9375C20.2607 2.71875 20.5707 2.59035 20.7993 2.36179C21.0278 2.13323 21.1562 1.82323 21.1562 1.5C21.1562 1.17677 21.0278 0.866773 20.7993 0.638213C20.5707 0.409653 20.2607 0.28125 19.9375 0.28125H2.0625C1.73927 0.28125 1.42927 0.409653 1.20071 0.638213C0.972154 0.866773 0.84375 1.17677 0.84375 1.5C0.84375 1.82323 0.972154 2.13323 1.20071 2.36179C1.42927 2.59035 1.73927 2.71875 2.0625 2.71875ZM19.9375 13.2812H2.0625C1.73927 13.2812 1.42927 13.4097 1.20071 13.6382C0.972154 13.8668 0.84375 14.1768 0.84375 14.5C0.84375 14.8232 0.972154 15.1332 1.20071 15.3618C1.42927 15.5903 1.73927 15.7188 2.0625 15.7188H19.9375C20.2607 15.7188 20.5707 15.5903 20.7993 15.3618C21.0278 15.1332 21.1562 14.8232 21.1562 14.5C21.1562 14.1768 21.0278 13.8668 20.7993 13.6382C20.5707 13.4097 20.2607 13.2812 19.9375 13.2812Z" fill="#050901"/>
</svg>
