<svg width="22" height="16" viewBox="0 0 22 16" fill="none" xmlns="http://www.w3.org/2000/svg">
<g opacity="0.5">
<path d="M4.43549 4.66667C4.43549 4.29848 4.82745 4 5.31096 4H6.18644C6.66996 4 7.06192 4.29848 7.06192 4.66667C7.06192 5.03486 6.66996 5.33333 6.18644 5.33333H5.31096C4.82745 5.33333 4.43549 5.03486 4.43549 4.66667ZM8.81288 4.66667C8.81288 4.29848 9.20484 4 9.68835 4H17.5677C18.0512 4 18.4431 4.29848 18.4431 4.66667C18.4431 5.03486 18.0512 5.33333 17.5677 5.33333H9.68835C9.20484 5.33333 8.81288 5.03486 8.81288 4.66667ZM4.43549 8C4.43549 7.63181 4.82745 7.33333 5.31096 7.33333H6.18644C6.66996 7.33333 7.06192 7.63181 7.06192 8C7.06192 8.36819 6.66996 8.66667 6.18644 8.66667H5.31096C4.82745 8.66667 4.43549 8.36819 4.43549 8ZM8.81288 8C8.81288 7.63181 9.20484 7.33333 9.68835 7.33333H17.5677C18.0512 7.33333 18.4431 7.63181 18.4431 8C18.4431 8.36819 18.0512 8.66667 17.5677 8.66667H9.68835C9.20484 8.66667 8.81288 8.36819 8.81288 8ZM4.43549 11.3333C4.43549 10.9651 4.82745 10.6667 5.31096 10.6667H6.18644C6.66996 10.6667 7.06192 10.9651 7.06192 11.3333C7.06192 11.7015 6.66996 12 6.18644 12H5.31096C4.82745 12 4.43549 11.7015 4.43549 11.3333ZM8.81288 11.3333C8.81288 10.9651 9.20484 10.6667 9.68835 10.6667H17.5677C18.0512 10.6667 18.4431 10.9651 18.4431 11.3333C18.4431 11.7015 18.0512 12 17.5677 12H9.68835C9.20484 12 8.81288 11.7015 8.81288 11.3333Z" fill="#1C1D22"/>
</g>
</svg>
