<svg width="15" height="19" viewBox="0 0 15 19" fill="none" xmlns="http://www.w3.org/2000/svg">
<g clip-path="url(#clip0_2411_59746)">
<path d="M7.04119 10.6351C8.33785 10.6351 9.38901 9.58395 9.38901 8.28728C9.38901 6.99061 8.33785 5.93945 7.04119 5.93945C5.74452 5.93945 4.69336 6.99061 4.69336 8.28728C4.69336 9.58395 5.74452 10.6351 7.04119 10.6351Z" stroke="#A4A7B0" stroke-width="1.3" stroke-linecap="round" stroke-linejoin="round"/>
<path d="M7.0431 2.02539C5.38261 2.02539 3.79013 2.68502 2.61599 3.85916C1.44185 5.0333 0.782227 6.62577 0.782227 8.28626C0.782227 9.76695 1.09684 10.7358 1.95614 11.808L7.0431 17.6776L12.1301 11.808C12.9894 10.7358 13.304 9.76695 13.304 8.28626C13.304 6.62577 12.6443 5.0333 11.4702 3.85916C10.2961 2.68502 8.70358 2.02539 7.0431 2.02539Z" stroke="#A4A7B0" stroke-width="1.3" stroke-linecap="round" stroke-linejoin="round"/>
</g>
<defs>
<clipPath id="clip0_2411_59746">
<rect width="14.087" height="18" fill="white" transform="translate(0 0.5)"/>
</clipPath>
</defs>
</svg>
