<svg width="17" height="13" viewBox="0 0 17 13" fill="none" xmlns="http://www.w3.org/2000/svg">
<path d="M1.87023 0.669922H15.1202C16.3702 0.669922 17.0002 1.26144 17.0002 2.46454V10.9062C17.0002 12.0993 16.3702 12.7009 15.1202 12.7009H1.87023C0.620234 12.7009 -0.00976562 12.0993 -0.00976562 10.9062V2.46454C-0.00976562 1.26144 0.620234 0.669922 1.87023 0.669922ZM8.49023 9.2921L15.2302 3.74784C15.4702 3.54732 15.6602 3.08614 15.3602 2.67508C15.0702 2.26402 14.5402 2.254 14.1902 2.50464L8.49023 6.37459L2.80023 2.50464C2.45023 2.254 1.92023 2.26402 1.63023 2.67508C1.33023 3.08614 1.52023 3.54732 1.76023 3.74784L8.49023 9.2921Z" fill="#0033C4"/>
</svg>
