<svg xmlns="http://www.w3.org/2000/svg" width="24" height="24" viewBox="0 0 24 24" fill="none">
  <path d="M12.006 15.5C12.9807 15.5 14.0337 15.3387 15.165 15.016C16.2963 14.694 17.8447 14.104 19.81 13.246C19.8813 12.9727 19.931 12.7007 19.959 12.43C19.9863 12.1587 20 11.8737 20 11.575C20 11.3917 19.929 11.2417 19.787 11.125C19.645 11.0083 19.4827 10.975 19.3 11.025C19.0667 11.1083 18.8083 11.196 18.525 11.288C18.2417 11.38 17.8833 11.5173 17.45 11.7C16.3 12.1833 15.3167 12.521 14.5 12.713C13.6833 12.905 12.85 13.0007 12 13C11.1333 13 10.2833 12.9 9.45 12.7C8.61667 12.5 7.6 12.1583 6.4 11.675C5.96667 11.4917 5.63333 11.3583 5.4 11.275L4.7 11.025C4.51667 10.9583 4.354 10.9873 4.212 11.112C4.07 11.2367 3.99933 11.391 4 11.575C4 11.8737 4.01367 12.1617 4.041 12.439C4.06833 12.7163 4.11833 12.9917 4.191 13.265C5.83567 14.027 7.30567 14.59 8.601 14.954C9.89633 15.318 11.0313 15.5 12.006 15.5ZM11.992 19C13.7053 19 15.212 18.591 16.512 17.773C17.812 16.955 18.7653 15.875 19.372 14.533C17.802 15.213 16.4367 15.711 15.276 16.027C14.1147 16.3423 13.0227 16.5 12 16.5C10.9947 16.5 9.87467 16.338 8.64 16.014C7.40533 15.6907 6.06633 15.2053 4.623 14.558C5.213 15.9127 6.15567 16.9917 7.451 17.795C8.74633 18.5983 10.2607 19 11.992 19ZM12 10C11.028 10 10.2017 9.65967 9.521 8.979C8.84033 8.29833 8.5 7.472 8.5 6.5C8.5 5.528 8.84033 4.70167 9.521 4.021C10.2017 3.34033 11.028 3 12 3C12.972 3 13.7983 3.34033 14.479 4.021C15.1597 4.70167 15.5 5.528 15.5 6.5C15.5 7.472 15.1597 8.29833 14.479 8.979C13.7983 9.65967 12.972 10 12 10ZM12.004 9C12.6927 9 13.2807 8.755 13.768 8.265C14.256 7.77433 14.5 7.18467 14.5 6.496C14.5 5.80733 14.255 5.21933 13.765 4.732C13.2743 4.244 12.6847 4 11.996 4C11.3073 4 10.7193 4.245 10.232 4.735C9.744 5.22567 9.5 5.81533 9.5 6.504C9.5 7.19267 9.745 7.78067 10.235 8.268C10.7257 8.756 11.3153 9 12.004 9ZM11.998 20C9.37 20 7.21333 19.221 5.528 17.663C3.84267 16.1057 3 14.0763 3 11.575C3 11.0417 3.208 10.616 3.624 10.298C4.04 9.98 4.496 9.90333 4.992 10.068C5.248 10.148 5.51567 10.241 5.795 10.347C6.075 10.4523 6.40667 10.586 6.79 10.748C7.94667 11.22 8.902 11.5467 9.656 11.728C10.4107 11.9093 11.192 12 12 12C12.7807 12 13.5433 11.9133 14.288 11.74C15.0333 11.5667 15.959 11.2507 17.065 10.792C17.523 10.6087 17.8977 10.462 18.189 10.352C18.481 10.242 18.7557 10.1453 19.013 10.062C19.5097 9.90533 19.965 9.989 20.379 10.313C20.793 10.6377 21 11.0583 21 11.575C21 12.7637 20.764 13.868 20.292 14.888C19.8207 15.908 19.1797 16.798 18.369 17.558C17.559 18.318 16.6067 18.915 15.512 19.349C14.4167 19.783 13.2453 20 11.998 20Z" fill="#3F4247"/>
</svg>