<svg xmlns="http://www.w3.org/2000/svg" width="52" height="51" viewBox="0 0 52 51" fill="none">
  <path d="M26.0075 0C29.935 0.00222554 33.811 0.876575 37.3446 2.55744C40.8782 4.2383 43.9776 6.68201 46.4103 9.7052C48.843 12.7284 50.5458 16.2525 51.3908 20.0132C52.2359 23.7738 52.2013 27.6733 51.2897 31.4189C50.378 35.1646 48.613 38.6591 46.127 41.6404C43.641 44.6216 40.4987 47.0121 36.9358 48.6324C33.3729 50.2527 29.482 51.0609 25.5551 50.9961C21.6281 50.9313 17.7672 49.9954 14.2619 48.2585L13.8685 48.0513L2.01883 50.9519C1.79078 51.0081 1.55301 51.0152 1.32191 50.9725C1.09082 50.9299 0.871906 50.8386 0.680286 50.705C0.488666 50.5713 0.3289 50.3985 0.212013 50.1985C0.0951252 49.9984 0.0238991 49.7759 0.0032507 49.5462V49.2848L0.0487644 49.0203L3.00712 37.4051L2.80231 37.0226C1.31832 34.1497 0.402757 31.0273 0.10403 27.8203L0.0227565 26.6027L0 25.4999C0 18.7369 2.74007 12.2509 7.61743 7.46873C12.4948 2.68658 19.1099 0 26.0075 0ZM26.0075 3.18748C22.0364 3.18685 18.1342 4.20513 14.6887 6.14113C11.2433 8.07713 8.37451 10.8635 6.3675 14.2232C4.36048 17.583 3.28511 21.3992 3.24823 25.2926C3.21135 29.1861 4.21426 33.0213 6.15728 36.417C6.30813 36.681 6.37917 36.9818 6.36209 37.284L6.31658 37.5836L3.85887 47.213L13.6897 44.8096C13.8895 44.7611 14.0969 44.7503 14.3009 44.7777L14.5967 44.8447L14.8796 44.969C17.9138 46.6345 21.297 47.596 24.7693 47.7798C28.2416 47.9636 31.7107 47.3647 34.9101 46.0291C38.1096 44.6935 40.9543 42.6568 43.2259 40.0753C45.4975 37.4938 47.1354 34.4363 48.014 31.1374C48.8926 27.8386 48.9885 24.3861 48.2943 21.0453C47.6 17.7045 46.1342 14.564 44.0092 11.8652C41.8843 9.16636 39.1568 6.98089 36.0362 5.4766C32.9156 3.97232 29.4849 3.18923 26.0075 3.18748Z" fill="#0033C4"/>
</svg>