<svg width="33" height="32" viewBox="0 0 33 32" fill="none" xmlns="http://www.w3.org/2000/svg">
<path d="M16.5 26C13.7222 26 11.3611 25.0278 9.41667 23.0833C7.47222 21.1389 6.5 18.7778 6.5 16C6.5 13.2222 7.47222 10.8611 9.41667 8.91667C11.3611 6.97222 13.7222 6 16.5 6C16.7593 6 17.0141 6.00926 17.2644 6.02778C17.5148 6.0463 17.76 6.07407 18 6.11111C17.2407 6.64815 16.6341 7.34741 16.18 8.20889C15.7259 9.07037 15.4993 10.0007 15.5 11C15.5 12.6667 16.0833 14.0833 17.25 15.25C18.4167 16.4167 19.8333 17 21.5 17C22.5185 17 23.4537 16.773 24.3056 16.3189C25.1574 15.8648 25.8519 15.2585 26.3889 14.5C26.4259 14.7407 26.4537 14.9859 26.4722 15.2356C26.4907 15.4852 26.5 15.74 26.5 16C26.5 18.7778 25.5278 21.1389 23.5833 23.0833C21.6389 25.0278 19.2778 26 16.5 26ZM16.5 23.7778C18.1296 23.7778 19.5926 23.3285 20.8889 22.43C22.1852 21.5315 23.1296 20.3604 23.7222 18.9167C23.3519 19.0093 22.9815 19.0833 22.6111 19.1389C22.2407 19.1944 21.8704 19.2222 21.5 19.2222C19.2222 19.2222 17.2822 18.4211 15.68 16.8189C14.0778 15.2167 13.277 13.277 13.2778 11C13.2778 10.6296 13.3056 10.2593 13.3611 9.88889C13.4167 9.51852 13.4907 9.14815 13.5833 8.77778C12.1389 9.37037 10.9674 10.3148 10.0689 11.6111C9.17037 12.9074 8.72148 14.3704 8.72222 16C8.72222 18.1481 9.48148 19.9815 11 21.5C12.5185 23.0185 14.3519 23.7778 16.5 23.7778Z" fill="#5A5D61"/>
</svg>
