<svg width="50" height="50" viewBox="0 0 50 50" fill="none" xmlns="http://www.w3.org/2000/svg">
<rect width="50" height="50" rx="8" fill="#00ACC4"/>
<path fill-rule="evenodd" clip-rule="evenodd" d="M20 20C20 18.9391 20.4214 17.9217 21.1716 17.1716C21.9217 16.4214 22.9391 16 24 16C25.0609 16 26.0783 16.4214 26.8284 17.1716C27.5786 17.9217 28 18.9391 28 20C28 21.0609 27.5786 22.0783 26.8284 22.8284C26.0783 23.5786 25.0609 24 24 24C22.9391 24 21.9217 23.5786 21.1716 22.8284C20.4214 22.0783 20 21.0609 20 20ZM20 26C18.6739 26 17.4021 26.5268 16.4645 27.4645C15.5268 28.4021 15 29.6739 15 31C15 31.7956 15.3161 32.5587 15.8787 33.1213C16.4413 33.6839 17.2044 34 18 34H30C30.7956 34 31.5587 33.6839 32.1213 33.1213C32.6839 32.5587 33 31.7956 33 31C33 29.6739 32.4732 28.4021 31.5355 27.4645C30.5979 26.5268 29.3261 26 28 26H20Z" fill="white"/>
</svg>
