<svg width="50" height="50" viewBox="0 0 50 50" fill="none" xmlns="http://www.w3.org/2000/svg">
<rect width="50" height="50" rx="8" fill="#3F93E2"/>
<path d="M28.079 14.5C28.2378 14.5 28.3925 14.5504 28.5208 14.6439C28.6491 14.7375 28.7444 14.8693 28.793 15.0205L29.618 17.584C29.9645 17.7535 30.296 17.944 30.6125 18.1585L33.2465 17.5915C33.4018 17.5583 33.5636 17.5753 33.7087 17.64C33.8537 17.7047 33.9744 17.8138 34.0535 17.9515L36.1325 21.55C36.2119 21.6876 36.2455 21.8469 36.2285 22.0049C36.2116 22.1629 36.1448 22.3114 36.038 22.429L34.2305 24.424C34.2568 24.8065 34.2568 25.1905 34.2305 25.573L36.038 27.571C36.1448 27.6886 36.2116 27.8371 36.2285 27.9951C36.2455 28.1531 36.2119 28.3124 36.1325 28.45L34.0535 32.05C33.9742 32.1874 33.8534 32.2962 33.7084 32.3606C33.5634 32.425 33.4017 32.4418 33.2465 32.4085L30.6125 31.8415C30.2975 32.0545 29.9645 32.2465 29.6195 32.416L28.793 34.9795C28.7444 35.1307 28.6491 35.2625 28.5208 35.3561C28.3925 35.4496 28.2378 35.5 28.079 35.5H23.921C23.7622 35.5 23.6075 35.4496 23.4792 35.3561C23.3509 35.2625 23.2556 35.1307 23.207 34.9795L22.3835 32.4175C22.038 32.2485 21.7046 32.0555 21.386 31.84L18.7535 32.4085C18.5982 32.4417 18.4364 32.4247 18.2914 32.36C18.1463 32.2953 18.0256 32.1862 17.9465 32.0485L15.8675 28.45C15.7881 28.3124 15.7545 28.1531 15.7715 27.9951C15.7885 27.8371 15.8552 27.6886 15.962 27.571L17.7695 25.573C17.7433 25.1914 17.7433 24.8086 17.7695 24.427L15.962 22.429C15.8552 22.3114 15.7885 22.1629 15.7715 22.0049C15.7545 21.8469 15.7881 21.6876 15.8675 21.55L17.9465 17.95C18.0258 17.8126 18.1466 17.7038 18.2917 17.6394C18.4367 17.575 18.5984 17.5582 18.7535 17.5915L21.386 18.16C21.704 17.9455 22.037 17.752 22.3835 17.5825L23.2085 15.0205C23.2569 14.8698 23.3518 14.7383 23.4795 14.6448C23.6072 14.5513 23.7612 14.5006 23.9195 14.5H28.0775H28.079ZM27.53 16H24.47L23.618 18.6505L23.0435 18.931C22.7611 19.0692 22.4884 19.2266 22.2275 19.402L21.6965 19.762L18.9725 19.174L17.4425 21.826L19.31 23.893L19.265 24.529C19.2434 24.8426 19.2434 25.1574 19.265 25.471L19.31 26.107L17.4395 28.174L18.971 30.826L21.695 30.2395L22.226 30.598C22.4869 30.7734 22.7596 30.9308 23.042 31.069L23.6165 31.3495L24.47 34H27.533L28.388 31.348L28.961 31.069C29.2431 30.9311 29.5153 30.7738 29.7755 30.598L30.305 30.2395L33.0305 30.826L34.5605 28.174L32.6915 26.107L32.7365 25.471C32.7581 25.1569 32.7581 24.8416 32.7365 24.5275L32.6915 23.8915L34.562 21.826L33.0305 19.174L30.305 19.759L29.7755 19.402C29.5153 19.2262 29.2431 19.0689 28.961 18.931L28.388 18.652L27.5315 16H27.53ZM26 20.5C27.1935 20.5 28.3381 20.9741 29.182 21.818C30.0259 22.6619 30.5 23.8065 30.5 25C30.5 26.1935 30.0259 27.3381 29.182 28.182C28.3381 29.0259 27.1935 29.5 26 29.5C24.8065 29.5 23.6619 29.0259 22.818 28.182C21.9741 27.3381 21.5 26.1935 21.5 25C21.5 23.8065 21.9741 22.6619 22.818 21.818C23.6619 20.9741 24.8065 20.5 26 20.5ZM26 22C25.2044 22 24.4413 22.3161 23.8787 22.8787C23.3161 23.4413 23 24.2044 23 25C23 25.7956 23.3161 26.5587 23.8787 27.1213C24.4413 27.6839 25.2044 28 26 28C26.7957 28 27.5587 27.6839 28.1213 27.1213C28.6839 26.5587 29 25.7956 29 25C29 24.2044 28.6839 23.4413 28.1213 22.8787C27.5587 22.3161 26.7957 22 26 22Z" fill="white"/>
</svg>
