<svg width="50" height="50" viewBox="0 0 50 50" fill="none" xmlns="http://www.w3.org/2000/svg">
<rect width="50" height="50" rx="8" fill="#FA6A41"/>
<path d="M26.817 34.835C26.7114 34.8382 26.6057 34.8398 26.5 34.84C25.427 34.84 24.126 34.22 23.08 33.082C21.9321 31.8325 21.2966 30.1967 21.3 28.5C21.3 27.082 21.818 25.935 22.501 25.094C22.558 27.58 24.86 30.7 29.5 30.7C31.178 30.7 32.217 30.248 32.78 30.003C32.988 29.913 33.13 29.85 33.216 29.85C33.4 29.85 33.5 29.95 33.5 30.15C33.5 30.337 33.399 30.471 33.074 30.902L33.001 31C31.4945 33.0096 29.2868 34.3787 26.817 34.835ZM23.702 34.916C18.792 34.28 15 30.084 15 25C15 23.72 15.74 22.671 16.897 21.92C18.058 21.164 19.587 20.75 21 20.75C23.276 20.75 24.635 21.515 25.428 22.397C25.478 22.453 25.526 22.509 25.572 22.566C25.3845 22.5221 25.1926 22.4999 25 22.5H24.996C24.5764 22.5002 24.1636 22.6065 23.796 22.809C23.7163 22.8458 23.6376 22.8848 23.56 22.926C22.9976 23.2323 22.4878 23.6266 22.05 24.094C20.9193 25.2814 20.2921 26.8604 20.3 28.5C20.3 30.637 21.155 32.465 22.344 33.758C22.758 34.208 23.218 34.598 23.702 34.916ZM26.852 26.597C27.118 26.317 27.5 25.913 27.5 25.001C27.5 24.141 27.162 22.83 26.172 21.729C25.165 20.61 23.524 19.75 21 19.75C19.413 19.75 17.692 20.21 16.353 21.08C16.0742 21.2607 15.8101 21.463 15.563 21.685C16.2499 19.7305 17.5268 18.0376 19.2172 16.8401C20.9077 15.6426 22.9284 14.9996 25 15C30.523 15 35 19 35 23.5C35 26.3 32.8 28.35 30 28.35C28 28.35 26.6 27.7 26.6 27C26.6 26.86 26.71 26.746 26.852 26.596" fill="white"/>
</svg>
