<svg width="50" height="50" viewBox="0 0 50 50" fill="none" xmlns="http://www.w3.org/2000/svg">
<rect width="50" height="50" rx="8" fill="#315EE7"/>
<path d="M21.8527 15.8047C20.595 15.8043 19.3576 16.1212 18.255 16.7261C17.1524 17.331 16.2202 18.2043 15.5447 19.2652C14.8693 20.326 14.4724 21.5401 14.3908 22.7951C14.3092 24.0501 14.5455 25.3054 15.0779 26.4448C14.827 27.4832 14.6007 28.5274 14.3991 29.5765C14.3684 29.7348 14.3768 29.8982 14.4234 30.0525C14.47 30.2068 14.5535 30.3475 14.6666 30.4623C14.7798 30.5771 14.9192 30.6626 15.0728 30.7115C15.2264 30.7604 15.3897 30.7711 15.5484 30.7427C16.1693 30.6331 17.5199 30.3839 18.7738 30.0948C19.7901 30.5531 20.896 30.7783 22.0106 30.7539C23.1252 30.7294 24.2202 30.456 25.2155 29.9536C26.2107 29.4512 27.081 28.7326 27.7626 27.8503C28.4442 26.9681 28.9198 25.9445 29.1546 24.8547C29.3894 23.7648 29.3775 22.6363 29.1197 21.5516C28.8619 20.467 28.3648 19.4537 27.6647 18.5861C26.9646 17.7184 26.0794 17.0183 25.0737 16.537C24.0681 16.0558 22.9675 15.8056 21.8527 15.8047ZM21.8148 31.7524C23.1958 33.0364 25.0125 33.7488 26.8981 33.7459C27.9595 33.7472 29.0088 33.5219 29.9761 33.085C31.0157 33.3282 32.1549 33.5714 32.8795 33.723C33.0835 33.7658 33.2951 33.7565 33.4945 33.6959C33.694 33.6353 33.8749 33.5254 34.0207 33.3764C34.1664 33.2274 34.2722 33.044 34.3284 32.8433C34.3845 32.6425 34.3891 32.4309 34.3417 32.2279C34.1803 31.5272 33.9251 30.4387 33.6729 29.434C34.1159 28.4851 34.3547 27.4537 34.3738 26.4066C34.3928 25.3595 34.1918 24.3201 33.7836 23.3557C33.3754 22.3913 32.7692 21.5233 32.0043 20.8081C31.2394 20.0928 30.3328 19.5462 29.3431 19.2035C29.6968 19.8463 29.9649 20.5326 30.1405 21.2449C30.9809 21.7866 31.672 22.5305 32.1503 23.4085C32.6287 24.2865 32.8791 25.2705 32.8785 26.2704C32.8803 27.223 32.653 28.1621 32.2157 29.0084L32.0861 29.2606L32.1559 29.5357C32.3832 30.4278 32.6214 31.4295 32.7958 32.177C31.883 31.9858 30.9725 31.7831 30.0648 31.569L29.8016 31.5072L29.5594 31.6278C28.7581 32.0265 27.855 32.2508 26.8981 32.2508C25.8795 32.2527 24.8774 31.9932 23.9877 31.4972C23.2774 31.6757 22.5471 31.7614 21.8148 31.7524Z" fill="white"/>
</svg>
