<svg width="50" height="50" viewBox="0 0 50 50" fill="none" xmlns="http://www.w3.org/2000/svg">
<rect width="50" height="50" rx="8" fill="#FABC02"/>
<path d="M14 35V17C14 16.45 14.196 15.9793 14.588 15.588C14.98 15.1967 15.4507 15.0007 16 15H32C32.55 15 33.021 15.196 33.413 15.588C33.805 15.98 34.0007 16.4507 34 17V29C34 29.55 33.8043 30.021 33.413 30.413C33.0217 30.805 32.5507 31.0007 32 31H18L14 35ZM21.075 27.25L24 25.475L26.925 27.25L26.15 23.925L28.75 21.675L25.325 21.4L24 18.25L22.675 21.4L19.25 21.675L21.85 23.925L21.075 27.25Z" fill="white"/>
</svg>
