<svg width="50" height="50" viewBox="0 0 50 50" fill="none" xmlns="http://www.w3.org/2000/svg">
<rect width="50" height="50" rx="8" fill="#0033C4"/>
<path d="M25.5 22.75C25.5 22.5511 25.421 22.3603 25.2803 22.2197C25.1397 22.079 24.9489 22 24.75 22H18.75C18.5511 22 18.3603 22.079 18.2197 22.2197C18.079 22.3603 18 22.5511 18 22.75C18 22.9489 18.079 23.1397 18.2197 23.2803C18.3603 23.421 18.5511 23.5 18.75 23.5H24.75C24.9489 23.5 25.1397 23.421 25.2803 23.2803C25.421 23.1397 25.5 22.9489 25.5 22.75ZM24.5 25.75C24.5 25.5511 24.421 25.3603 24.2803 25.2197C24.1397 25.079 23.9489 25 23.75 25H18.75C18.5511 25 18.3603 25.079 18.2197 25.2197C18.079 25.3603 18 25.5511 18 25.75C18 25.9489 18.079 26.1397 18.2197 26.2803C18.3603 26.421 18.5511 26.5 18.75 26.5H23.75C23.9489 26.5 24.1397 26.421 24.2803 26.2803C24.421 26.1397 24.5 25.9489 24.5 25.75ZM24.75 28C24.9489 28 25.1397 28.079 25.2803 28.2197C25.421 28.3603 25.5 28.5511 25.5 28.75C25.5 28.9489 25.421 29.1397 25.2803 29.2803C25.1397 29.421 24.9489 29.5 24.75 29.5H18.75C18.5511 29.5 18.3603 29.421 18.2197 29.2803C18.079 29.1397 18 28.9489 18 28.75C18 28.5511 18.079 28.3603 18.2197 28.2197C18.3603 28.079 18.5511 28 18.75 28H24.75Z" fill="white"/>
<path fill-rule="evenodd" clip-rule="evenodd" d="M18 34.7538H31C31.7293 34.7538 32.4288 34.4641 32.9445 33.9483C33.4603 33.4326 33.75 32.7331 33.75 32.0038V26.5038C33.75 26.3049 33.671 26.1141 33.5303 25.9735C33.3897 25.8328 33.1989 25.7538 33 25.7538H29.75V17.9468C29.75 16.5238 28.141 15.6958 26.983 16.5228L26.808 16.6478C26.4248 16.9198 25.9663 17.0656 25.4964 17.0649C25.0264 17.0642 24.5684 16.917 24.186 16.6438C23.5476 16.1894 22.7835 15.9453 22 15.9453C21.2165 15.9453 20.4524 16.1894 19.814 16.6438C19.4316 16.917 18.9736 17.0642 18.5036 17.0649C18.0337 17.0656 17.5752 16.9198 17.192 16.6478L17.017 16.5228C15.859 15.6958 14.25 16.5228 14.25 17.9468V31.0038C14.25 31.9983 14.6451 32.9522 15.3483 33.6554C16.0516 34.3587 17.0054 34.7538 18 34.7538ZM20.686 17.8638C21.0699 17.5912 21.5291 17.4448 22 17.4448C22.4709 17.4448 22.9301 17.5912 23.314 17.8638C23.9507 18.3189 24.7136 18.564 25.4962 18.5649C26.2788 18.5658 27.0423 18.3224 27.68 17.8688L27.855 17.7438C27.8923 17.7172 27.9363 17.7014 27.982 17.6981C28.0277 17.6948 28.0735 17.7041 28.1143 17.7251C28.1551 17.746 28.1893 17.7778 28.2132 17.8169C28.2372 17.856 28.2499 17.9009 28.25 17.9468V32.0038C28.25 32.4538 28.358 32.8788 28.55 33.2538H18C17.4033 33.2538 16.831 33.0167 16.409 32.5948C15.9871 32.1728 15.75 31.6005 15.75 31.0038V17.9468C15.7501 17.9009 15.7628 17.856 15.7868 17.8169C15.8107 17.7778 15.8449 17.746 15.8857 17.7251C15.9265 17.7041 15.9723 17.6948 16.018 17.6981C16.0637 17.7014 16.1077 17.7172 16.145 17.7438L16.32 17.8688C16.9577 18.3224 17.7212 18.5658 18.5038 18.5649C19.2864 18.564 20.0493 18.3189 20.686 17.8638ZM29.75 32.0038V27.2538H32.25V32.0038C32.25 32.3353 32.1183 32.6532 31.8839 32.8877C31.6495 33.1221 31.3315 33.2538 31 33.2538C30.6685 33.2538 30.3505 33.1221 30.1161 32.8877C29.8817 32.6532 29.75 32.3353 29.75 32.0038Z" fill="white"/>
</svg>
