<svg width="50" height="50" viewBox="0 0 50 50" fill="none" xmlns="http://www.w3.org/2000/svg">
<rect width="50" height="50" rx="8" fill="#A785EF"/>
<path d="M18.7 17.7969C17.8248 17.7969 16.9854 18.1446 16.3666 18.7634C15.7477 19.3823 15.4 20.2217 15.4 21.0969V22.5969H34.6V21.0969C34.6 20.2217 34.2523 19.3823 33.6335 18.7634C33.0146 18.1446 32.1752 17.7969 31.3 17.7969H18.7ZM34.6 23.7969H15.4V28.8969C15.4 29.7721 15.7477 30.6115 16.3666 31.2303C16.9854 31.8492 17.8248 32.1969 18.7 32.1969H31.3C32.1752 32.1969 33.0146 31.8492 33.6335 31.2303C34.2523 30.6115 34.6 29.7721 34.6 28.8969V23.7969ZM29.2 28.5969H31.6C31.7592 28.5969 31.9118 28.6601 32.0243 28.7726C32.1368 28.8851 32.2 29.0377 32.2 29.1969C32.2 29.356 32.1368 29.5086 32.0243 29.6211C31.9118 29.7337 31.7592 29.7969 31.6 29.7969H29.2C29.0409 29.7969 28.8883 29.7337 28.7758 29.6211C28.6632 29.5086 28.6 29.356 28.6 29.1969C28.6 29.0377 28.6632 28.8851 28.7758 28.7726C28.8883 28.6601 29.0409 28.5969 29.2 28.5969Z" fill="white"/>
</svg>
