<svg width="35" height="34" viewBox="0 0 35 34" fill="none" xmlns="http://www.w3.org/2000/svg">
<g id="vuesax/bold/close-circle">
<g id="vuesax/bold/close-circle_2">
<path id="Vector" d="M17.2984 0C7.95102 0 0.333984 7.61696 0.333984 16.9643C0.333984 26.3116 7.95102 33.9285 17.2984 33.9285C26.6458 33.9285 34.2629 26.3116 34.2629 16.9643C34.2629 7.61696 26.6458 0 17.2984 0ZM22.9985 20.866C23.4905 21.358 23.4905 22.1723 22.9985 22.6643C22.744 22.9187 22.4217 23.0375 22.0994 23.0375C21.777 23.0375 21.4547 22.9187 21.2003 22.6643L17.2984 18.7625L13.3966 22.6643C13.1421 22.9187 12.8198 23.0375 12.4975 23.0375C12.1752 23.0375 11.8528 22.9187 11.5984 22.6643C11.1064 22.1723 11.1064 21.358 11.5984 20.866L15.5002 16.9643L11.5984 13.0625C11.1064 12.5705 11.1064 11.7562 11.5984 11.2643C12.0903 10.7723 12.9046 10.7723 13.3966 11.2643L17.2984 15.1661L21.2003 11.2643C21.6922 10.7723 22.5065 10.7723 22.9985 11.2643C23.4905 11.7562 23.4905 12.5705 22.9985 13.0625L19.0967 16.9643L22.9985 20.866Z" fill="#E15B0F"/>
</g>
</g>
</svg>
