<svg width="20" height="20" viewBox="0 0 20 20" fill="none" xmlns="http://www.w3.org/2000/svg">
<path d="M15.0625 1.29492L18.54 4.91992V18.7049H5.54938V18.7499H18.5844V4.96555L15.0625 1.29492Z" fill="#909090"/>
<path d="M15.0194 1.25H5.505V18.705H18.54V4.92063L15.0194 1.25Z" fill="#F4F4F4"/>
<path d="M5.40937 2.1875H1.41562V6.45437H13.9781V2.1875H5.40937Z" fill="#7A7B7C"/>
<path d="M14.045 6.38133H1.49689V2.11133H14.045V6.38133Z" fill="#DD2025"/>
<path d="M5.65751 2.83368H4.84064V5.83368H5.48314V4.82181L5.62501 4.82993C5.76287 4.82756 5.89943 4.80287 6.02939 4.75681C6.14333 4.71762 6.24814 4.65575 6.33751 4.57493C6.42845 4.49794 6.50015 4.40078 6.54689 4.29118C6.60957 4.10899 6.63196 3.91537 6.61251 3.72368C6.60861 3.58675 6.5846 3.45113 6.54126 3.32118C6.50181 3.22737 6.44326 3.14281 6.36933 3.07287C6.29541 3.00292 6.20773 2.94914 6.11189 2.91493C6.02902 2.88493 5.9434 2.86316 5.85626 2.84993C5.79028 2.83975 5.72365 2.83432 5.65689 2.83368M5.53876 4.26743H5.48314V3.34243H5.60376C5.657 3.33859 5.71042 3.34677 5.76007 3.36635C5.80973 3.38593 5.85435 3.41641 5.89064 3.45556C5.96584 3.55619 6.00601 3.67868 6.00501 3.80431C6.00501 3.95806 6.00501 4.09743 5.86626 4.19556C5.7663 4.25053 5.65253 4.27591 5.53876 4.26743ZM7.83314 2.82556C7.76376 2.82556 7.69626 2.83056 7.64876 2.83243L7.50001 2.83618H7.01251V5.83618H7.58626C7.80553 5.84219 8.02384 5.80503 8.22876 5.72681C8.39371 5.66138 8.53977 5.55592 8.65376 5.41993C8.76461 5.28272 8.84417 5.12296 8.88689 4.95181C8.93599 4.75798 8.95994 4.55863 8.95814 4.35868C8.97026 4.12253 8.95199 3.8858 8.90376 3.65431C8.858 3.48391 8.7723 3.32686 8.65376 3.19618C8.56076 3.09066 8.44691 3.00554 8.31939 2.94618C8.20987 2.89551 8.09468 2.85815 7.97626 2.83493C7.92917 2.82715 7.88148 2.8236 7.83376 2.82431M7.72001 5.28493H7.65751V3.36993H7.66564C7.79449 3.35511 7.92486 3.37836 8.04064 3.43681C8.12543 3.50451 8.19452 3.58981 8.24314 3.68681C8.29561 3.78889 8.32586 3.90094 8.33189 4.01556C8.33751 4.15306 8.33189 4.26556 8.33189 4.35868C8.33443 4.46596 8.32753 4.57324 8.31126 4.67931C8.292 4.7882 8.25639 4.89356 8.20564 4.99181C8.14819 5.08315 8.07058 5.16012 7.97876 5.21681C7.90165 5.26668 7.81034 5.28995 7.71876 5.28306M10.8938 2.83618H9.37501V5.83618H10.0175V4.64618H10.83V4.08868H10.0175V3.39368H10.8925V2.83618" fill="#464648"/>
<path d="M13.6131 12.6594C13.6131 12.6594 15.6056 12.2982 15.6056 12.9788C15.6056 13.6594 14.3712 13.3826 13.6131 12.6594ZM12.14 12.7113C11.8234 12.7813 11.5149 12.8837 11.2194 13.0169L11.4694 12.4544C11.7194 11.8919 11.9787 11.1251 11.9787 11.1251C12.2771 11.6272 12.6242 12.0986 13.015 12.5326C12.7203 12.5765 12.4281 12.6366 12.14 12.7126V12.7113ZM11.3512 8.64882C11.3512 8.05569 11.5431 7.89382 11.6925 7.89382C11.8419 7.89382 12.01 7.96569 12.0156 8.48069C11.9669 8.99854 11.8585 9.50902 11.6925 10.0019C11.4651 9.58809 11.3474 9.12291 11.3506 8.65069L11.3512 8.64882ZM8.44562 15.2213C7.83437 14.8557 9.72749 13.7301 10.0706 13.6938C10.0687 13.6944 9.08562 15.6038 8.44562 15.2213ZM16.1875 13.0594C16.1812 12.9969 16.125 12.3051 14.8937 12.3344C14.3805 12.3262 13.8676 12.3623 13.3606 12.4426C12.8695 11.9478 12.4466 11.3898 12.1031 10.7832C12.3195 10.1578 12.4505 9.50611 12.4925 8.84569C12.4744 8.09569 12.295 7.66569 11.72 7.67194C11.145 7.67819 11.0612 8.18132 11.1369 8.93007C11.2109 9.43322 11.3507 9.92449 11.5525 10.3913C11.5525 10.3913 11.2869 11.2182 10.9356 12.0407C10.5844 12.8632 10.3444 13.2944 10.3444 13.2944C9.73357 13.4933 9.15857 13.7887 8.64124 14.1694C8.12624 14.6488 7.91687 15.0169 8.18812 15.3851C8.42187 15.7026 9.23999 15.7744 9.97124 14.8163C10.3598 14.3214 10.7147 13.8011 11.0337 13.2588C11.0337 13.2588 12.1487 12.9532 12.4956 12.8694C12.8425 12.7857 13.2619 12.7194 13.2619 12.7194C13.2619 12.7194 14.28 13.7438 15.2619 13.7076C16.2437 13.6713 16.1962 13.1207 16.19 13.0607" fill="#DD2025"/>
<path d="M14.9713 1.29883V4.96945H18.4919L14.9713 1.29883Z" fill="#909090"/>
<path d="M15.0194 1.25V4.92063H18.54L15.0194 1.25Z" fill="#F4F4F4"/>
<path d="M5.60939 2.78485H4.79251V5.78485H5.43751V4.7736L5.58001 4.78173C5.71787 4.77936 5.85443 4.75466 5.98439 4.7086C6.09832 4.6694 6.20313 4.60753 6.29251 4.52673C6.38277 4.44954 6.45381 4.35239 6.50001 4.24298C6.56269 4.06079 6.58509 3.86717 6.56564 3.67548C6.56173 3.53855 6.53773 3.40293 6.49439 3.27298C6.45493 3.17917 6.39638 3.0946 6.32246 3.02466C6.24853 2.95472 6.16086 2.90093 6.06501 2.86673C5.98176 2.83644 5.89572 2.81445 5.80814 2.8011C5.74215 2.79092 5.67552 2.78549 5.60876 2.78485M5.49064 4.2186H5.43501V3.2936H5.55626C5.6095 3.28977 5.66292 3.29794 5.71257 3.31752C5.76223 3.3371 5.80685 3.36759 5.84314 3.40673C5.91833 3.50736 5.95851 3.62986 5.95751 3.75548C5.95751 3.90923 5.95751 4.0486 5.81876 4.14673C5.7188 4.20171 5.60503 4.22646 5.49126 4.21798M7.78501 2.77673C7.71564 2.77673 7.64814 2.78173 7.60064 2.7836L7.45376 2.78735H6.96626V5.78735H7.54001C7.75928 5.79336 7.97758 5.7562 8.18251 5.67798C8.34746 5.61256 8.49352 5.50709 8.60751 5.3711C8.71836 5.23389 8.79792 5.07413 8.84064 4.90298C8.88974 4.70915 8.91368 4.5098 8.91189 4.30985C8.92401 4.0737 8.90573 3.83697 8.85751 3.60548C8.81175 3.43508 8.72605 3.27804 8.60751 3.14735C8.51451 3.04183 8.40066 2.95671 8.27314 2.89735C8.16362 2.84668 8.04842 2.80933 7.93001 2.7861C7.88292 2.77833 7.83523 2.77477 7.78751 2.77548M7.67376 5.2361H7.61126V3.3211H7.61939C7.74823 3.30628 7.8786 3.32953 7.99439 3.38798C8.07918 3.45568 8.14826 3.54098 8.19689 3.63798C8.24936 3.74006 8.27961 3.85211 8.28564 3.96673C8.29126 4.10423 8.28564 4.21673 8.28564 4.30985C8.28818 4.41713 8.28128 4.52442 8.26501 4.63048C8.24575 4.73937 8.21014 4.84473 8.15939 4.94298C8.10194 5.03433 8.02433 5.1113 7.93251 5.16798C7.8554 5.21785 7.76409 5.24112 7.67251 5.23423M10.8456 2.78735H9.32689V5.78735H9.96939V4.59735H10.7819V4.03985H9.96939V3.34485H10.8444V2.78735" fill="white"/>
</svg>
