<svg width="16" height="16" viewBox="0 0 16 16" fill="none" xmlns="http://www.w3.org/2000/svg">
<g clip-path="url(#clip0_17079_94472)">
<path d="M11.3359 2.0001C11.5057 1.79946 11.7157 1.63614 11.9526 1.52055C12.1895 1.40497 12.448 1.33966 12.7117 1.32878C12.9754 1.31789 13.2385 1.36169 13.4842 1.45736C13.7299 1.55303 13.9528 1.69848 14.1388 1.88445C14.3248 2.07041 14.4697 2.29281 14.5643 2.53746C14.6589 2.78211 14.7012 3.04366 14.6883 3.30542C14.6755 3.56718 14.6079 3.82342 14.4899 4.05781C14.3718 4.2922 14.2059 4.49959 14.0026 4.66677L5.0026 13.6668L1.33594 14.6668L2.33594 11.0001L11.3359 2.0001Z" stroke="#60A5FA" stroke-width="2" stroke-linecap="round" stroke-linejoin="round"/>
</g>
<defs>
<clipPath id="clip0_17079_94472">
<rect width="16" height="16" fill="white"/>
</clipPath>
</defs>
</svg>
