<svg width="16" height="17" viewBox="0 0 16 17" fill="none" xmlns="http://www.w3.org/2000/svg">
<g id="carbon:phone-filled">
<path id="Vector" d="M10.1649 11.24L11.2849 10.12C11.4358 9.97104 11.6267 9.86906 11.8343 9.82646C12.042 9.78385 12.2576 9.80246 12.4549 9.88002L13.8199 10.425C14.0193 10.506 14.1903 10.6441 14.3113 10.8221C14.4324 11 14.498 11.2098 14.4999 11.425V13.925C14.4988 14.0714 14.468 14.2161 14.4095 14.3502C14.3509 14.4844 14.2659 14.6054 14.1594 14.7058C14.0528 14.8062 13.9271 14.8841 13.7897 14.9346C13.6523 14.9852 13.5062 15.0074 13.3599 15C3.79494 14.405 1.86494 6.30502 1.49994 3.20502C1.483 3.05279 1.49848 2.89869 1.54537 2.75288C1.59226 2.60706 1.66949 2.47282 1.77198 2.35899C1.87447 2.24516 1.9999 2.15432 2.14002 2.09245C2.28014 2.03058 2.43178 1.99908 2.58494 2.00002H4.99994C5.21545 2.00066 5.42584 2.06575 5.60404 2.18694C5.78225 2.30812 5.92013 2.47984 5.99994 2.68002L6.54494 4.04502C6.62507 4.24155 6.64551 4.45734 6.60372 4.66543C6.56192 4.87351 6.45974 5.06467 6.30994 5.21502L5.18994 6.33502C5.18994 6.33502 5.83494 10.7 10.1649 11.24Z" fill="#787A7E"/>
</g>
</svg>
