<svg width="24" height="24" viewBox="0 0 24 24" fill="none" xmlns="http://www.w3.org/2000/svg">
<g id="iconoir:send-solid">
<path id="Vector" fill-rule="evenodd" clip-rule="evenodd" d="M3.29064 3.30861C3.15208 3.25036 2.99922 3.23509 2.85188 3.26477C2.70454 3.29446 2.56952 3.36772 2.46432 3.47508C2.35912 3.58243 2.28861 3.71891 2.26192 3.86682C2.23523 4.01474 2.2536 4.16726 2.31464 4.30461L5.40764 11.2496H12.9996C13.1986 11.2496 13.3893 11.3286 13.53 11.4693C13.6706 11.6099 13.7496 11.8007 13.7496 11.9996C13.7496 12.1985 13.6706 12.3893 13.53 12.5299C13.3893 12.6706 13.1986 12.7496 12.9996 12.7496H5.40764L2.31464 19.6946C2.2536 19.832 2.23523 19.9845 2.26192 20.1324C2.28861 20.2803 2.35912 20.4168 2.46432 20.5241C2.56952 20.6315 2.70454 20.7048 2.85188 20.7344C2.99922 20.7641 3.15208 20.7488 3.29064 20.6906L22.2906 12.6906C22.4265 12.6333 22.5425 12.5371 22.624 12.4142C22.7056 12.2913 22.7491 12.1471 22.7491 11.9996C22.7491 11.8521 22.7056 11.7079 22.624 11.585C22.5425 11.4621 22.4265 11.3659 22.2906 11.3086L3.29064 3.30861Z" fill="#EFF6FF"/>
</g>
</svg>
