<svg width="30" height="30" viewBox="0 0 24 24" fill="none" xmlns="http://www.w3.org/2000/svg">
<path d="M8.25 17.2496C8.05109 17.2496 7.86032 17.1706 7.71967 17.0299C7.57902 16.8893 7.5 16.6985 7.5 16.4996V7.4996C7.50007 7.37181 7.53279 7.24615 7.59506 7.13455C7.65733 7.02296 7.74708 6.92912 7.8558 6.86195C7.96451 6.79478 8.08859 6.75651 8.21626 6.75076C8.34392 6.74501 8.47093 6.77198 8.58525 6.8291L17.5853 11.3291C17.7097 11.3915 17.8143 11.4872 17.8874 11.6056C17.9605 11.724 17.9992 11.8604 17.9992 11.9996C17.9992 12.1388 17.9605 12.2752 17.8874 12.3936C17.8143 12.512 17.7097 12.6077 17.5853 12.6701L8.58525 17.1701C8.48118 17.2223 8.36641 17.2495 8.25 17.2496ZM9 8.7131V15.2861L15.573 11.9996L9 8.7131Z" fill="#315EE7"/>
<path d="M12 3C13.78 3 15.5201 3.52784 17.0001 4.51677C18.4802 5.50571 19.6337 6.91131 20.3149 8.55585C20.9961 10.2004 21.1743 12.01 20.8271 13.7558C20.4798 15.5016 19.6226 17.1053 18.364 18.364C17.1053 19.6226 15.5016 20.4798 13.7558 20.8271C12.01 21.1743 10.2004 20.9961 8.55585 20.3149C6.91132 19.6337 5.50571 18.4802 4.51678 17.0001C3.52785 15.5201 3 13.78 3 12C3 9.61305 3.94822 7.32387 5.63604 5.63604C7.32387 3.94821 9.61306 3 12 3ZM12 1.5C9.9233 1.5 7.89323 2.11581 6.16652 3.26957C4.4398 4.42332 3.09399 6.0632 2.29927 7.98182C1.50455 9.90045 1.29661 12.0116 1.70176 14.0484C2.1069 16.0852 3.10693 17.9562 4.57538 19.4246C6.04383 20.8931 7.91476 21.8931 9.95156 22.2982C11.9884 22.7034 14.0996 22.4955 16.0182 21.7007C17.9368 20.906 19.5767 19.5602 20.7304 17.8335C21.8842 16.1068 22.5 14.0767 22.5 12C22.5 9.21523 21.3938 6.54451 19.4246 4.57538C17.4555 2.60625 14.7848 1.5 12 1.5Z" fill="#315EE7"/>
</svg>