<svg width="26" height="20" viewBox="0 0 26 20" fill="none" xmlns="http://www.w3.org/2000/svg">
<g id="Group">
<path id="Vector" d="M13 18.3377C19.6276 18.3377 25 10.0009 25 10.0009C25 10.0009 19.6276 1.66406 13 1.66406C6.3724 1.66406 1 10.0009 1 10.0009C1 10.0009 6.3724 18.3377 13 18.3377Z" stroke="#0033C4" stroke-width="2" stroke-linejoin="round"/>
<path id="Vector_2" d="M13 13.4747C13.7956 13.4747 14.5587 13.1087 15.1213 12.4573C15.6839 11.8059 16 10.9223 16 10.001C16 9.07975 15.6839 8.1962 15.1213 7.54476C14.5587 6.89332 13.7956 6.52734 13 6.52734C12.2044 6.52734 11.4413 6.89332 10.8787 7.54476C10.3161 8.1962 10 9.07975 10 10.001C10 10.9223 10.3161 11.8059 10.8787 12.4573C11.4413 13.1087 12.2044 13.4747 13 13.4747Z" stroke="#0033C4" stroke-width="2" stroke-linejoin="round"/>
</g>
</svg>
