<svg width="25" height="24" viewBox="0 0 25 24" fill="none" xmlns="http://www.w3.org/2000/svg">
<path d="M12.6597 10.8707C12.5597 10.8607 12.4397 10.8607 12.3297 10.8707C11.1819 10.8318 10.0944 10.3476 9.29736 9.52068C8.50034 8.6938 8.05647 7.58918 8.05973 6.44072C8.05973 3.99072 10.0397 2.00072 12.4997 2.00072C13.0821 1.99022 13.6609 2.09453 14.203 2.3077C14.7451 2.52087 15.2399 2.83874 15.6592 3.24313C16.0784 3.64753 16.4139 4.13055 16.6465 4.66461C16.8791 5.19867 17.0042 5.77331 17.0147 6.35572C17.0252 6.93813 16.9209 7.51691 16.7077 8.05901C16.4946 8.60111 16.1767 9.09592 15.7723 9.51517C15.3679 9.93443 14.8849 10.2699 14.3508 10.5025C13.8168 10.7351 13.2421 10.8602 12.6597 10.8707ZM7.65973 14.5607C5.23973 16.1807 5.23973 18.8207 7.65973 20.4307C10.4097 22.2707 14.9197 22.2707 17.6697 20.4307C20.0897 18.8107 20.0897 16.1707 17.6697 14.5607C14.9297 12.7307 10.4197 12.7307 7.65973 14.5607Z" stroke="#3F4247" stroke-linecap="round" stroke-linejoin="round"/>
</svg>
