<svg width="18" height="18" viewBox="0 0 18 18" fill="none" xmlns="http://www.w3.org/2000/svg">
<path fill-rule="evenodd" clip-rule="evenodd" d="M11.289 8.28034L13.7868 9.11256C16.4012 9.98368 17.709 10.4192 17.709 11.2203C17.709 12.0203 16.4012 12.457 13.7868 13.3281L4.32788 16.4815C2.48787 17.0948 1.56787 17.4015 1.08232 16.9159C0.596764 16.4303 0.903431 15.5103 1.51565 13.6715L4.6701 4.21145C5.54121 1.59701 5.97677 0.289233 6.77788 0.289233C7.57788 0.289233 8.01454 1.59701 8.88565 4.21145L9.71899 6.70812L4.88121 11.5459C4.67881 11.7555 4.56682 12.0361 4.56935 12.3275C4.57188 12.6188 4.68873 12.8975 4.89474 13.1035C5.10075 13.3095 5.37943 13.4263 5.67076 13.4289C5.96209 13.4314 6.24276 13.3194 6.45232 13.117L11.289 8.28034Z" fill="#01BA4C"/>
</svg>
