<svg width="20" height="20" viewBox="0 0 20 20" fill="none" xmlns="http://www.w3.org/2000/svg">
<g id="vuesax/outline/forward-10-seconds">
<g id="forward-10-seconds">
<path id="Vector" d="M12.1864 4.41989L12.1865 4.41997L12.1921 4.41573C12.5831 4.11949 12.638 3.55743 12.3357 3.18454L10.6868 1.1275C10.3847 0.745111 9.83666 0.68478 9.46177 0.986422C9.07379 1.28335 9.02007 1.84326 9.32154 2.21507L10.97 4.27153C11.1367 4.48475 11.3939 4.59977 11.6495 4.59977C11.842 4.59977 12.0335 4.52912 12.1864 4.41989Z" fill="#6083ED" stroke="#6083ED" stroke-width="0.5"/>
<path id="Vector_2" d="M16.6082 5.97456L16.6078 5.97397C16.3179 5.59142 15.7701 5.50711 15.3825 5.8007C15 6.09049 14.9156 6.63836 15.2092 7.02592L15.4085 6.87497L15.2085 7.02496C16.0772 8.18324 16.5335 9.53096 16.5335 10.9249C16.5335 14.5285 13.6037 17.4583 10.0001 17.4583C6.39655 17.4583 3.4668 14.5285 3.4668 10.9249C3.4668 7.32135 6.39655 4.3916 10.0001 4.3916C10.4541 4.3916 10.9346 4.44731 11.4504 4.56813C11.93 4.68442 12.3956 4.38026 12.5017 3.91606C12.6178 3.44473 12.3134 2.97023 11.8481 2.8647C11.1972 2.71064 10.595 2.6416 10.0001 2.6416C5.42874 2.6416 1.7168 6.35354 1.7168 10.9249C1.7168 15.4965 5.43724 19.2083 10.0001 19.2083C14.563 19.2083 18.2835 15.4965 18.2835 10.9249C18.2835 9.14453 17.7068 7.43364 16.6082 5.97456Z" fill="#6083ED" stroke="#6083ED" stroke-width="0.5"/>
</g>
</g>
</svg>
