<svg width="12" height="12" viewBox="0 0 12 12" fill="none" xmlns="http://www.w3.org/2000/svg">
<mask id="path-1-inside-1_17205_161881" fill="white">
<path d="M10.6667 6V10.6667H1.33333V6H0V10.6667C0 11.4 0.6 12 1.33333 12H10.6667C11.4 12 12 11.4 12 10.6667V6H10.6667ZM6.66667 6.44667L8.39333 4.72667L9.33333 5.66667L6 9L2.66667 5.66667L3.60667 4.72667L5.33333 6.44667V0H6.66667V6.44667Z"/>
</mask>
<path d="M10.6667 6V10.6667H1.33333V6H0V10.6667C0 11.4 0.6 12 1.33333 12H10.6667C11.4 12 12 11.4 12 10.6667V6H10.6667ZM6.66667 6.44667L8.39333 4.72667L9.33333 5.66667L6 9L2.66667 5.66667L3.60667 4.72667L5.33333 6.44667V0H6.66667V6.44667Z" fill="black"/>
<path d="M10.6667 6V2.5H7.16667V6H10.6667ZM10.6667 10.6667V14.1667H14.1667V10.6667H10.6667ZM1.33333 10.6667H-2.16667V14.1667H1.33333V10.6667ZM1.33333 6H4.83333V2.5H1.33333V6ZM0 6V2.5H-3.5V6H0ZM12 6H15.5V2.5H12V6ZM6.66667 6.44667H3.16667V14.8734L9.13675 8.92632L6.66667 6.44667ZM8.39333 4.72667L10.8682 2.25179L8.39812 -0.218298L5.92325 2.24701L8.39333 4.72667ZM9.33333 5.66667L11.8082 8.14154L14.2831 5.66667L11.8082 3.19179L9.33333 5.66667ZM6 9L3.52513 11.4749L6 13.9497L8.47487 11.4749L6 9ZM2.66667 5.66667L0.191793 3.19179L-2.28308 5.66667L0.191793 8.14154L2.66667 5.66667ZM3.60667 4.72667L6.07675 2.24701L3.60188 -0.218298L1.13179 2.25179L3.60667 4.72667ZM5.33333 6.44667L2.86325 8.92632L8.83333 14.8734V6.44667H5.33333ZM5.33333 0V-3.5H1.83333V0H5.33333ZM6.66667 0H10.1667V-3.5H6.66667V0ZM7.16667 6V10.6667H14.1667V6H7.16667ZM10.6667 7.16667H1.33333V14.1667H10.6667V7.16667ZM4.83333 10.6667V6H-2.16667V10.6667H4.83333ZM1.33333 2.5H0V9.5H1.33333V2.5ZM-3.5 6V10.6667H3.5V6H-3.5ZM-3.5 10.6667C-3.5 13.333 -1.333 15.5 1.33333 15.5V8.5C2.533 8.5 3.5 9.467 3.5 10.6667H-3.5ZM1.33333 15.5H10.6667V8.5H1.33333V15.5ZM10.6667 15.5C13.333 15.5 15.5 13.333 15.5 10.6667H8.5C8.5 9.467 9.467 8.5 10.6667 8.5V15.5ZM15.5 10.6667V6H8.5V10.6667H15.5ZM12 2.5H10.6667V9.5H12V2.5ZM9.13675 8.92632L10.8634 7.20632L5.92325 2.24701L4.19658 3.96701L9.13675 8.92632ZM5.91846 7.20154L6.85846 8.14154L11.8082 3.19179L10.8682 2.25179L5.91846 7.20154ZM6.85846 3.19179L3.52513 6.52513L8.47487 11.4749L11.8082 8.14154L6.85846 3.19179ZM8.47487 6.52513L5.14154 3.19179L0.191793 8.14154L3.52513 11.4749L8.47487 6.52513ZM5.14154 8.14154L6.08154 7.20154L1.13179 2.25179L0.191793 3.19179L5.14154 8.14154ZM1.13658 7.20632L2.86325 8.92632L7.80342 3.96701L6.07675 2.24701L1.13658 7.20632ZM8.83333 6.44667V0H1.83333V6.44667H8.83333ZM5.33333 3.5H6.66667V-3.5H5.33333V3.5ZM3.16667 0V6.44667H10.1667V0H3.16667Z" fill="#60A5FA" mask="url(#path-1-inside-1_17205_161881)"/>
</svg>
