<svg xmlns="http://www.w3.org/2000/svg" width="18" height="19" viewBox="0 0 18 19" fill="none">
  <path d="M8.28156 13.9088C5.68956 13.9088 3.60156 11.8208 3.60156 9.22883C3.60156 6.63683 5.68956 4.54883 8.28156 4.54883C10.8736 4.54883 12.9616 6.63683 12.9616 9.22883C12.9616 11.8208 10.8736 13.9088 8.28156 13.9088ZM8.28156 5.26883C6.08556 5.26883 4.32156 7.03283 4.32156 9.22883C4.32156 11.4248 6.08556 13.1888 8.28156 13.1888C10.4776 13.1888 12.2416 11.4248 12.2416 9.22883C12.2416 7.03283 10.4776 5.26883 8.28156 5.26883Z" fill="#0A132E" fill-opacity="0.65"/>
  <path d="M11.7669 12.2051L14.9997 15.4379L14.4906 15.9469L11.2578 12.7141L11.7669 12.2051Z" fill="#0A132E" fill-opacity="0.65"/>
</svg>