<svg width="21" height="21" viewBox="0 0 21 21" fill="none" xmlns="http://www.w3.org/2000/svg">
<g id="ri:search-line">
<path id="Vector" d="M15.7207 14.1266L19.2899 17.695L18.1107 18.8741L14.5424 15.305C13.2147 16.3693 11.5632 16.9482 9.86156 16.9458C5.72156 16.9458 2.36156 13.5858 2.36156 9.4458C2.36156 5.3058 5.72156 1.9458 9.86156 1.9458C14.0016 1.9458 17.3616 5.3058 17.3616 9.4458C17.364 11.1475 16.7851 12.7989 15.7207 14.1266ZM14.0491 13.5083C15.1064 12.4206 15.697 10.9628 15.6949 9.4458C15.6949 6.2233 13.0841 3.61247 9.86156 3.61247C6.63906 3.61247 4.02822 6.2233 4.02822 9.4458C4.02822 12.6683 6.63906 15.2791 9.86156 15.2791C11.3785 15.2813 12.8363 14.6907 13.9241 13.6333L14.0491 13.5083Z" fill="black"/>
</g>
</svg>
