<svg width="18" height="18" viewBox="0 0 18 18" fill="none" xmlns="http://www.w3.org/2000/svg">
<path fill-rule="evenodd" clip-rule="evenodd" d="M6.71126 9.71966L4.21348 8.88744C1.59904 8.01632 0.291259 7.58077 0.291259 6.77966C0.291259 5.97966 1.59904 5.54299 4.21348 4.67188L13.6724 1.51855C15.5124 0.905214 16.4324 0.598547 16.9179 1.0841C17.4035 1.56966 17.0968 2.48966 16.4846 4.32855L13.3301 13.7885C12.459 16.403 12.0235 17.7108 11.2224 17.7108C10.4224 17.7108 9.9857 16.403 9.11459 13.7885L8.28126 11.2919L13.119 6.4541C13.3214 6.24454 13.4334 5.96388 13.4309 5.67255C13.4284 5.38122 13.3115 5.10253 13.1055 4.89653C12.8995 4.69052 12.6208 4.57366 12.3295 4.57113C12.0382 4.5686 11.7575 4.68059 11.5479 4.88299L6.71126 9.71966Z" fill="#E9212E"/>
</svg>
