<svg width="24" height="24" viewBox="0 0 24 24" fill="none" xmlns="http://www.w3.org/2000/svg">
<path d="M12.1197 12.7805C12.0497 12.7705 11.9597 12.7705 11.8797 12.7805C10.1197 12.7205 8.71973 11.2805 8.71973 9.51047C8.71973 7.70047 10.1797 6.23047 11.9997 6.23047C13.8097 6.23047 15.2797 7.70047 15.2797 9.51047C15.2697 11.2805 13.8797 12.7205 12.1197 12.7805Z" stroke="#3F4247" stroke-linecap="round" stroke-linejoin="round"/>
<path d="M18.7398 19.3786C16.9598 21.0086 14.5998 21.9986 11.9998 21.9986C9.39977 21.9986 7.03977 21.0086 5.25977 19.3786C5.35977 18.4386 5.95977 17.5186 7.02977 16.7986C9.76977 14.9786 14.2498 14.9786 16.9698 16.7986C18.0398 17.5186 18.6398 18.4386 18.7398 19.3786Z" stroke="#3F4247" stroke-linecap="round" stroke-linejoin="round"/>
<path d="M12 22C17.5228 22 22 17.5228 22 12C22 6.47715 17.5228 2 12 2C6.47715 2 2 6.47715 2 12C2 17.5228 6.47715 22 12 22Z" stroke="#3F4247" stroke-linecap="round" stroke-linejoin="round"/>
</svg>
