<svg width="72" height="73" viewBox="0 0 72 73" fill="none" xmlns="http://www.w3.org/2000/svg">
<g id="vuesax/bulk/shield-tick">
<g id="vuesax/bulk/shield-tick_2">
<g id="shield-tick">
<path id="Vector" d="M32.8804 6.67975L16.3804 12.8598C13.2304 14.0598 10.6504 17.7798 10.6504 21.1698V45.4697C10.6504 47.8997 12.2404 51.1098 14.1904 52.5498L30.6904 64.8797C33.6004 67.0697 38.3704 67.0697 41.2804 64.8797L57.7804 52.5498C59.7304 51.0798 61.3204 47.8997 61.3204 45.4697V21.1698C61.3204 17.8098 58.7404 14.0598 55.5904 12.8898L39.0904 6.70975C37.4104 6.04975 34.5904 6.04975 32.8804 6.67975Z" fill="white"/>
<path id="Vector_2" d="M31.9797 43.1904C31.4097 43.1904 30.8397 42.9804 30.3897 42.5304L25.5597 37.7004C24.6897 36.8304 24.6897 35.3904 25.5597 34.5204C26.4297 33.6504 27.8697 33.6504 28.7397 34.5204L31.9797 37.7604L43.2897 26.4504C44.1597 25.5804 45.5997 25.5804 46.4697 26.4504C47.3397 27.3204 47.3397 28.7604 46.4697 29.6304L33.5697 42.5304C33.1197 42.9804 32.5497 43.1904 31.9797 43.1904Z" fill="#005623"/>
</g>
</g>
</g>
</svg>
