<svg width="32" height="32" viewBox="0 0 32 32" fill="none" xmlns="http://www.w3.org/2000/svg">
<g id="ph:arrow-up-bold">
<path id="Vector" d="M16.9387 26.0612C16.7989 25.9218 16.6879 25.7563 16.6122 25.5739C16.5365 25.3916 16.4975 25.1961 16.4975 24.9987C16.4975 24.8013 16.5365 24.6058 16.6122 24.4235C16.6879 24.2411 16.7989 24.0755 16.9387 23.9362L23.3749 17.4999L4.99995 17.4999C4.60212 17.4999 4.2206 17.3419 3.93929 17.0606C3.65799 16.7793 3.49995 16.3978 3.49995 15.9999C3.49995 15.6021 3.65799 15.2206 3.93929 14.9393C4.2206 14.658 4.60212 14.4999 4.99995 14.4999L23.3749 14.4999L16.9387 8.06119C16.6569 7.7794 16.4986 7.39721 16.4986 6.9987C16.4986 6.60018 16.6569 6.21799 16.9387 5.9362C17.2205 5.6544 17.6027 5.49609 18.0012 5.49609C18.3997 5.49609 18.7819 5.6544 19.0637 5.9362L28.0637 14.9362C28.2035 15.0756 28.3145 15.2411 28.3902 15.4235C28.4659 15.6058 28.5049 15.8013 28.5049 15.9987C28.5049 16.1961 28.4659 16.3916 28.3902 16.5739C28.3145 16.7563 28.2035 16.9218 28.0637 17.0612L19.0637 26.0612C18.9243 26.201 18.7588 26.312 18.5764 26.3877C18.3941 26.4634 18.1986 26.5024 18.0012 26.5024C17.8038 26.5024 17.6083 26.4634 17.426 26.3877C17.2436 26.312 17.0781 26.201 16.9387 26.0612Z" fill="#0033C4"/>
</g>
</svg>
