<svg width="20" height="21" viewBox="0 0 20 21" fill="none" xmlns="http://www.w3.org/2000/svg">
<g id="solar:square-top-up-bold">
<path id="Vector" d="M16.4712 8.90625L19.142 6.23542C19.4445 7.45542 19.4445 9.14792 19.4445 11.6146C19.4445 15.5429 19.4445 17.5071 18.2237 18.7271C17.0045 19.9479 15.0395 19.9479 11.1112 19.9479C7.18283 19.9479 5.21866 19.9479 3.99783 18.7271C2.77783 17.5079 2.77783 15.5429 2.77783 11.6146C2.77783 7.68625 2.77783 5.72208 3.99783 4.50125C5.2195 3.28125 7.18283 3.28125 11.1112 3.28125C13.5778 3.28125 15.2703 3.28125 16.4903 3.58375L13.8195 6.25458V5.78125C13.8195 5.28397 13.622 4.80706 13.2703 4.45542C12.9187 4.10379 12.4418 3.90625 11.9445 3.90625C11.4472 3.90625 10.9703 4.10379 10.6187 4.45542C10.267 4.80706 10.0695 5.28397 10.0695 5.78125V10.7812C10.0695 11.2785 10.267 11.7554 10.6187 12.1071C10.9703 12.4587 11.4472 12.6562 11.9445 12.6562H16.9445C17.4418 12.6562 17.9187 12.4587 18.2703 12.1071C18.622 11.7554 18.8195 11.2785 18.8195 10.7812C18.8195 10.284 18.622 9.80705 18.2703 9.45542C17.9187 9.10379 17.4418 8.90625 16.9445 8.90625H16.4712Z" fill="#01BA4C"/>
<path id="Vector_2" d="M16.9443 11.4011C17.1101 11.4011 17.2691 11.3352 17.3863 11.218C17.5035 11.1008 17.5693 10.9418 17.5693 10.7761C17.5693 10.6103 17.5035 10.4513 17.3863 10.3341C17.2691 10.2169 17.1101 10.1511 16.9443 10.1511H13.4527L19.0527 4.55108C19.1631 4.4326 19.2232 4.27589 19.2203 4.11397C19.2175 3.95206 19.1519 3.79757 19.0374 3.68306C18.9228 3.56855 18.7684 3.50295 18.6064 3.5001C18.4445 3.49724 18.2878 3.55734 18.1693 3.66774L12.5693 9.26774V5.77608C12.5693 5.61032 12.5035 5.45134 12.3863 5.33413C12.2691 5.21692 12.1101 5.15108 11.9443 5.15108C11.7786 5.15108 11.6196 5.21692 11.5024 5.33413C11.3852 5.45134 11.3193 5.61032 11.3193 5.77608V10.7761C11.3193 11.1211 11.5993 11.4011 11.9443 11.4011H16.9443Z" fill="#01BA4C"/>
</g>
</svg>
