<svg width="72" height="73" viewBox="0 0 72 73" fill="none" xmlns="http://www.w3.org/2000/svg">
<path d="M32.8784 6.67975L16.3784 12.8598C13.2284 14.0598 10.6484 17.7798 10.6484 21.1698V45.4697C10.6484 47.8997 12.2384 51.1098 14.1884 52.5498L30.6884 64.8797C33.5984 67.0697 38.3684 67.0697 41.2784 64.8797L57.7784 52.5498C59.7284 51.0798 61.3184 47.8997 61.3184 45.4697V21.1698C61.3184 17.8098 58.7384 14.0598 55.5884 12.8898L39.0884 6.70975C37.4084 6.04975 34.5884 6.04975 32.8784 6.67975Z" fill="white"/>
<path d="M31.9787 43.1894C31.4087 43.1894 30.8387 42.9794 30.3887 42.5294L25.5588 37.6994C24.6888 36.8294 24.6888 35.3894 25.5588 34.5194C26.4288 33.6494 27.8687 33.6494 28.7387 34.5194L31.9787 37.7594L43.2887 26.4494C44.1588 25.5794 45.5987 25.5794 46.4687 26.4494C47.3387 27.3194 47.3387 28.7594 46.4687 29.6294L33.5687 42.5294C33.1187 42.9794 32.5487 43.1894 31.9787 43.1894Z" fill="#005623"/>
</svg>
