<svg xmlns="http://www.w3.org/2000/svg" width="16" height="17" viewBox="0 0 16 17" fill="none">
  <g clipPath="url(#clip0_2968_99460)">
    <path d="M14.4141 8.5L15.3828 9.71094C15.4766 9.83073 15.5495 9.96094 15.6016 10.1016C15.6536 10.2422 15.6797 10.3906 15.6797 10.5469C15.6797 10.7031 15.6562 10.8516 15.6094 10.9922C15.5625 11.1328 15.4948 11.2604 15.4062 11.375C15.3177 11.4896 15.2109 11.5885 15.0859 11.6719C14.9609 11.7552 14.8255 11.8177 14.6797 11.8594L13.1875 12.2734C13.1979 12.5391 13.2109 12.8073 13.2266 13.0781C13.2422 13.349 13.2526 13.6198 13.2578 13.8906C13.2578 14.0781 13.224 14.2526 13.1562 14.4141C13.0885 14.5755 12.9922 14.7161 12.8672 14.8359C12.7422 14.9557 12.599 15.0521 12.4375 15.125C12.276 15.1979 12.099 15.2344 11.9062 15.2344C11.7448 15.2344 11.5859 15.2057 11.4297 15.1484L9.98438 14.6016L9.13281 15.8906C9.00781 16.0833 8.84635 16.2318 8.64844 16.3359C8.45052 16.4401 8.23438 16.4948 8 16.5C7.77083 16.5 7.55729 16.4479 7.35938 16.3438C7.16146 16.2396 6.9974 16.0885 6.86719 15.8906L6.01562 14.6016L4.57031 15.1484C4.41406 15.2057 4.25521 15.2344 4.09375 15.2344C3.90625 15.2344 3.73177 15.2005 3.57031 15.1328C3.40885 15.0651 3.26562 14.9688 3.14062 14.8438C3.01562 14.7188 2.91927 14.5755 2.85156 14.4141C2.78385 14.2526 2.7474 14.0781 2.74219 13.8906C2.74219 13.6198 2.75 13.349 2.76562 13.0781C2.78125 12.8073 2.79688 12.5391 2.8125 12.2734L1.32031 11.8594C1.16927 11.8177 1.03385 11.7552 0.914062 11.6719C0.794271 11.5885 0.690104 11.4896 0.601562 11.375C0.513021 11.2604 0.445312 11.1328 0.398438 10.9922C0.351562 10.8516 0.325521 10.7031 0.320312 10.5469C0.320312 10.3958 0.346354 10.25 0.398438 10.1094C0.450521 9.96875 0.523438 9.83594 0.617188 9.71094L1.58594 8.5L0.617188 7.28906C0.419271 7.04427 0.320312 6.76562 0.320312 6.45312C0.320312 6.29688 0.34375 6.14844 0.390625 6.00781C0.4375 5.86719 0.505208 5.73958 0.59375 5.625C0.682292 5.51042 0.786458 5.41146 0.90625 5.32812C1.02604 5.24479 1.16406 5.18229 1.32031 5.14062L2.8125 4.72656C2.80208 4.46094 2.78906 4.19271 2.77344 3.92188C2.75781 3.65104 2.7474 3.38021 2.74219 3.10938C2.74219 2.92188 2.77604 2.7474 2.84375 2.58594C2.91146 2.42448 3.00781 2.28385 3.13281 2.16406C3.25781 2.04427 3.40104 1.94792 3.5625 1.875C3.72396 1.80208 3.90104 1.76562 4.09375 1.76562C4.25521 1.76562 4.41406 1.79427 4.57031 1.85156L6.01562 2.39844L6.86719 1.10938C6.99219 0.916667 7.15365 0.768229 7.35156 0.664062C7.54948 0.559896 7.76562 0.505208 8 0.5C8.22917 0.5 8.44271 0.552083 8.64062 0.65625C8.83854 0.760417 9.0026 0.911458 9.13281 1.10938L9.98438 2.39844L11.4297 1.85156C11.5859 1.79427 11.7448 1.76562 11.9062 1.76562C12.0938 1.76562 12.2682 1.79948 12.4297 1.86719C12.5911 1.9349 12.7344 2.03125 12.8594 2.15625C12.9844 2.28125 13.0807 2.42448 13.1484 2.58594C13.2161 2.7474 13.2526 2.92188 13.2578 3.10938C13.2578 3.38021 13.25 3.65104 13.2344 3.92188C13.2188 4.19271 13.2031 4.46094 13.1875 4.72656L14.6797 5.14062C14.8255 5.18229 14.9609 5.24479 15.0859 5.32812C15.2109 5.41146 15.3151 5.51042 15.3984 5.625C15.4818 5.73958 15.5495 5.86719 15.6016 6.00781C15.6536 6.14844 15.6797 6.29688 15.6797 6.45312C15.6797 6.76562 15.5807 7.04427 15.3828 7.28906L14.4141 8.5ZM7 11.3828L11.4453 6.94531L10.5547 6.05469L7 9.61719L5.44531 8.05469L4.55469 8.94531L7 11.3828Z" fill="#C1C2C3"/>
  </g>
  <defs>
    <clipPath id="clip0_2968_99460">
      <rect width="16" height="16" fill="white" transform="translate(0 0.5)"/>
    </clipPath>
  </defs>
</svg>