<svg xmlns="http://www.w3.org/2000/svg" width="41" height="41" viewBox="0 0 41 41" fill="none">
  <path d="M3.83301 10.4489C3.83301 8.68078 4.53539 6.98509 5.78563 5.73485C7.03587 4.48461 8.73156 3.78223 10.4997 3.78223H30.4997C32.2678 3.78223 33.9635 4.48461 35.2137 5.73485C36.464 6.98509 37.1663 8.68078 37.1663 10.4489V30.4489C37.1663 32.217 36.464 33.9127 35.2137 35.1629C33.9635 36.4132 32.2678 37.1156 30.4997 37.1156H10.4997C8.73156 37.1156 7.03587 36.4132 5.78563 35.1629C4.53539 33.9127 3.83301 32.217 3.83301 30.4489V10.4489Z" stroke="#3F4247" stroke-linecap="round" stroke-linejoin="round"/>
  <path d="M14.6667 18.7826C16.9679 18.7826 18.8333 16.9171 18.8333 14.6159C18.8333 12.3147 16.9679 10.4492 14.6667 10.4492C12.3655 10.4492 10.5 12.3147 10.5 14.6159C10.5 16.9171 12.3655 18.7826 14.6667 18.7826Z" stroke="#3F4247" stroke-linecap="round" stroke-linejoin="round"/>
  <path d="M24.71 21.4834L10.5 37.1151H30.7217C32.431 37.1151 34.0703 36.4361 35.279 35.2274C36.4876 34.0187 37.1667 32.3794 37.1667 30.6701V30.4484C37.1667 29.6717 36.875 29.3734 36.35 28.7984L29.6333 21.4734C29.3203 21.1319 28.9395 20.8595 28.5153 20.6734C28.0911 20.4873 27.6327 20.3916 27.1695 20.3926C26.7062 20.3935 26.2483 20.491 25.8248 20.6788C25.4013 20.8666 25.0216 21.1407 24.71 21.4834Z" stroke="#3F4247" stroke-linecap="round" stroke-linejoin="round"/>
</svg>