<svg xmlns="http://www.w3.org/2000/svg" width="24" height="25" viewBox="0 0 24 25" fill="none">
  <path d="M12 12.4492C14.7614 12.4492 17 10.2106 17 7.44922C17 4.68779 14.7614 2.44922 12 2.44922C9.23858 2.44922 7 4.68779 7 7.44922C7 10.2106 9.23858 12.4492 12 12.4492Z" stroke="currentColor" stroke-linecap="round" stroke-linejoin="round"/>
  <path d="M19.2101 16.1892L15.67 19.7293C15.53 19.8693 15.4 20.1292 15.37 20.3192L15.18 21.6692C15.11 22.1592 15.45 22.4992 15.94 22.4292L17.29 22.2392C17.48 22.2092 17.75 22.0792 17.88 21.9392L21.42 18.3993C22.03 17.7893 22.32 17.0792 21.42 16.1792C20.53 15.2892 19.8201 15.5792 19.2101 16.1892Z" stroke="currentColor" stroke-miterlimit="10" stroke-linecap="round" stroke-linejoin="round"/>
  <path d="M18.7002 16.6992C19.0002 17.7792 19.8402 18.6192 20.9202 18.9192" stroke="currentColor" stroke-miterlimit="10" stroke-linecap="round" stroke-linejoin="round"/>
  <path d="M3.41016 22.4492C3.41016 18.5792 7.26018 15.4492 12.0002 15.4492C13.0402 15.4492 14.0402 15.5992 14.9702 15.8792" stroke="currentColor" stroke-linecap="round" stroke-linejoin="round"/>
</svg>