<svg xmlns="http://www.w3.org/2000/svg" width="24" height="25" viewBox="0 0 24 25" fill="currentColor">
  <path d="M18 19.309H17.24C16.44 19.309 15.68 19.619 15.12 20.179L13.41 21.869C12.63 22.639 11.36 22.639 10.58 21.869L8.87 20.179C8.31 19.619 7.54 19.309 6.75 19.309H6C4.34 19.309 3 17.979 3 16.339V5.42896C3 3.78896 4.34 2.45898 6 2.45898H18C19.66 2.45898 21 3.78896 21 5.42896V16.339C21 17.969 19.66 19.309 18 19.309Z" stroke="currentColor" stroke-miterlimit="10" stroke-linecap="round" stroke-linejoin="round"/>
  <path d="M11.9999 10.449C13.2868 10.449 14.33 9.40584 14.33 8.11902C14.33 6.8322 13.2868 5.78906 11.9999 5.78906C10.7131 5.78906 9.66992 6.8322 9.66992 8.11902C9.66992 9.40584 10.7131 10.449 11.9999 10.449Z" stroke="currentColor" stroke-linecap="round" stroke-linejoin="round"/>
  <path d="M16 16.1086C16 14.3086 14.21 12.8486 12 12.8486C9.79 12.8486 8 14.3086 8 16.1086" stroke="currentColor" stroke-linecap="round" stroke-linejoin="round"/>
</svg>