<svg width="19" height="18" viewBox="0 0 19 18" fill="none" xmlns="http://www.w3.org/2000/svg">
<path d="M15.2945 6.323L18.0989 3.51862C18.4165 4.79962 18.4165 6.57675 18.4165 9.16675C18.4165 13.2915 18.4165 15.3539 17.1346 16.6349C15.8545 17.9167 13.7913 17.9167 9.6665 17.9167C5.54175 17.9167 3.47938 17.9167 2.1975 16.6349C0.916504 15.3547 0.916504 13.2915 0.916504 9.16675C0.916504 5.042 0.916504 2.97962 2.1975 1.69775C3.48025 0.416748 5.54175 0.416748 9.6665 0.416748C12.2565 0.416748 14.0336 0.416748 15.3146 0.734373L12.5103 3.53875V3.04175C12.5103 2.5196 12.3028 2.01884 11.9336 1.64963C11.5644 1.28042 11.0636 1.073 10.5415 1.073C10.0194 1.073 9.5186 1.28042 9.14939 1.64963C8.78017 2.01884 8.57275 2.5196 8.57275 3.04175V8.29175C8.57275 8.81389 8.78017 9.31465 9.14939 9.68386C9.5186 10.0531 10.0194 10.2605 10.5415 10.2605H15.7915C16.3136 10.2605 16.8144 10.0531 17.1836 9.68386C17.5528 9.31465 17.7603 8.81389 17.7603 8.29175C17.7603 7.7696 17.5528 7.26884 17.1836 6.89963C16.8144 6.53042 16.3136 6.323 15.7915 6.323H15.2945Z" fill="#1E3A8A"/>
</svg>
