<svg width="132" height="131" viewBox="0 0 132 131" fill="none" xmlns="http://www.w3.org/2000/svg">
<rect x="0.5" width="131" height="131" rx="65.5" fill="#E9212E"/>
<path d="M50.7498 86.2569L65.9998 71.0069L81.2498 86.2569L87.1803 80.3263L71.9303 65.0763L87.1803 49.8263L81.2498 43.8958L65.9998 59.1458L50.7498 43.8958L44.8192 49.8263L60.0692 65.0763L44.8192 80.3263L50.7498 86.2569ZM65.9998 107.437C60.1398 107.437 54.6329 106.325 49.479 104.099C44.325 101.874 39.8418 98.8565 36.0293 95.0468C32.2168 91.2343 29.1993 86.7511 26.9767 81.5972C24.7542 76.4432 23.6415 70.9363 23.6387 65.0763C23.6387 59.2164 24.7514 53.7094 26.9767 48.5555C29.2021 43.4016 32.2196 38.9183 36.0293 35.1058C39.8418 31.2933 44.325 28.2758 49.479 26.0533C54.6329 23.8307 60.1398 22.718 65.9998 22.7152C71.8597 22.7152 77.3667 23.8279 82.5206 26.0533C87.6746 28.2786 92.1578 31.2962 95.9703 35.1058C99.7828 38.9183 102.802 43.4016 105.027 48.5555C107.252 53.7094 108.364 59.2164 108.361 65.0763C108.361 70.9363 107.248 76.4432 105.023 81.5972C102.797 86.7511 99.78 91.2343 95.9703 95.0468C92.1578 98.8593 87.6746 101.878 82.5206 104.104C77.3667 106.329 71.8597 107.44 65.9998 107.437Z" fill="white"/>
</svg>
