<svg width="200" height="69" viewBox="0 0 200 69" fill="none" xmlns="http://www.w3.org/2000/svg">
<path d="M90.5289 45V23.1818H94.4814V41.6868H104.091V45H90.5289ZM114.488 45.3196C112.89 45.3196 111.506 44.968 110.334 44.2649C109.162 43.5618 108.253 42.5781 107.606 41.3139C106.967 40.0497 106.648 38.5724 106.648 36.8821C106.648 35.1918 106.967 33.7109 107.606 32.4396C108.253 31.1683 109.162 30.1811 110.334 29.478C111.506 28.7749 112.89 28.4233 114.488 28.4233C116.086 28.4233 117.471 28.7749 118.643 29.478C119.815 30.1811 120.721 31.1683 121.36 32.4396C122.006 33.7109 122.329 35.1918 122.329 36.8821C122.329 38.5724 122.006 40.0497 121.36 41.3139C120.721 42.5781 119.815 43.5618 118.643 44.2649C117.471 44.968 116.086 45.3196 114.488 45.3196ZM114.51 42.2301C115.376 42.2301 116.101 41.9922 116.683 41.5163C117.265 41.0334 117.699 40.3871 117.983 39.5774C118.274 38.7678 118.42 37.8658 118.42 36.8714C118.42 35.87 118.274 34.9645 117.983 34.1548C117.699 33.3381 117.265 32.6882 116.683 32.2053C116.101 31.7223 115.376 31.4808 114.51 31.4808C113.622 31.4808 112.883 31.7223 112.294 32.2053C111.711 32.6882 111.275 33.3381 110.983 34.1548C110.699 34.9645 110.557 35.87 110.557 36.8714C110.557 37.8658 110.699 38.7678 110.983 39.5774C111.275 40.3871 111.711 41.0334 112.294 41.5163C112.883 41.9922 113.622 42.2301 114.51 42.2301ZM132.719 51.4773C131.334 51.4773 130.145 51.2891 129.15 50.9126C128.156 50.5433 127.357 50.0462 126.753 49.4212C126.15 48.7962 125.73 48.1037 125.496 47.3438L128.969 46.5021C129.125 46.8217 129.353 47.1378 129.651 47.4503C129.949 47.7699 130.35 48.0327 130.855 48.2386C131.366 48.4517 132.009 48.5582 132.783 48.5582C133.877 48.5582 134.782 48.2919 135.5 47.7592C136.217 47.2337 136.576 46.3672 136.576 45.1598V42.0597H136.384C136.185 42.4574 135.894 42.8658 135.51 43.2848C135.134 43.7038 134.633 44.0554 134.008 44.3395C133.39 44.6236 132.613 44.7656 131.675 44.7656C130.418 44.7656 129.278 44.4709 128.255 43.8814C127.24 43.2848 126.43 42.397 125.826 41.218C125.23 40.032 124.931 38.5476 124.931 36.7649C124.931 34.968 125.23 33.4517 125.826 32.2159C126.43 30.973 127.243 30.032 128.266 29.3928C129.289 28.7464 130.429 28.4233 131.686 28.4233C132.645 28.4233 133.433 28.5866 134.051 28.9134C134.676 29.233 135.173 29.62 135.542 30.0746C135.912 30.522 136.192 30.9446 136.384 31.3423H136.597V28.6364H140.4V45.2663C140.4 46.6655 140.066 47.8232 139.399 48.7393C138.731 49.6555 137.819 50.3409 136.661 50.7955C135.503 51.25 134.189 51.4773 132.719 51.4773ZM132.751 41.7401C133.568 41.7401 134.264 41.5412 134.839 41.1435C135.414 40.7457 135.851 40.174 136.15 39.4283C136.448 38.6825 136.597 37.7876 136.597 36.7436C136.597 35.7138 136.448 34.8118 136.15 34.0376C135.858 33.2635 135.425 32.6634 134.85 32.2372C134.282 31.804 133.582 31.5874 132.751 31.5874C131.892 31.5874 131.174 31.8111 130.599 32.2585C130.024 32.706 129.591 33.3203 129.299 34.1016C129.008 34.8757 128.863 35.7564 128.863 36.7436C128.863 37.745 129.008 38.6222 129.299 39.375C129.598 40.1207 130.034 40.7031 130.61 41.1222C131.192 41.5341 131.906 41.7401 132.751 41.7401ZM151.49 45.3196C149.892 45.3196 148.507 44.968 147.336 44.2649C146.164 43.5618 145.255 42.5781 144.608 41.3139C143.969 40.0497 143.65 38.5724 143.65 36.8821C143.65 35.1918 143.969 33.7109 144.608 32.4396C145.255 31.1683 146.164 30.1811 147.336 29.478C148.507 28.7749 149.892 28.4233 151.49 28.4233C153.088 28.4233 154.473 28.7749 155.645 29.478C156.817 30.1811 157.723 31.1683 158.362 32.4396C159.008 33.7109 159.331 35.1918 159.331 36.8821C159.331 38.5724 159.008 40.0497 158.362 41.3139C157.723 42.5781 156.817 43.5618 155.645 44.2649C154.473 44.968 153.088 45.3196 151.49 45.3196ZM151.512 42.2301C152.378 42.2301 153.103 41.9922 153.685 41.5163C154.267 41.0334 154.701 40.3871 154.985 39.5774C155.276 38.7678 155.422 37.8658 155.422 36.8714C155.422 35.87 155.276 34.9645 154.985 34.1548C154.701 33.3381 154.267 32.6882 153.685 32.2053C153.103 31.7223 152.378 31.4808 151.512 31.4808C150.624 31.4808 149.885 31.7223 149.296 32.2053C148.713 32.6882 148.277 33.3381 147.985 34.1548C147.701 34.9645 147.559 35.87 147.559 36.8714C147.559 37.8658 147.701 38.7678 147.985 39.5774C148.277 40.3871 148.713 41.0334 149.296 41.5163C149.885 41.9922 150.624 42.2301 151.512 42.2301Z" fill="#003DAD"/>
<rect x="52.998" y="16" width="29.9513" height="28.4166" transform="rotate(36.7391 52.998 16)" fill="#003DAD"/>
</svg>
