<svg width="16" height="17" viewBox="0 0 16 17" fill="none" xmlns="http://www.w3.org/2000/svg">
<path d="M0 14.9H16V16.5H0V14.9ZM1.6 8.5H3.2V14.1H1.6V8.5ZM5.6 8.5H7.2V14.1H5.6V8.5ZM8.8 8.5H10.4V14.1H8.8V8.5ZM12.8 8.5H14.4V14.1H12.8V8.5ZM0 4.5L8 0.5L16 4.5V7.7H0V4.5ZM8 5.3C8.21217 5.3 8.41566 5.21571 8.56569 5.06569C8.71571 4.91566 8.8 4.71217 8.8 4.5C8.8 4.28783 8.71571 4.08434 8.56569 3.93431C8.41566 3.78429 8.21217 3.7 8 3.7C7.78783 3.7 7.58434 3.78429 7.43431 3.93431C7.28429 4.08434 7.2 4.28783 7.2 4.5C7.2 4.71217 7.28429 4.91566 7.43431 5.06569C7.58434 5.21571 7.78783 5.3 8 5.3Z" fill="#315EE7"/>
</svg>
