<svg width="14" height="14" viewBox="0 0 14 14" fill="none" xmlns="http://www.w3.org/2000/svg">
<path d="M6.99993 0C4.04457 0 1.6534 1.9274 1.6534 4.30918V6.43664H3.4618V4.40299C3.4618 2.82366 5.0469 1.54247 6.99993 1.54247C8.95306 1.54247 10.5381 2.85943 10.5381 4.40296V6.43664H12.3465V4.30921C12.3465 1.98823 9.95021 0 6.99996 0H6.99993ZM0.832989 6.98668C0.300246 7.65855 0 8.43326 0 9.24655C0 11.8472 3.09836 14 7.00004 14C10.9016 14 14 11.8472 14 9.24655C14 8.43317 13.6988 7.65864 13.1659 6.98668H0.832916H0.832989ZM6.98972 7.69122C7.80433 7.69122 8.48019 8.21925 8.48019 8.87679C8.48019 9.36997 8.09367 9.79598 7.56403 9.97688L8.75714 12.865H5.24286L6.41427 9.97691C5.8846 9.79604 5.51973 9.37 5.51973 8.87687C5.51973 8.2194 6.17507 7.69131 6.98968 7.69131L6.98972 7.69122Z" fill="#315EE7"/>
</svg>
