<svg xmlns="http://www.w3.org/2000/svg" width="20" height="20" viewBox="0 0 20 26" fill="none"><script xmlns=""/>
<path d="M8.51254 19.8921L15.5364 12.8697L14.5164 11.8497L8.50404 17.8634L5.47521 14.8332L4.46371 15.8447L8.51254 19.8921ZM2.37129 25.75C1.71962 25.75 1.17562 25.5318 0.73929 25.0955C0.302013 24.6582 0.083374 24.1138 0.083374 23.4621V2.53792C0.083374 1.88625 0.302013 1.34225 0.73929 0.905917C1.17562 0.468639 1.71962 0.25 2.37129 0.25H13.5417L19.9167 6.625V23.4621C19.9167 24.1138 19.6985 24.6578 19.2622 25.0941C18.8249 25.5314 18.2805 25.75 17.6288 25.75H2.37129ZM12.8334 7.33333V1.66667H2.37129C2.15407 1.66667 1.95432 1.75733 1.77204 1.93867C1.59071 2.12094 1.50004 2.32069 1.50004 2.53792V23.4621C1.50004 23.6793 1.59071 23.8791 1.77204 24.0613C1.95432 24.2427 2.15407 24.3333 2.37129 24.3333H17.6288C17.846 24.3333 18.0458 24.2427 18.228 24.0613C18.4094 23.8791 18.5 23.6793 18.5 23.4621V7.33333H12.8334Z" fill="white"/>
</svg>