<svg width="32" height="32" viewBox="0 0 32 32" fill="none" xmlns="http://www.w3.org/2000/svg">
<path d="M15 17.1798L12.41 14.5898L11 15.9998L15 19.9998L22 12.9998L20.59 11.5898L15 17.1798Z" fill="white"/>
<path d="M30 15H27.95C27.7106 12.1761 26.4801 9.52784 24.4761 7.52387C22.4722 5.51989 19.8239 4.28936 17 4.05V2H15V4.05C12.1761 4.28936 9.52784 5.51989 7.52387 7.52387C5.51989 9.52784 4.28936 12.1761 4.05 15H2V17H4.05C4.28936 19.8239 5.51989 22.4722 7.52387 24.4761C9.52784 26.4801 12.1761 27.7106 15 27.95V30H17V27.95C19.8239 27.7106 22.4722 26.4801 24.4761 24.4761C26.4801 22.4722 27.7106 19.8239 27.95 17H30V15ZM17 25.95V23H15V25.95C12.706 25.7163 10.5628 24.6982 8.93231 23.0677C7.30179 21.4372 6.28374 19.294 6.05 17H9V15H6.05C6.28374 12.706 7.30179 10.5628 8.93231 8.93231C10.5628 7.30179 12.706 6.28374 15 6.05V9H17V6.05C19.294 6.28374 21.4372 7.30179 23.0677 8.93231C24.6982 10.5628 25.7163 12.706 25.95 15H23V17H25.949C25.7153 19.2939 24.6974 21.4369 23.0671 23.0674C21.4368 24.6979 19.2938 25.716 17 25.95Z" fill="white"/>
</svg>
