<svg width="24" height="24" viewBox="0 0 24 24" fill="none" xmlns="http://www.w3.org/2000/svg">
<path d="M21.5115 5.3685C20.991 4.659 20.265 3.828 19.4685 3.0315C18.672 2.235 17.841 1.509 17.1315 0.9885C15.9225 0.102 15.336 0 15 0H3.375C2.3415 0 1.5 0.8415 1.5 1.875V22.125C1.5 23.1585 2.3415 24 3.375 24H20.625C21.6585 24 22.5 23.1585 22.5 22.125V7.5C22.5 7.164 22.398 6.5775 21.5115 5.3685ZM18.4065 4.0935C19.1265 4.8135 19.6905 5.4615 20.1075 6H16.4985V2.3925C17.037 2.8095 17.688 3.3735 18.4065 4.0935ZM21 22.125C21 22.329 20.829 22.5 20.625 22.5H3.375C3.27591 22.4988 3.1812 22.4589 3.11113 22.3889C3.04105 22.3188 3.00117 22.2241 3 22.125V1.875C3 1.6725 3.1725 1.5 3.375 1.5H15V6.75C15 6.94891 15.079 7.13968 15.2197 7.28033C15.3603 7.42098 15.5511 7.5 15.75 7.5H21V22.125Z" fill="white"/>
</svg>
