<svg width="21" height="24" viewBox="0 0 21 24" fill="none" xmlns="http://www.w3.org/2000/svg">
<path fill-rule="evenodd" clip-rule="evenodd" d="M10.4435 1.56771C10.3918 1.55108 10.3363 1.55108 10.2846 1.56771L1.73919 4.34372C1.68687 4.35958 1.64091 4.39157 1.60787 4.43512C1.57484 4.47867 1.55641 4.53155 1.55524 4.5862V9.82049C1.55524 15.4729 4.95836 19.6452 10.293 21.6604C10.3389 21.677 10.3892 21.677 10.4351 21.6604C15.7698 19.6452 19.1729 15.4729 19.1729 9.82049V4.5862C19.1717 4.53155 19.1533 4.47867 19.1202 4.43512C19.0872 4.39157 19.0412 4.35958 18.9889 4.34372L10.4435 1.56771ZM9.80802 0.0877244C10.1695 -0.0292415 10.5586 -0.0292415 10.9201 0.0877244L19.4655 2.86374C19.8295 2.98189 20.1468 3.21211 20.3721 3.52148C20.5974 3.83084 20.7191 4.20351 20.7198 4.5862V9.82049C20.7198 16.2337 16.8149 20.9078 10.9786 23.1153C10.5755 23.2574 10.1359 23.2574 9.73277 23.1153C3.91317 20.8827 0 16.2087 0 9.82049V4.5862C0.000701527 4.20351 0.122384 3.83084 0.34765 3.52148C0.572916 3.21211 0.89023 2.98189 1.25422 2.86374L9.80802 0.0877244ZM11.3967 11.5848C11.7079 11.4061 11.9672 11.1494 12.149 10.8401C12.3308 10.5307 12.4289 10.1793 12.4335 9.82049C12.4515 9.53766 12.4113 9.25415 12.3155 8.98745C12.2196 8.72076 12.0701 8.47654 11.8762 8.26989C11.6822 8.06323 11.448 7.89852 11.1879 7.78592C10.9279 7.67332 10.6475 7.61523 10.3641 7.61523C10.0807 7.61523 9.80026 7.67332 9.54019 7.78592C9.28012 7.89852 9.04588 8.06323 8.85195 8.26989C8.65802 8.47654 8.50851 8.72076 8.41264 8.98745C8.31678 9.25415 8.2766 9.53766 8.29459 9.82049C8.29488 10.1836 8.39088 10.5401 8.5729 10.8543C8.75493 11.1684 9.01656 11.429 9.33141 11.6098V14.4778C9.3185 14.6213 9.33559 14.7658 9.38162 14.9022C9.42764 15.0387 9.50159 15.164 9.59873 15.2703C9.69588 15.3766 9.81411 15.4615 9.94587 15.5196C10.0776 15.5777 10.2201 15.6077 10.3641 15.6077C10.5081 15.6077 10.6505 15.5777 10.7822 15.5196C10.914 15.4615 11.0322 15.3766 11.1294 15.2703C11.2265 15.164 11.3005 15.0387 11.3465 14.9022C11.3925 14.7658 11.4096 14.6213 11.3967 14.4778V11.5848Z" fill="white"/>
</svg>
