<svg width="23" height="31" viewBox="0 0 23 31" fill="none" xmlns="http://www.w3.org/2000/svg">
<path d="M19.8855 15.6318C19.8855 15.8183 19.8289 15.9972 19.7281 16.129C19.6273 16.2609 19.4906 16.335 19.3481 16.335H3.58298C3.44044 16.335 3.30374 16.2609 3.20295 16.129C3.10216 15.9972 3.04553 15.8183 3.04553 15.6318C3.04553 15.4454 3.10216 15.2665 3.20295 15.1347C3.30374 15.0028 3.44044 14.9287 3.58298 14.9287H19.3481C19.4906 14.9287 19.6273 15.0028 19.7281 15.1347C19.8289 15.2665 19.8855 15.4454 19.8855 15.6318ZM3.58298 8.83496H19.3481C19.4906 8.83496 19.6273 8.76088 19.7281 8.62902C19.8289 8.49716 19.8855 8.31832 19.8855 8.13184C19.8855 7.94536 19.8289 7.76651 19.7281 7.63465C19.6273 7.50279 19.4906 7.42871 19.3481 7.42871H3.58298C3.44044 7.42871 3.30374 7.50279 3.20295 7.63465C3.10216 7.76651 3.04553 7.94536 3.04553 8.13184C3.04553 8.31832 3.10216 8.49716 3.20295 8.62902C3.30374 8.76088 3.44044 8.83496 3.58298 8.83496ZM19.3481 22.4287H3.58298C3.44044 22.4287 3.30374 22.5028 3.20295 22.6347C3.10216 22.7665 3.04553 22.9454 3.04553 23.1318C3.04553 23.3183 3.10216 23.4972 3.20295 23.629C3.30374 23.7609 3.44044 23.835 3.58298 23.835H19.3481C19.4906 23.835 19.6273 23.7609 19.7281 23.629C19.8289 23.4972 19.8855 23.3183 19.8855 23.1318C19.8855 22.9454 19.8289 22.7665 19.7281 22.6347C19.6273 22.5028 19.4906 22.4287 19.3481 22.4287Z" fill="white"/>
</svg>
