<svg xmlns="http://www.w3.org/2000/svg" width="20" height="20" viewBox="0 0 22 23" fill="none"><script xmlns=""/>
<path d="M1 11.223V17.7679C1 19.1386 1 19.8239 1.26679 20.3489C1.50176 20.8091 1.87502 21.1835 2.33639 21.4173C2.85896 21.6841 3.54429 21.6841 4.9125 21.6841H16.6683C18.0366 21.6841 18.7207 21.6841 19.2432 21.4173C19.704 21.1832 20.0789 20.8092 20.3141 20.3489C20.5808 19.8251 20.5808 19.141 20.5808 17.7728V11.223C20.5808 10.5695 20.5808 10.2427 20.5013 9.93802C20.4309 9.66865 20.315 9.41329 20.1586 9.18293C19.9812 8.92226 19.7364 8.70565 19.2432 8.2761L13.369 3.13612C12.456 2.33698 11.9983 1.9368 11.4843 1.78505C11.0315 1.65043 10.5493 1.65043 10.0953 1.78505C9.58131 1.9368 9.12605 2.33576 8.21309 3.13368L2.33762 8.2761C1.84565 8.70687 1.59966 8.92227 1.42344 9.18171C1.26654 9.41238 1.15024 9.66816 1.07955 9.93802C1 10.2415 1 10.5695 1 11.223Z" stroke="white" stroke-width="2" stroke-linecap="round" stroke-linejoin="round"/>
</svg>