<svg width="315" height="184" viewBox="0 0 315 184" fill="none" xmlns="http://www.w3.org/2000/svg">
<g opacity="0.08">
<mask id="mask0_10129_144216" style="mask-type:alpha" maskUnits="userSpaceOnUse" x="-57" y="-50" width="411" height="246">
<path d="M-57 -19.5C-57 -33.6421 -57 -40.7132 -52.6066 -45.1066C-48.2132 -49.5 -41.1421 -49.5 -27 -49.5L324 -49.5C338.142 -49.5 345.213 -49.5 349.607 -45.1066C354 -40.7132 354 -33.6421 354 -19.5V165.942C354 180.084 354 187.155 349.607 191.549C345.213 195.942 338.142 195.942 324 195.942L-27 195.942C-41.1421 195.942 -48.2132 195.942 -52.6066 191.549C-57 187.155 -57 180.084 -57 165.942L-57 -19.5Z" fill="#978CD0"/>
</mask>
<g mask="url(#mask0_10129_144216)">
<path d="M-43.4973 170.009C-219.853 194.691 -296.274 62.7621 -312.439 -6.2873V-72.3984L736.876 -72.3984L767.738 55.4164C726.588 100.96 623.126 187.639 538.476 170.009C453.825 152.379 400.331 86.2683 384.165 55.4164C282.76 -15.1021 176.947 139.157 -43.4973 170.009Z" fill="white" fill-opacity="0.5"/>
<path d="M54.2739 75.3455C-38.9129 88.3848 -79.2938 18.6868 -87.8359 -17.7921L-87.8359 -52.7188L466.625 -52.7188L482.933 14.806C461.189 38.8665 406.52 84.6592 361.79 75.3455C317.061 66.0317 288.794 31.1051 280.252 14.806C226.669 -22.4491 170.757 59.0464 54.2739 75.3455Z" fill="white" fill-opacity="0.5"/>
<path d="M158.71 -1.77708C112.401 4.7063 92.333 -29.9489 88.0879 -48.0869V-65.4531L363.632 -65.4531L371.736 -31.8785C360.93 -19.9151 333.762 2.8539 311.533 -1.77708C289.304 -6.40806 275.257 -23.7743 271.012 -31.8785C244.384 -50.4024 216.598 -9.8813 158.71 -1.77708Z" fill="white" fill-opacity="0.5"/>
<path d="M159.387 -16.2071C112.789 -12.3084 94.6787 -48.0256 91.4486 -66.3716L92.4141 -83.7109L367.532 -68.392L373.757 -34.4187C362.303 -23.0746 333.91 -1.85122 311.973 -7.71086C290.037 -13.5705 276.976 -31.6908 273.188 -40.0185C247.631 -59.9942 217.636 -21.0805 159.387 -16.2071Z" fill="white" fill-opacity="0.5"/>
</g>
</g>
</svg>
