<svg width="1440" height="800" viewBox="0 0 1440 800" fill="none" xmlns="http://www.w3.org/2000/svg">
<g opacity="0.5">
<path d="M158.126 -343.58C324.456 -140.981 372.219 17.1331 382.666 128.283C391.368 220.945 370.589 243.377 395.09 323.958C448.262 498.82 646.037 721.821 835.269 720.895C928.485 720.439 948.225 657.314 1056.42 582.841C1153.76 515.849 1318.92 443.605 1612.42 437.565" stroke="url(#paint0_linear_4945_215781)" stroke-width="1.28375" stroke-miterlimit="10"/>
<path d="M141.083 -323.084C308.985 -133.076 359.77 19.4225 373.901 126.238C385.778 216.129 372.196 240.421 401.088 322.692C461.695 495.28 646.385 706.026 831.325 710.462C926.585 712.752 953.527 655.482 1066.45 584.4C1165.87 521.821 1330.75 452.389 1620.13 445.42" stroke="url(#paint1_linear_4945_215781)" stroke-width="1.28375" stroke-miterlimit="10"/>
<path d="M124.033 -302.581C293.501 -125.171 347.384 21.7861 365.143 124.197C380.272 211.441 373.697 237.398 407.099 321.432C474.759 491.656 646.988 690.6 827.395 700.037C924.857 705.131 958.696 653.636 1076.49 585.971C1177.86 527.751 1342.59 461.194 1627.86 453.308" stroke="url(#paint2_linear_4945_215781)" stroke-width="1.28375" stroke-miterlimit="10"/>
<path d="M106.976 -282.067C278.01 -117.261 335.092 24.2429 356.368 122.17C374.793 206.852 375.066 234.318 413.13 320.176C487.474 487.976 647.813 675.549 823.472 689.607C923.275 697.599 963.734 651.765 1086.55 587.545C1189.7 533.609 1354.44 470.009 1635.58 461.18" stroke="url(#paint3_linear_4945_215781)" stroke-width="1.28375" stroke-miterlimit="10"/>
<path d="M89.914 -261.544C262.539 -109.342 322.93 26.7872 347.615 120.113C369.377 202.37 376.347 231.22 419.122 318.898C499.81 484.228 648.78 660.841 819.512 679.149C921.801 690.12 968.602 649.818 1096.58 589.098C1201.38 539.377 1366.27 478.807 1643.27 469.055" stroke="url(#paint4_linear_4945_215781)" stroke-width="1.28375" stroke-miterlimit="10"/>
<path d="M72.845 -241.013C247.021 -101.439 310.907 29.4262 338.845 118.065C364.044 198.013 377.45 228.065 425.141 317.628C511.845 480.477 649.912 646.493 815.564 668.698C920.453 682.755 973.324 647.801 1106.63 590.661C1212.95 545.068 1378.11 487.617 1651 476.918" stroke="url(#paint5_linear_4945_215781)" stroke-width="1.28375" stroke-miterlimit="10"/>
<path d="M55.7682 -220.472C231.523 -93.5357 299.076 32.1491 330.07 116.016C358.808 193.777 378.446 224.91 431.154 316.357C523.596 476.73 651.15 632.483 811.615 658.238C919.191 675.503 977.962 645.729 1116.67 592.226C1224.4 550.671 1389.97 496.442 1658.71 484.798" stroke="url(#paint6_linear_4945_215781)" stroke-width="1.28375" stroke-miterlimit="10"/>
<path d="M38.6995 -199.911C216.014 -85.5972 287.474 34.9698 321.309 113.971C353.726 189.669 379.347 221.775 437.186 315.091C535.095 473.01 652.492 618.799 807.68 647.778C918.022 668.384 982.466 643.556 1126.74 593.794C1235.75 556.178 1401.79 505.254 1666.43 492.677" stroke="url(#paint7_linear_4945_215781)" stroke-width="1.28375" stroke-miterlimit="10"/>
<path d="M21.5954 -179.362C200.477 -77.6848 276.095 37.8428 312.509 111.91C348.787 185.669 380.049 218.635 443.194 313.805C546.345 469.319 653.857 605.403 803.707 637.295C916.882 661.391 986.831 641.252 1136.77 595.344C1247.01 561.594 1413.65 514.062 1674.17 500.573" stroke="url(#paint8_linear_4945_215781)" stroke-width="1.28375" stroke-miterlimit="10"/>
<path d="M4.50946 -158.803C184.963 -69.7664 265.019 40.7661 303.732 109.844C344.033 181.749 380.696 215.498 449.221 312.517C557.391 465.659 655.251 592.266 799.758 626.804C915.772 654.532 991.122 638.83 1146.84 596.893C1258.2 566.902 1425.51 522.877 1681.87 508.434" stroke="url(#paint9_linear_4945_215781)" stroke-width="1.28375" stroke-miterlimit="10"/>
<path d="M-12.5979 -138.215C169.445 -61.8184 254.231 43.7361 294.943 107.794C339.513 177.931 381.208 212.432 455.243 311.244C568.26 462.085 656.635 579.405 795.791 616.324C914.663 647.861 995.31 636.29 1156.89 598.457C1269.31 572.131 1437.36 531.708 1689.58 516.334" stroke="url(#paint10_linear_4945_215781)" stroke-width="1.28375" stroke-miterlimit="10"/>
<path d="M-29.7025 -117.63C153.89 -53.9051 243.764 46.6908 286.152 105.731C335.26 174.137 381.63 209.414 461.267 309.959C578.985 458.569 658.003 566.76 791.829 605.826C913.538 641.356 999.431 633.606 1166.94 600.013C1280.38 577.261 1449.22 540.529 1697.29 524.215" stroke="url(#paint11_linear_4945_215781)" stroke-width="1.28375" stroke-miterlimit="10"/>
<path d="M-46.8142 -97.0338C138.348 -45.9738 233.603 49.5994 277.356 103.667C331.299 170.327 381.92 206.426 467.297 308.674C589.586 455.128 659.315 554.314 787.87 595.322C912.352 635.03 1003.49 630.78 1177.01 601.565C1291.42 582.301 1461.08 549.355 1705.01 532.104" stroke="url(#paint12_linear_4945_215781)" stroke-width="1.28375" stroke-miterlimit="10"/>
<path d="M-63.9301 -76.4309C122.804 -38.0368 223.734 52.4279 268.558 101.599C327.658 166.432 382.131 203.512 473.318 307.376C600.073 451.754 660.561 542.024 783.892 584.807C911.105 628.918 1007.5 627.796 1187.06 603.111C1302.43 587.256 1472.94 558.176 1712.72 540.001" stroke="url(#paint13_linear_4945_215781)" stroke-width="1.28375" stroke-miterlimit="10"/>
<path d="M-81.0499 -55.8187C107.254 -30.1022 214.12 55.1288 259.742 99.5185C324.33 162.355 382.244 200.653 479.344 306.082C610.481 448.466 661.689 529.907 779.915 574.282C909.734 623.01 1011.49 624.666 1197.12 604.648C1313.43 592.109 1484.79 566.996 1720.44 547.867" stroke="url(#paint14_linear_4945_215781)" stroke-width="1.28375" stroke-miterlimit="10"/>
<path d="M-98.1764 -35.1966C91.7176 -22.1512 204.707 57.662 250.956 97.4542C321.355 158.024 382.308 197.884 485.394 304.794C620.825 445.274 662.741 517.913 775.958 563.767C908.242 617.336 1015.47 621.407 1207.2 606.216C1324.45 596.925 1496.67 575.846 1728.16 555.779" stroke="url(#paint15_linear_4945_215781)" stroke-width="1.28375" stroke-miterlimit="10"/>
<path d="M-115.286 -14.5552C76.1562 -14.2095 187.278 70.5288 242.169 95.3936C331.953 136.061 382.305 195.197 491.452 303.512C631.149 442.156 663.646 506.011 771.985 553.232C906.546 611.894 1019.46 617.971 1217.27 607.762C1335.47 601.658 1508.53 584.681 1735.87 563.686" stroke="url(#paint16_linear_4945_215781)" stroke-width="1.28375" stroke-miterlimit="10"/>
<path d="M-131.8 5.8772C61.1487 -6.46066 180.658 70.9914 233.856 93.0716C327.095 131.773 382.662 192.282 497.892 301.872C641.79 438.744 664.742 493.761 768.34 542.252C904.92 606.206 1023.7 613.934 1227.52 608.835C1346.66 605.858 1520.48 593.052 1743.6 571.118" stroke="url(#paint17_linear_4945_215781)" stroke-width="1.28375" stroke-miterlimit="10"/>
<path d="M-148.119 26.2637C46.3188 1.24328 173.912 70.7244 225.705 90.7043C322.382 128.003 383.103 189.394 504.457 300.176C652.509 435.306 665.781 481.456 764.772 531.183C903.097 600.667 1028.02 609.657 1237.79 609.813C1357.88 609.904 1532.43 601.326 1751.3 578.471" stroke="url(#paint18_linear_4945_215781)" stroke-width="1.28375" stroke-miterlimit="10"/>
<path d="M-164.436 46.6412C31.4872 8.95219 169.068 64.6597 217.556 88.3496C313.045 135.032 383.503 186.603 511.03 298.476C663.225 431.969 666.639 469.186 761.227 520.115C900.989 595.354 1032.4 605.231 1248.09 610.776C1369.18 613.884 1544.41 609.589 1759.03 585.799" stroke="url(#paint19_linear_4945_215781)" stroke-width="1.28375" stroke-miterlimit="10"/>
<path d="M-180.753 67.0093C16.6565 16.6598 159.966 65.7043 209.395 85.9991C311.019 127.727 383.845 183.898 517.585 296.781C673.918 428.719 667.277 456.929 757.669 509.065C898.52 590.308 1036.81 600.737 1258.36 611.761C1380.49 617.838 1556.35 617.861 1766.74 593.153" stroke="url(#paint20_linear_4945_215781)" stroke-width="1.28375" stroke-miterlimit="10"/>
<path d="M-197.073 87.3747C1.82931 24.372 150.48 66.5212 201.239 83.6574C308.652 119.908 384.15 181.288 524.144 295.1C684.623 425.566 667.707 444.657 754.12 498.036C895.688 585.469 1041.28 596.122 1268.64 612.756C1391.84 621.773 1568.3 626.131 1774.47 600.503" stroke="url(#paint21_linear_4945_215781)" stroke-width="1.28375" stroke-miterlimit="10"/>
</g>
<defs>
<linearGradient id="paint0_linear_4945_215781" x1="925.029" y1="0.585313" x2="548.189" y2="593.375" gradientUnits="userSpaceOnUse">
<stop stop-color="#968185"/>
<stop offset="0.58" stop-color="#FCD9E0"/>
<stop offset="1" stop-color="#1D4ED8"/>
</linearGradient>
<linearGradient id="paint1_linear_4945_215781" x1="928.242" y1="5.56093" x2="558.277" y2="587.511" gradientUnits="userSpaceOnUse">
<stop stop-color="#968185"/>
<stop offset="0.58" stop-color="#FCD9E0"/>
<stop offset="1" stop-color="#1D4ED8"/>
</linearGradient>
<linearGradient id="paint2_linear_4945_215781" x1="931.455" y1="10.5597" x2="568.311" y2="581.755" gradientUnits="userSpaceOnUse">
<stop stop-color="#968185"/>
<stop offset="0.58" stop-color="#FCD9E0"/>
<stop offset="1" stop-color="#1D4ED8"/>
</linearGradient>
<linearGradient id="paint3_linear_4945_215781" x1="934.668" y1="15.5465" x2="578.271" y2="576.105" gradientUnits="userSpaceOnUse">
<stop stop-color="#968185"/>
<stop offset="0.58" stop-color="#FCD9E0"/>
<stop offset="1" stop-color="#1D4ED8"/>
</linearGradient>
<linearGradient id="paint4_linear_4945_215781" x1="937.858" y1="20.5426" x2="588.143" y2="570.565" gradientUnits="userSpaceOnUse">
<stop stop-color="#968185"/>
<stop offset="0.58" stop-color="#FCD9E0"/>
<stop offset="1" stop-color="#1D4ED8"/>
</linearGradient>
<linearGradient id="paint5_linear_4945_215781" x1="941.082" y1="25.5179" x2="597.952" y2="565.157" gradientUnits="userSpaceOnUse">
<stop stop-color="#968185"/>
<stop offset="0.58" stop-color="#FCD9E0"/>
<stop offset="1" stop-color="#1D4ED8"/>
</linearGradient>
<linearGradient id="paint6_linear_4945_215781" x1="944.288" y1="30.5106" x2="607.677" y2="559.872" gradientUnits="userSpaceOnUse">
<stop stop-color="#968185"/>
<stop offset="0.58" stop-color="#FCD9E0"/>
<stop offset="1" stop-color="#1D4ED8"/>
</linearGradient>
<linearGradient id="paint7_linear_4945_215781" x1="947.507" y1="35.5053" x2="617.334" y2="554.716" gradientUnits="userSpaceOnUse">
<stop stop-color="#968185"/>
<stop offset="0.58" stop-color="#FCD9E0"/>
<stop offset="1" stop-color="#1D4ED8"/>
</linearGradient>
<linearGradient id="paint8_linear_4945_215781" x1="950.719" y1="40.4997" x2="626.904" y2="549.686" gradientUnits="userSpaceOnUse">
<stop stop-color="#968185"/>
<stop offset="0.58" stop-color="#FCD9E0"/>
<stop offset="1" stop-color="#1D4ED8"/>
</linearGradient>
<linearGradient id="paint9_linear_4945_215781" x1="953.926" y1="45.477" x2="636.392" y2="544.76" gradientUnits="userSpaceOnUse">
<stop stop-color="#968185"/>
<stop offset="0.58" stop-color="#FCD9E0"/>
<stop offset="1" stop-color="#1D4ED8"/>
</linearGradient>
<linearGradient id="paint10_linear_4945_215781" x1="957.126" y1="50.4852" x2="645.8" y2="539.98" gradientUnits="userSpaceOnUse">
<stop stop-color="#968185"/>
<stop offset="0.58" stop-color="#FCD9E0"/>
<stop offset="1" stop-color="#1D4ED8"/>
</linearGradient>
<linearGradient id="paint11_linear_4945_215781" x1="960.336" y1="55.4754" x2="655.14" y2="535.308" gradientUnits="userSpaceOnUse">
<stop stop-color="#968185"/>
<stop offset="0.58" stop-color="#FCD9E0"/>
<stop offset="1" stop-color="#1D4ED8"/>
</linearGradient>
<linearGradient id="paint12_linear_4945_215781" x1="963.547" y1="60.4706" x2="664.409" y2="530.753" gradientUnits="userSpaceOnUse">
<stop stop-color="#968185"/>
<stop offset="0.58" stop-color="#FCD9E0"/>
<stop offset="1" stop-color="#1D4ED8"/>
</linearGradient>
<linearGradient id="paint13_linear_4945_215781" x1="966.747" y1="65.4742" x2="673.604" y2="526.305" gradientUnits="userSpaceOnUse">
<stop stop-color="#968185"/>
<stop offset="0.58" stop-color="#FCD9E0"/>
<stop offset="1" stop-color="#1D4ED8"/>
</linearGradient>
<linearGradient id="paint14_linear_4945_215781" x1="969.964" y1="70.4501" x2="682.721" y2="521.98" gradientUnits="userSpaceOnUse">
<stop stop-color="#968185"/>
<stop offset="0.58" stop-color="#FCD9E0"/>
<stop offset="1" stop-color="#1D4ED8"/>
</linearGradient>
<linearGradient id="paint15_linear_4945_215781" x1="973.171" y1="75.4622" x2="691.779" y2="517.77" gradientUnits="userSpaceOnUse">
<stop stop-color="#968185"/>
<stop offset="0.58" stop-color="#FCD9E0"/>
<stop offset="1" stop-color="#1D4ED8"/>
</linearGradient>
<linearGradient id="paint16_linear_4945_215781" x1="976.382" y1="80.4785" x2="700.769" y2="513.678" gradientUnits="userSpaceOnUse">
<stop stop-color="#968185"/>
<stop offset="0.58" stop-color="#FCD9E0"/>
<stop offset="1" stop-color="#1D4ED8"/>
</linearGradient>
<linearGradient id="paint17_linear_4945_215781" x1="979.858" y1="85.2313" x2="695.501" y2="532.199" gradientUnits="userSpaceOnUse">
<stop stop-color="#968185"/>
<stop offset="0.58" stop-color="#FCD9E0"/>
<stop offset="1" stop-color="#1D4ED8"/>
</linearGradient>
<linearGradient id="paint18_linear_4945_215781" x1="983.385" y1="89.9685" x2="686.26" y2="557.044" gradientUnits="userSpaceOnUse">
<stop stop-color="#968185"/>
<stop offset="0.58" stop-color="#FCD9E0"/>
<stop offset="1" stop-color="#1D4ED8"/>
</linearGradient>
<linearGradient id="paint19_linear_4945_215781" x1="986.937" y1="94.677" x2="677.028" y2="581.887" gradientUnits="userSpaceOnUse">
<stop stop-color="#968185"/>
<stop offset="0.58" stop-color="#FCD9E0"/>
<stop offset="1" stop-color="#1D4ED8"/>
</linearGradient>
<linearGradient id="paint20_linear_4945_215781" x1="990.466" y1="99.4086" x2="667.794" y2="606.721" gradientUnits="userSpaceOnUse">
<stop stop-color="#968185"/>
<stop offset="0.58" stop-color="#FCD9E0"/>
<stop offset="1" stop-color="#1D4ED8"/>
</linearGradient>
<linearGradient id="paint21_linear_4945_215781" x1="994.005" y1="104.132" x2="658.563" y2="631.558" gradientUnits="userSpaceOnUse">
<stop stop-color="#968185"/>
<stop offset="0.58" stop-color="#FCD9E0"/>
<stop offset="1" stop-color="#1D4ED8"/>
</linearGradient>
</defs>
</svg>
